M48
; DRILL file KiCad 10.0.4-10.0.4~ubuntu24.04.1 date 2026-07-30T18:24:02
; FORMAT={-:-/ absolute / metric / decimal}
; #@! TF.CreationDate,2026-07-30T18:24:02-05:00
; #@! TF.GenerationSoftware,Kicad,Pcbnew,10.0.4-10.0.4~ubuntu24.04.1
; #@! TF.FileFunction,MixedPlating,1,2
FMAT,2
METRIC
; #@! TA.AperFunction,Plated,PTH,ComponentDrill
T1C0.200
; #@! TA.AperFunction,Plated,PTH,ViaDrill
T2C0.300
; #@! TA.AperFunction,Plated,PTH,ComponentDrill
T3C0.750
; #@! TA.AperFunction,Plated,PTH,ComponentDrill
T4C0.950
; #@! TA.AperFunction,NonPlated,NPTH,ComponentDrill
T5C0.991
; #@! TA.AperFunction,NonPlated,NPTH,ComponentDrill
T6C1.500
; #@! TA.AperFunction,NonPlated,NPTH,ComponentDrill
T7C2.375
; #@! TA.AperFunction,NonPlated,NPTH,ComponentDrill
T8C2.500
%
G90
G05
T1
X141.5Y-79.26
X141.5Y-80.66
X142.2Y-78.56
X142.2Y-79.96
X142.2Y-81.36
X142.9Y-79.26
X142.9Y-80.66
X143.6Y-78.56
X143.6Y-79.96
X143.6Y-81.36
X144.3Y-79.26
X144.3Y-80.66
X159.25Y-76.65
X159.25Y-77.4
X159.25Y-78.15
X159.95Y-76.65
X159.95Y-77.4
X159.95Y-78.15
X173.15Y-78.4
X173.15Y-79.4
X173.15Y-80.4
X174.45Y-78.4
X174.45Y-79.4
X174.45Y-80.4
T2
X121.8Y-82.083
X122.7Y-77.3
X125.8Y-78.6
X125.8Y-83.8
X128.6Y-82.1
X130.3Y-72.2
X132.69Y-79.707
X132.775Y-76.056
X137.0Y-81.13
X137.0Y-82.4
X137.0Y-83.7
X137.0Y-84.94
X137.0Y-86.21
X150.0Y-76.05
X150.0Y-77.3
X151.8Y-88.8
X154.6Y-74.8
X154.6Y-78.59
X154.6Y-81.13
X154.6Y-82.4
X154.6Y-87.48
X173.917Y-87.517
X178.3Y-80.035
X178.7Y-70.9
X181.1Y-68.4
X189.3Y-68.1
T3
X127.9Y-91.6
X127.9Y-93.6
T4
X189.5Y-79.7
X189.5Y-82.2
X189.5Y-84.7
X189.5Y-87.2
X189.5Y-89.7
X189.5Y-92.2
X189.5Y-94.7
X189.5Y-97.2
T5
X122.395Y-81.224
X122.395Y-83.256
X127.475Y-82.24
T6
X185.0Y-70.2
T7
X124.3Y-79.7
X124.3Y-84.78
X127.475Y-79.7
X127.475Y-84.78
T8
X125.0Y-73.2
X195.0Y-73.2
M30
