<svg xmlns="http://www.w3.org/2000/svg" viewBox="0 0 1380 1100" font-family="Helvetica, Arial, sans-serif">
<rect x="0" y="0" width="1380" height="1100" fill="#fbfbf7"/>
<text x="40.0" y="52.0" font-family="Helvetica, Arial, sans-serif" font-size="27" text-anchor="start" font-weight="700" fill="#1b1b1b" letter-spacing="0.5">NES ADVANTAGE  ·  NES-026</text>
<text x="40.0" y="76.0" font-family="Helvetica, Arial, sans-serif" font-size="15" text-anchor="start" font-weight="400" fill="#555555" letter-spacing="0">Joystick controller — CD4021 parallel-in / serial-out + 74HC04 turbo &amp; slow oscillators</text>
<line x1="40.0" y1="90.0" x2="1340.0" y2="90.0" stroke="#cdcdc7" stroke-width="1.4" stroke-linecap="round"/>
<rect x="628.0" y="170.0" width="170.0" height="300.0" rx="6" fill="none" stroke="#1b1b1b" stroke-width="2.6"/>
<text x="713.0" y="548.0" font-family="Helvetica, Arial, sans-serif" font-size="19" text-anchor="middle" font-weight="700" fill="#1b1b1b" letter-spacing="0">CD4021</text>
<text x="713.0" y="568.0" font-family="Helvetica, Arial, sans-serif" font-size="12.5" text-anchor="middle" font-weight="400" fill="#555555" letter-spacing="0">8-bit PISO shift register</text>
<line x1="602.0" y1="200.0" x2="628.0" y2="200.0" stroke="#1b1b1b" stroke-width="2.2" stroke-linecap="round"/>
<text x="640.0" y="205.0" font-family="'DejaVu Sans Mono', Menlo, monospace" font-size="14" text-anchor="start" font-weight="600" fill="#1b1b1b" letter-spacing="0">P1</text>
<line x1="602.0" y1="234.3" x2="628.0" y2="234.3" stroke="#1b1b1b" stroke-width="2.2" stroke-linecap="round"/>
<text x="640.0" y="239.3" font-family="'DejaVu Sans Mono', Menlo, monospace" font-size="14" text-anchor="start" font-weight="600" fill="#1b1b1b" letter-spacing="0">P2</text>
<line x1="602.0" y1="268.6" x2="628.0" y2="268.6" stroke="#1b1b1b" stroke-width="2.2" stroke-linecap="round"/>
<text x="640.0" y="273.6" font-family="'DejaVu Sans Mono', Menlo, monospace" font-size="14" text-anchor="start" font-weight="600" fill="#1b1b1b" letter-spacing="0">P3</text>
<line x1="602.0" y1="302.9" x2="628.0" y2="302.9" stroke="#1b1b1b" stroke-width="2.2" stroke-linecap="round"/>
<text x="640.0" y="307.9" font-family="'DejaVu Sans Mono', Menlo, monospace" font-size="14" text-anchor="start" font-weight="600" fill="#1b1b1b" letter-spacing="0">P4</text>
<line x1="602.0" y1="337.1" x2="628.0" y2="337.1" stroke="#1b1b1b" stroke-width="2.2" stroke-linecap="round"/>
<text x="640.0" y="342.1" font-family="'DejaVu Sans Mono', Menlo, monospace" font-size="14" text-anchor="start" font-weight="600" fill="#1b1b1b" letter-spacing="0">P5</text>
<line x1="602.0" y1="371.4" x2="628.0" y2="371.4" stroke="#1b1b1b" stroke-width="2.2" stroke-linecap="round"/>
<text x="640.0" y="376.4" font-family="'DejaVu Sans Mono', Menlo, monospace" font-size="14" text-anchor="start" font-weight="600" fill="#1b1b1b" letter-spacing="0">P6</text>
<line x1="602.0" y1="405.7" x2="628.0" y2="405.7" stroke="#1b1b1b" stroke-width="2.2" stroke-linecap="round"/>
<text x="640.0" y="410.7" font-family="'DejaVu Sans Mono', Menlo, monospace" font-size="14" text-anchor="start" font-weight="600" fill="#1b1b1b" letter-spacing="0">P7</text>
<line x1="602.0" y1="440.0" x2="628.0" y2="440.0" stroke="#1b1b1b" stroke-width="2.2" stroke-linecap="round"/>
<text x="640.0" y="445.0" font-family="'DejaVu Sans Mono', Menlo, monospace" font-size="14" text-anchor="start" font-weight="600" fill="#1b1b1b" letter-spacing="0">P8</text>
<line x1="798.0" y1="214.0" x2="824.0" y2="214.0" stroke="#1b1b1b" stroke-width="2.2" stroke-linecap="round"/>
<text x="786.0" y="219.0" font-family="'DejaVu Sans Mono', Menlo, monospace" font-size="14" text-anchor="end" font-weight="600" fill="#1b1b1b" letter-spacing="0">CLK</text>
<text x="812.0" y="205.0" font-family="'DejaVu Sans Mono', Menlo, monospace" font-size="11.5" text-anchor="start" font-weight="400" fill="#555555" letter-spacing="0">10</text>
<line x1="798.0" y1="283.0" x2="824.0" y2="283.0" stroke="#1b1b1b" stroke-width="2.2" stroke-linecap="round"/>
<text x="786.0" y="288.0" font-family="'DejaVu Sans Mono', Menlo, monospace" font-size="14" text-anchor="end" font-weight="600" fill="#1b1b1b" letter-spacing="0">P/S</text>
<text x="812.0" y="274.0" font-family="'DejaVu Sans Mono', Menlo, monospace" font-size="11.5" text-anchor="start" font-weight="400" fill="#555555" letter-spacing="0">9</text>
<line x1="798.0" y1="352.0" x2="824.0" y2="352.0" stroke="#1b1b1b" stroke-width="2.2" stroke-linecap="round"/>
<text x="786.0" y="357.0" font-family="'DejaVu Sans Mono', Menlo, monospace" font-size="14" text-anchor="end" font-weight="600" fill="#1b1b1b" letter-spacing="0">Q8</text>
<text x="812.0" y="343.0" font-family="'DejaVu Sans Mono', Menlo, monospace" font-size="11.5" text-anchor="start" font-weight="400" fill="#555555" letter-spacing="0">3</text>
<line x1="798.0" y1="420.0" x2="824.0" y2="420.0" stroke="#1b1b1b" stroke-width="2.2" stroke-linecap="round"/>
<text x="786.0" y="425.0" font-family="'DejaVu Sans Mono', Menlo, monospace" font-size="14" text-anchor="end" font-weight="600" fill="#1b1b1b" letter-spacing="0">SER IN</text>
<text x="812.0" y="411.0" font-family="'DejaVu Sans Mono', Menlo, monospace" font-size="11.5" text-anchor="start" font-weight="400" fill="#555555" letter-spacing="0">11</text>
<line x1="713.0" y1="170.0" x2="713.0" y2="136.0" stroke="#1b1b1b" stroke-width="2.2" stroke-linecap="round"/>
<text x="703.0" y="188.0" font-family="'DejaVu Sans Mono', Menlo, monospace" font-size="13" text-anchor="end" font-weight="600" fill="#1b1b1b" letter-spacing="0">VCC</text>
<text x="703.0" y="158.0" font-family="'DejaVu Sans Mono', Menlo, monospace" font-size="11.5" text-anchor="end" font-weight="400" fill="#555555" letter-spacing="0">16</text>
<line x1="713.0" y1="136.0" x2="713.0" y2="120.0" stroke="#1b1b1b" stroke-width="2.2" stroke-linecap="round"/>
<line x1="704.0" y1="120.0" x2="722.0" y2="120.0" stroke="#b3261e" stroke-width="2.4" stroke-linecap="round"/>
<text x="713.0" y="114.0" font-family="Helvetica, Arial, sans-serif" font-size="13" text-anchor="middle" font-weight="600" fill="#b3261e" letter-spacing="0">+5V</text>
<line x1="713.0" y1="470.0" x2="713.0" y2="500.0" stroke="#1b1b1b" stroke-width="2.2" stroke-linecap="round"/>
<text x="703.0" y="458.0" font-family="'DejaVu Sans Mono', Menlo, monospace" font-size="13" text-anchor="end" font-weight="600" fill="#1b1b1b" letter-spacing="0">GND</text>
<text x="723.0" y="492.0" font-family="'DejaVu Sans Mono', Menlo, monospace" font-size="11.5" text-anchor="start" font-weight="400" fill="#555555" letter-spacing="0">8</text>
<line x1="713.0" y1="500.0" x2="713.0" y2="512.0" stroke="#1b1b1b" stroke-width="2.2" stroke-linecap="round"/>
<line x1="700.0" y1="512.0" x2="726.0" y2="512.0" stroke="#1b1b1b" stroke-width="2.4" stroke-linecap="round"/>
<line x1="705.0" y1="518.0" x2="721.0" y2="518.0" stroke="#1b1b1b" stroke-width="2.4" stroke-linecap="round"/>
<line x1="709.5" y1="523.0" x2="716.5" y2="523.0" stroke="#1b1b1b" stroke-width="2.4" stroke-linecap="round"/>
<line x1="92.0" y1="194.0" x2="92.0" y2="377.4" stroke="#1b1b1b" stroke-width="2.4" stroke-linecap="round"/>
<line x1="92.0" y1="377.4" x2="92.0" y2="389.4" stroke="#1b1b1b" stroke-width="2.2" stroke-linecap="round"/>
<line x1="79.0" y1="389.4" x2="105.0" y2="389.4" stroke="#1b1b1b" stroke-width="2.4" stroke-linecap="round"/>
<line x1="84.0" y1="395.4" x2="100.0" y2="395.4" stroke="#1b1b1b" stroke-width="2.4" stroke-linecap="round"/>
<line x1="88.5" y1="400.4" x2="95.5" y2="400.4" stroke="#1b1b1b" stroke-width="2.4" stroke-linecap="round"/>
<line x1="300.0" y1="108.0" x2="560.0" y2="108.0" stroke="#b3261e" stroke-width="2.4" stroke-linecap="round"/>
<line x1="560.0" y1="108.0" x2="560.0" y2="92.0" stroke="#1b1b1b" stroke-width="2.2" stroke-linecap="round"/>
<line x1="551.0" y1="92.0" x2="569.0" y2="92.0" stroke="#b3261e" stroke-width="2.4" stroke-linecap="round"/>
<text x="560.0" y="86.0" font-family="Helvetica, Arial, sans-serif" font-size="13" text-anchor="middle" font-weight="600" fill="#b3261e" letter-spacing="0">+5V</text>
<text x="292.0" y="113.0" font-family="Helvetica, Arial, sans-serif" font-size="13" text-anchor="end" font-weight="600" fill="#b3261e" letter-spacing="0">+5V</text>
<line x1="150.0" y1="200.0" x2="602.0" y2="200.0" stroke="#1b1b1b" stroke-width="2.2" stroke-linecap="round"/>
<line x1="150.0" y1="200.0" x2="138.0" y2="200.0" stroke="#1b1b1b" stroke-width="2.2" stroke-linecap="round"/>
<line x1="92.0" y1="200.0" x2="104.0" y2="200.0" stroke="#1b1b1b" stroke-width="2.2" stroke-linecap="round"/>
<circle cx="104.0" cy="200.0" r="3.2" fill="#1b1b1b"/>
<circle cx="138.0" cy="200.0" r="3.2" fill="#1b1b1b"/>
<line x1="104.0" y1="200.0" x2="104.0" y2="192.0" stroke="#1b1b1b" stroke-width="2.2" stroke-linecap="round"/>
<line x1="138.0" y1="200.0" x2="138.0" y2="192.0" stroke="#1b1b1b" stroke-width="2.2" stroke-linecap="round"/>
<line x1="101.0" y1="189.0" x2="141.0" y2="189.0" stroke="#1b1b1b" stroke-width="2.4" stroke-linecap="round"/>
<line x1="121.0" y1="189.0" x2="121.0" y2="177.0" stroke="#1b1b1b" stroke-width="2.2" stroke-linecap="round"/>
<line x1="114.0" y1="177.0" x2="128.0" y2="177.0" stroke="#1b1b1b" stroke-width="2.4" stroke-linecap="round"/>
<text x="170.0" y="191.0" font-family="Helvetica, Arial, sans-serif" font-size="15" text-anchor="start" font-weight="600" fill="#1b1b1b" letter-spacing="0">RIGHT</text>
<line x1="318.0" y1="108.0" x2="318.0" y2="118.0" stroke="#1b1b1b" stroke-width="2.2" stroke-linecap="round"/>
<polyline points="318.0,118.0 318.0,120.0 318.0,120.0 313.0,125.0 323.0,130.0 313.0,135.0 323.0,140.0 313.0,145.0 318.0,150.0 318.0,150.0 318.0,152.0" fill="none" stroke="#1b1b1b" stroke-width="2.2" stroke-linecap="round" stroke-linejoin="round"/>
<line x1="318.0" y1="152.0" x2="318.0" y2="200.0" stroke="#1b1b1b" stroke-width="2.2" stroke-linecap="round"/>
<circle cx="318.0" cy="200.0" r="3.6" fill="#1b1b1b"/>
<line x1="150.0" y1="234.3" x2="602.0" y2="234.3" stroke="#1b1b1b" stroke-width="2.2" stroke-linecap="round"/>
<line x1="150.0" y1="234.3" x2="138.0" y2="234.3" stroke="#1b1b1b" stroke-width="2.2" stroke-linecap="round"/>
<line x1="92.0" y1="234.3" x2="104.0" y2="234.3" stroke="#1b1b1b" stroke-width="2.2" stroke-linecap="round"/>
<circle cx="104.0" cy="234.3" r="3.2" fill="#1b1b1b"/>
<circle cx="138.0" cy="234.3" r="3.2" fill="#1b1b1b"/>
<line x1="104.0" y1="234.3" x2="104.0" y2="226.3" stroke="#1b1b1b" stroke-width="2.2" stroke-linecap="round"/>
<line x1="138.0" y1="234.3" x2="138.0" y2="226.3" stroke="#1b1b1b" stroke-width="2.2" stroke-linecap="round"/>
<line x1="101.0" y1="223.3" x2="141.0" y2="223.3" stroke="#1b1b1b" stroke-width="2.4" stroke-linecap="round"/>
<line x1="121.0" y1="223.3" x2="121.0" y2="211.3" stroke="#1b1b1b" stroke-width="2.2" stroke-linecap="round"/>
<line x1="114.0" y1="211.3" x2="128.0" y2="211.3" stroke="#1b1b1b" stroke-width="2.4" stroke-linecap="round"/>
<text x="170.0" y="225.3" font-family="Helvetica, Arial, sans-serif" font-size="15" text-anchor="start" font-weight="600" fill="#1b1b1b" letter-spacing="0">LEFT</text>
<line x1="350.0" y1="108.0" x2="350.0" y2="118.0" stroke="#1b1b1b" stroke-width="2.2" stroke-linecap="round"/>
<polyline points="350.0,118.0 350.0,120.0 350.0,120.0 345.0,125.0 355.0,130.0 345.0,135.0 355.0,140.0 345.0,145.0 350.0,150.0 350.0,150.0 350.0,152.0" fill="none" stroke="#1b1b1b" stroke-width="2.2" stroke-linecap="round" stroke-linejoin="round"/>
<line x1="350.0" y1="152.0" x2="350.0" y2="234.3" stroke="#1b1b1b" stroke-width="2.2" stroke-linecap="round"/>
<circle cx="350.0" cy="234.3" r="3.6" fill="#1b1b1b"/>
<line x1="150.0" y1="268.6" x2="602.0" y2="268.6" stroke="#1b1b1b" stroke-width="2.2" stroke-linecap="round"/>
<line x1="150.0" y1="268.6" x2="138.0" y2="268.6" stroke="#1b1b1b" stroke-width="2.2" stroke-linecap="round"/>
<line x1="92.0" y1="268.6" x2="104.0" y2="268.6" stroke="#1b1b1b" stroke-width="2.2" stroke-linecap="round"/>
<circle cx="104.0" cy="268.6" r="3.2" fill="#1b1b1b"/>
<circle cx="138.0" cy="268.6" r="3.2" fill="#1b1b1b"/>
<line x1="104.0" y1="268.6" x2="104.0" y2="260.6" stroke="#1b1b1b" stroke-width="2.2" stroke-linecap="round"/>
<line x1="138.0" y1="268.6" x2="138.0" y2="260.6" stroke="#1b1b1b" stroke-width="2.2" stroke-linecap="round"/>
<line x1="101.0" y1="257.6" x2="141.0" y2="257.6" stroke="#1b1b1b" stroke-width="2.4" stroke-linecap="round"/>
<line x1="121.0" y1="257.6" x2="121.0" y2="245.6" stroke="#1b1b1b" stroke-width="2.2" stroke-linecap="round"/>
<line x1="114.0" y1="245.6" x2="128.0" y2="245.6" stroke="#1b1b1b" stroke-width="2.4" stroke-linecap="round"/>
<text x="170.0" y="259.6" font-family="Helvetica, Arial, sans-serif" font-size="15" text-anchor="start" font-weight="600" fill="#1b1b1b" letter-spacing="0">DOWN</text>
<line x1="382.0" y1="108.0" x2="382.0" y2="118.0" stroke="#1b1b1b" stroke-width="2.2" stroke-linecap="round"/>
<polyline points="382.0,118.0 382.0,120.0 382.0,120.0 377.0,125.0 387.0,130.0 377.0,135.0 387.0,140.0 377.0,145.0 382.0,150.0 382.0,150.0 382.0,152.0" fill="none" stroke="#1b1b1b" stroke-width="2.2" stroke-linecap="round" stroke-linejoin="round"/>
<line x1="382.0" y1="152.0" x2="382.0" y2="268.6" stroke="#1b1b1b" stroke-width="2.2" stroke-linecap="round"/>
<circle cx="382.0" cy="268.6" r="3.6" fill="#1b1b1b"/>
<line x1="150.0" y1="302.9" x2="602.0" y2="302.9" stroke="#1b1b1b" stroke-width="2.2" stroke-linecap="round"/>
<line x1="150.0" y1="302.9" x2="138.0" y2="302.9" stroke="#1b1b1b" stroke-width="2.2" stroke-linecap="round"/>
<line x1="92.0" y1="302.9" x2="104.0" y2="302.9" stroke="#1b1b1b" stroke-width="2.2" stroke-linecap="round"/>
<circle cx="104.0" cy="302.9" r="3.2" fill="#1b1b1b"/>
<circle cx="138.0" cy="302.9" r="3.2" fill="#1b1b1b"/>
<line x1="104.0" y1="302.9" x2="104.0" y2="294.9" stroke="#1b1b1b" stroke-width="2.2" stroke-linecap="round"/>
<line x1="138.0" y1="302.9" x2="138.0" y2="294.9" stroke="#1b1b1b" stroke-width="2.2" stroke-linecap="round"/>
<line x1="101.0" y1="291.9" x2="141.0" y2="291.9" stroke="#1b1b1b" stroke-width="2.4" stroke-linecap="round"/>
<line x1="121.0" y1="291.9" x2="121.0" y2="279.9" stroke="#1b1b1b" stroke-width="2.2" stroke-linecap="round"/>
<line x1="114.0" y1="279.9" x2="128.0" y2="279.9" stroke="#1b1b1b" stroke-width="2.4" stroke-linecap="round"/>
<text x="170.0" y="293.9" font-family="Helvetica, Arial, sans-serif" font-size="15" text-anchor="start" font-weight="600" fill="#1b1b1b" letter-spacing="0">UP</text>
<line x1="414.0" y1="108.0" x2="414.0" y2="118.0" stroke="#1b1b1b" stroke-width="2.2" stroke-linecap="round"/>
<polyline points="414.0,118.0 414.0,120.0 414.0,120.0 409.0,125.0 419.0,130.0 409.0,135.0 419.0,140.0 409.0,145.0 414.0,150.0 414.0,150.0 414.0,152.0" fill="none" stroke="#1b1b1b" stroke-width="2.2" stroke-linecap="round" stroke-linejoin="round"/>
<line x1="414.0" y1="152.0" x2="414.0" y2="302.9" stroke="#1b1b1b" stroke-width="2.2" stroke-linecap="round"/>
<circle cx="414.0" cy="302.9" r="3.6" fill="#1b1b1b"/>
<line x1="150.0" y1="337.1" x2="602.0" y2="337.1" stroke="#1b1b1b" stroke-width="2.2" stroke-linecap="round"/>
<line x1="150.0" y1="337.1" x2="138.0" y2="337.1" stroke="#1b1b1b" stroke-width="2.2" stroke-linecap="round"/>
<line x1="92.0" y1="337.1" x2="104.0" y2="337.1" stroke="#1b1b1b" stroke-width="2.2" stroke-linecap="round"/>
<circle cx="104.0" cy="337.1" r="3.2" fill="#1b1b1b"/>
<circle cx="138.0" cy="337.1" r="3.2" fill="#1b1b1b"/>
<line x1="104.0" y1="337.1" x2="104.0" y2="329.1" stroke="#1b1b1b" stroke-width="2.2" stroke-linecap="round"/>
<line x1="138.0" y1="337.1" x2="138.0" y2="329.1" stroke="#1b1b1b" stroke-width="2.2" stroke-linecap="round"/>
<line x1="101.0" y1="326.1" x2="141.0" y2="326.1" stroke="#1b1b1b" stroke-width="2.4" stroke-linecap="round"/>
<line x1="121.0" y1="326.1" x2="121.0" y2="314.1" stroke="#1b1b1b" stroke-width="2.2" stroke-linecap="round"/>
<line x1="114.0" y1="314.1" x2="128.0" y2="314.1" stroke="#1b1b1b" stroke-width="2.4" stroke-linecap="round"/>
<text x="170.0" y="328.1" font-family="Helvetica, Arial, sans-serif" font-size="15" text-anchor="start" font-weight="600" fill="#1b1b1b" letter-spacing="0">START</text>
<line x1="446.0" y1="108.0" x2="446.0" y2="118.0" stroke="#1b1b1b" stroke-width="2.2" stroke-linecap="round"/>
<polyline points="446.0,118.0 446.0,120.0 446.0,120.0 441.0,125.0 451.0,130.0 441.0,135.0 451.0,140.0 441.0,145.0 446.0,150.0 446.0,150.0 446.0,152.0" fill="none" stroke="#1b1b1b" stroke-width="2.2" stroke-linecap="round" stroke-linejoin="round"/>
<line x1="446.0" y1="152.0" x2="446.0" y2="337.1" stroke="#1b1b1b" stroke-width="2.2" stroke-linecap="round"/>
<circle cx="446.0" cy="337.1" r="3.6" fill="#1b1b1b"/>
<line x1="150.0" y1="371.4" x2="602.0" y2="371.4" stroke="#1b1b1b" stroke-width="2.2" stroke-linecap="round"/>
<line x1="150.0" y1="371.4" x2="138.0" y2="371.4" stroke="#1b1b1b" stroke-width="2.2" stroke-linecap="round"/>
<line x1="92.0" y1="371.4" x2="104.0" y2="371.4" stroke="#1b1b1b" stroke-width="2.2" stroke-linecap="round"/>
<circle cx="104.0" cy="371.4" r="3.2" fill="#1b1b1b"/>
<circle cx="138.0" cy="371.4" r="3.2" fill="#1b1b1b"/>
<line x1="104.0" y1="371.4" x2="104.0" y2="363.4" stroke="#1b1b1b" stroke-width="2.2" stroke-linecap="round"/>
<line x1="138.0" y1="371.4" x2="138.0" y2="363.4" stroke="#1b1b1b" stroke-width="2.2" stroke-linecap="round"/>
<line x1="101.0" y1="360.4" x2="141.0" y2="360.4" stroke="#1b1b1b" stroke-width="2.4" stroke-linecap="round"/>
<line x1="121.0" y1="360.4" x2="121.0" y2="348.4" stroke="#1b1b1b" stroke-width="2.2" stroke-linecap="round"/>
<line x1="114.0" y1="348.4" x2="128.0" y2="348.4" stroke="#1b1b1b" stroke-width="2.4" stroke-linecap="round"/>
<text x="170.0" y="362.4" font-family="Helvetica, Arial, sans-serif" font-size="15" text-anchor="start" font-weight="600" fill="#1b1b1b" letter-spacing="0">SELECT</text>
<line x1="478.0" y1="108.0" x2="478.0" y2="118.0" stroke="#1b1b1b" stroke-width="2.2" stroke-linecap="round"/>
<polyline points="478.0,118.0 478.0,120.0 478.0,120.0 473.0,125.0 483.0,130.0 473.0,135.0 483.0,140.0 473.0,145.0 478.0,150.0 478.0,150.0 478.0,152.0" fill="none" stroke="#1b1b1b" stroke-width="2.2" stroke-linecap="round" stroke-linejoin="round"/>
<line x1="478.0" y1="152.0" x2="478.0" y2="371.4" stroke="#1b1b1b" stroke-width="2.2" stroke-linecap="round"/>
<circle cx="478.0" cy="371.4" r="3.6" fill="#1b1b1b"/>
<line x1="150.0" y1="405.7" x2="602.0" y2="405.7" stroke="#1b1b1b" stroke-width="2.2" stroke-linecap="round"/>
<line x1="150.0" y1="405.7" x2="138.0" y2="405.7" stroke="#1b1b1b" stroke-width="2.2" stroke-linecap="round"/>
<line x1="104.0" y1="405.7" x2="116.0" y2="405.7" stroke="#1b1b1b" stroke-width="2.2" stroke-linecap="round"/>
<circle cx="116.0" cy="405.7" r="3.2" fill="#1b1b1b"/>
<circle cx="138.0" cy="405.7" r="3.2" fill="#1b1b1b"/>
<line x1="116.0" y1="405.7" x2="116.0" y2="397.7" stroke="#1b1b1b" stroke-width="2.2" stroke-linecap="round"/>
<line x1="138.0" y1="405.7" x2="138.0" y2="397.7" stroke="#1b1b1b" stroke-width="2.2" stroke-linecap="round"/>
<line x1="113.0" y1="394.7" x2="141.0" y2="394.7" stroke="#1b1b1b" stroke-width="2.4" stroke-linecap="round"/>
<line x1="127.0" y1="394.7" x2="127.0" y2="382.7" stroke="#1b1b1b" stroke-width="2.2" stroke-linecap="round"/>
<line x1="120.0" y1="382.7" x2="134.0" y2="382.7" stroke="#1b1b1b" stroke-width="2.4" stroke-linecap="round"/>
<text x="170.0" y="396.7" font-family="Helvetica, Arial, sans-serif" font-size="15" text-anchor="start" font-weight="600" fill="#1b1b1b" letter-spacing="0">B</text>
<polyline points="104.0,394.7 70.0,394.7 60.0,405.7 70.0,416.7 104.0,416.7 104.0,394.7" fill="none" stroke="#1457b8" stroke-width="1.8" stroke-linecap="round" stroke-linejoin="round"/>
<text x="85.0" y="410.7" font-family="Helvetica, Arial, sans-serif" font-size="14" text-anchor="middle" font-weight="700" fill="#1457b8" letter-spacing="0">B·R</text>
<line x1="510.0" y1="108.0" x2="510.0" y2="118.0" stroke="#1b1b1b" stroke-width="2.2" stroke-linecap="round"/>
<polyline points="510.0,118.0 510.0,120.0 510.0,120.0 505.0,125.0 515.0,130.0 505.0,135.0 515.0,140.0 505.0,145.0 510.0,150.0 510.0,150.0 510.0,152.0" fill="none" stroke="#1b1b1b" stroke-width="2.2" stroke-linecap="round" stroke-linejoin="round"/>
<line x1="510.0" y1="152.0" x2="510.0" y2="405.7" stroke="#1b1b1b" stroke-width="2.2" stroke-linecap="round"/>
<circle cx="510.0" cy="405.7" r="3.6" fill="#1b1b1b"/>
<line x1="150.0" y1="440.0" x2="602.0" y2="440.0" stroke="#1b1b1b" stroke-width="2.2" stroke-linecap="round"/>
<line x1="150.0" y1="440.0" x2="138.0" y2="440.0" stroke="#1b1b1b" stroke-width="2.2" stroke-linecap="round"/>
<line x1="104.0" y1="440.0" x2="116.0" y2="440.0" stroke="#1b1b1b" stroke-width="2.2" stroke-linecap="round"/>
<circle cx="116.0" cy="440.0" r="3.2" fill="#1b1b1b"/>
<circle cx="138.0" cy="440.0" r="3.2" fill="#1b1b1b"/>
<line x1="116.0" y1="440.0" x2="116.0" y2="432.0" stroke="#1b1b1b" stroke-width="2.2" stroke-linecap="round"/>
<line x1="138.0" y1="440.0" x2="138.0" y2="432.0" stroke="#1b1b1b" stroke-width="2.2" stroke-linecap="round"/>
<line x1="113.0" y1="429.0" x2="141.0" y2="429.0" stroke="#1b1b1b" stroke-width="2.4" stroke-linecap="round"/>
<line x1="127.0" y1="429.0" x2="127.0" y2="417.0" stroke="#1b1b1b" stroke-width="2.2" stroke-linecap="round"/>
<line x1="120.0" y1="417.0" x2="134.0" y2="417.0" stroke="#1b1b1b" stroke-width="2.4" stroke-linecap="round"/>
<text x="170.0" y="431.0" font-family="Helvetica, Arial, sans-serif" font-size="15" text-anchor="start" font-weight="600" fill="#1b1b1b" letter-spacing="0">A</text>
<polyline points="104.0,429.0 70.0,429.0 60.0,440.0 70.0,451.0 104.0,451.0 104.0,429.0" fill="none" stroke="#1457b8" stroke-width="1.8" stroke-linecap="round" stroke-linejoin="round"/>
<text x="85.0" y="445.0" font-family="Helvetica, Arial, sans-serif" font-size="14" text-anchor="middle" font-weight="700" fill="#1457b8" letter-spacing="0">A·R</text>
<line x1="542.0" y1="108.0" x2="542.0" y2="118.0" stroke="#1b1b1b" stroke-width="2.2" stroke-linecap="round"/>
<polyline points="542.0,118.0 542.0,120.0 542.0,120.0 537.0,125.0 547.0,130.0 537.0,135.0 547.0,140.0 537.0,145.0 542.0,150.0 542.0,150.0 542.0,152.0" fill="none" stroke="#1b1b1b" stroke-width="2.2" stroke-linecap="round" stroke-linejoin="round"/>
<line x1="542.0" y1="152.0" x2="542.0" y2="440.0" stroke="#1b1b1b" stroke-width="2.2" stroke-linecap="round"/>
<circle cx="542.0" cy="440.0" r="3.6" fill="#1b1b1b"/>
<text x="430.0" y="96.0" font-family="Helvetica, Arial, sans-serif" font-size="12.5" text-anchor="middle" font-weight="400" fill="#555555" letter-spacing="0">8 × 10 kΩ pull-ups</text>
<line x1="300.0" y1="337.1" x2="300.0" y2="351.1" stroke="#1b1b1b" stroke-width="2.2" stroke-linecap="round"/>
<circle cx="300.0" cy="337.1" r="3.2" fill="#1b1b1b"/>
<polyline points="300.0,340.1 250.0,340.1 240.0,351.1 250.0,362.1 300.0,362.1 300.0,340.1" fill="none" stroke="#1457b8" stroke-width="1.8" stroke-linecap="round" stroke-linejoin="round"/>
<text x="273.0" y="356.1" font-family="Helvetica, Arial, sans-serif" font-size="14" text-anchor="middle" font-weight="700" fill="#1457b8" letter-spacing="0">START</text>
<line x1="824.0" y1="214.0" x2="1010.0" y2="214.0" stroke="#1b1b1b" stroke-width="2.2" stroke-linecap="round"/>
<text x="832.0" y="200.0" font-family="Helvetica, Arial, sans-serif" font-size="13" text-anchor="start" font-weight="600" fill="#1457b8" letter-spacing="0">CLK</text>
<line x1="824.0" y1="283.0" x2="1010.0" y2="283.0" stroke="#1b1b1b" stroke-width="2.2" stroke-linecap="round"/>
<text x="832.0" y="269.0" font-family="Helvetica, Arial, sans-serif" font-size="13" text-anchor="start" font-weight="600" fill="#1457b8" letter-spacing="0">LATCH</text>
<line x1="824.0" y1="352.0" x2="1010.0" y2="352.0" stroke="#1b1b1b" stroke-width="2.2" stroke-linecap="round"/>
<text x="832.0" y="338.0" font-family="Helvetica, Arial, sans-serif" font-size="13" text-anchor="start" font-weight="600" fill="#1457b8" letter-spacing="0">DATA</text>
<line x1="824.0" y1="420.0" x2="858.0" y2="420.0" stroke="#1b1b1b" stroke-width="2.2" stroke-linecap="round"/>
<line x1="858.0" y1="420.0" x2="858.0" y2="432.0" stroke="#1b1b1b" stroke-width="2.2" stroke-linecap="round"/>
<line x1="845.0" y1="432.0" x2="871.0" y2="432.0" stroke="#1b1b1b" stroke-width="2.4" stroke-linecap="round"/>
<line x1="850.0" y1="438.0" x2="866.0" y2="438.0" stroke="#1b1b1b" stroke-width="2.4" stroke-linecap="round"/>
<line x1="854.5" y1="443.0" x2="861.5" y2="443.0" stroke="#1b1b1b" stroke-width="2.4" stroke-linecap="round"/>
<line x1="880.0" y1="132.0" x2="1000.0" y2="132.0" stroke="#b3261e" stroke-width="2.4" stroke-linecap="round"/>
<line x1="1000.0" y1="132.0" x2="1000.0" y2="116.0" stroke="#1b1b1b" stroke-width="2.2" stroke-linecap="round"/>
<line x1="991.0" y1="116.0" x2="1009.0" y2="116.0" stroke="#b3261e" stroke-width="2.4" stroke-linecap="round"/>
<text x="1000.0" y="110.0" font-family="Helvetica, Arial, sans-serif" font-size="13" text-anchor="middle" font-weight="600" fill="#b3261e" letter-spacing="0">+5V</text>
<text x="940.0" y="122.0" font-family="Helvetica, Arial, sans-serif" font-size="13" text-anchor="middle" font-weight="600" fill="#b3261e" letter-spacing="0">+5V</text>
<line x1="900.0" y1="132.0" x2="900.0" y2="142.0" stroke="#1b1b1b" stroke-width="2.2" stroke-linecap="round"/>
<polyline points="900.0,142.0 900.0,144.0 900.0,144.0 895.0,149.0 905.0,154.0 895.0,159.0 905.0,164.0 895.0,169.0 900.0,174.0 900.0,174.0 900.0,176.0" fill="none" stroke="#1b1b1b" stroke-width="2.2" stroke-linecap="round" stroke-linejoin="round"/>
<line x1="900.0" y1="176.0" x2="900.0" y2="214.0" stroke="#1b1b1b" stroke-width="2.2" stroke-linecap="round"/>
<circle cx="900.0" cy="214.0" r="3.6" fill="#1b1b1b"/>
<line x1="935.0" y1="132.0" x2="935.0" y2="142.0" stroke="#1b1b1b" stroke-width="2.2" stroke-linecap="round"/>
<polyline points="935.0,142.0 935.0,144.0 935.0,144.0 930.0,149.0 940.0,154.0 930.0,159.0 940.0,164.0 930.0,169.0 935.0,174.0 935.0,174.0 935.0,176.0" fill="none" stroke="#1b1b1b" stroke-width="2.2" stroke-linecap="round" stroke-linejoin="round"/>
<line x1="935.0" y1="176.0" x2="935.0" y2="283.0" stroke="#1b1b1b" stroke-width="2.2" stroke-linecap="round"/>
<circle cx="935.0" cy="283.0" r="3.6" fill="#1b1b1b"/>
<line x1="970.0" y1="132.0" x2="970.0" y2="142.0" stroke="#1b1b1b" stroke-width="2.2" stroke-linecap="round"/>
<polyline points="970.0,142.0 970.0,144.0 970.0,144.0 965.0,149.0 975.0,154.0 965.0,159.0 975.0,164.0 965.0,169.0 970.0,174.0 970.0,174.0 970.0,176.0" fill="none" stroke="#1b1b1b" stroke-width="2.2" stroke-linecap="round" stroke-linejoin="round"/>
<line x1="970.0" y1="176.0" x2="970.0" y2="352.0" stroke="#1b1b1b" stroke-width="2.2" stroke-linecap="round"/>
<circle cx="970.0" cy="352.0" r="3.6" fill="#1b1b1b"/>
<circle cx="1010.0" cy="214.0" r="3.6" fill="#1b1b1b"/>
<circle cx="1066.0" cy="192.0" r="3.2" fill="#1b1b1b"/>
<circle cx="1066.0" cy="236.0" r="3.2" fill="#1b1b1b"/>
<line x1="1010.0" y1="214.0" x2="1064.0" y2="194.0" stroke="#1b1b1b" stroke-width="2.2" stroke-linecap="round"/>
<circle cx="1010.0" cy="283.0" r="3.6" fill="#1b1b1b"/>
<circle cx="1066.0" cy="261.0" r="3.2" fill="#1b1b1b"/>
<circle cx="1066.0" cy="305.0" r="3.2" fill="#1b1b1b"/>
<line x1="1010.0" y1="283.0" x2="1064.0" y2="263.0" stroke="#1b1b1b" stroke-width="2.2" stroke-linecap="round"/>
<circle cx="1010.0" cy="352.0" r="3.6" fill="#1b1b1b"/>
<circle cx="1066.0" cy="330.0" r="3.2" fill="#1b1b1b"/>
<circle cx="1066.0" cy="374.0" r="3.2" fill="#1b1b1b"/>
<line x1="1010.0" y1="352.0" x2="1064.0" y2="332.0" stroke="#1b1b1b" stroke-width="2.2" stroke-linecap="round"/>
<line x1="1038.0" y1="188.0" x2="1038.0" y2="378.0" stroke="#555555" stroke-width="1.6" stroke-dasharray="4 4"/>
<text x="1038.0" y="174.0" font-family="Helvetica, Arial, sans-serif" font-size="13" text-anchor="middle" font-weight="600" fill="#1b1b1b" letter-spacing="0">P1 / P2 select</text>
<rect x="1190.0" y="150.0" width="150.0" height="196.0" rx="12" fill="none" stroke="#555555" stroke-width="2.0" stroke-dasharray="6 6"/>
<text x="1326.0" y="332.0" font-family="Helvetica, Arial, sans-serif" font-size="22" text-anchor="end" font-weight="700" fill="#1b1b1b" letter-spacing="0">P1</text>
<line x1="1168.0" y1="180.0" x2="1190.0" y2="180.0" stroke="#1b1b1b" stroke-width="2.2" stroke-linecap="round"/>
<circle cx="1190.0" cy="180.0" r="3.0" fill="#1b1b1b"/>
<line x1="1168.0" y1="180.0" x2="1146.0" y2="180.0" stroke="#1b1b1b" stroke-width="2.2" stroke-linecap="round"/>
<polyline points="1146.0,180.0 1154.0,176.0 1154.0,184.0 1146.0,180.0" fill="none" stroke="#b3261e" stroke-width="1.8" stroke-linecap="round" stroke-linejoin="round"/>
<text x="1202.0" y="185.0" font-family="Helvetica, Arial, sans-serif" font-size="13" text-anchor="start" font-weight="600" fill="#b3261e" letter-spacing="0">+5V</text>
<line x1="1168.0" y1="214.0" x2="1190.0" y2="214.0" stroke="#1b1b1b" stroke-width="2.2" stroke-linecap="round"/>
<circle cx="1190.0" cy="214.0" r="3.0" fill="#1b1b1b"/>
<text x="1202.0" y="219.0" font-family="Helvetica, Arial, sans-serif" font-size="13" text-anchor="start" font-weight="600" fill="#1457b8" letter-spacing="0">CLK</text>
<line x1="1168.0" y1="248.0" x2="1190.0" y2="248.0" stroke="#1b1b1b" stroke-width="2.2" stroke-linecap="round"/>
<circle cx="1190.0" cy="248.0" r="3.0" fill="#1b1b1b"/>
<text x="1202.0" y="253.0" font-family="Helvetica, Arial, sans-serif" font-size="13" text-anchor="start" font-weight="600" fill="#1457b8" letter-spacing="0">LATCH</text>
<line x1="1168.0" y1="282.0" x2="1190.0" y2="282.0" stroke="#1b1b1b" stroke-width="2.2" stroke-linecap="round"/>
<circle cx="1190.0" cy="282.0" r="3.0" fill="#1b1b1b"/>
<text x="1202.0" y="287.0" font-family="Helvetica, Arial, sans-serif" font-size="13" text-anchor="start" font-weight="600" fill="#1457b8" letter-spacing="0">DATA</text>
<line x1="1168.0" y1="316.0" x2="1190.0" y2="316.0" stroke="#1b1b1b" stroke-width="2.2" stroke-linecap="round"/>
<circle cx="1190.0" cy="316.0" r="3.0" fill="#1b1b1b"/>
<text x="1202.0" y="321.0" font-family="Helvetica, Arial, sans-serif" font-size="13" text-anchor="start" font-weight="600" fill="#1b1b1b" letter-spacing="0">GND</text>
<line x1="1168.0" y1="316.0" x2="1146.0" y2="316.0" stroke="#1b1b1b" stroke-width="2.2" stroke-linecap="round"/>
<line x1="1146.0" y1="316.0" x2="1146.0" y2="328.0" stroke="#1b1b1b" stroke-width="2.2" stroke-linecap="round"/>
<line x1="1133.0" y1="328.0" x2="1159.0" y2="328.0" stroke="#1b1b1b" stroke-width="2.4" stroke-linecap="round"/>
<line x1="1138.0" y1="334.0" x2="1154.0" y2="334.0" stroke="#1b1b1b" stroke-width="2.4" stroke-linecap="round"/>
<line x1="1142.5" y1="339.0" x2="1149.5" y2="339.0" stroke="#1b1b1b" stroke-width="2.4" stroke-linecap="round"/>
<rect x="1190.0" y="470.0" width="150.0" height="196.0" rx="12" fill="none" stroke="#555555" stroke-width="2.0" stroke-dasharray="6 6"/>
<text x="1326.0" y="652.0" font-family="Helvetica, Arial, sans-serif" font-size="22" text-anchor="end" font-weight="700" fill="#1b1b1b" letter-spacing="0">P2</text>
<line x1="1168.0" y1="500.0" x2="1190.0" y2="500.0" stroke="#1b1b1b" stroke-width="2.2" stroke-linecap="round"/>
<circle cx="1190.0" cy="500.0" r="3.0" fill="#1b1b1b"/>
<line x1="1168.0" y1="500.0" x2="1146.0" y2="500.0" stroke="#1b1b1b" stroke-width="2.2" stroke-linecap="round"/>
<polyline points="1146.0,500.0 1154.0,496.0 1154.0,504.0 1146.0,500.0" fill="none" stroke="#b3261e" stroke-width="1.8" stroke-linecap="round" stroke-linejoin="round"/>
<text x="1202.0" y="505.0" font-family="Helvetica, Arial, sans-serif" font-size="13" text-anchor="start" font-weight="600" fill="#b3261e" letter-spacing="0">+5V</text>
<line x1="1168.0" y1="534.0" x2="1190.0" y2="534.0" stroke="#1b1b1b" stroke-width="2.2" stroke-linecap="round"/>
<circle cx="1190.0" cy="534.0" r="3.0" fill="#1b1b1b"/>
<text x="1202.0" y="539.0" font-family="Helvetica, Arial, sans-serif" font-size="13" text-anchor="start" font-weight="600" fill="#1457b8" letter-spacing="0">CLK</text>
<line x1="1168.0" y1="568.0" x2="1190.0" y2="568.0" stroke="#1b1b1b" stroke-width="2.2" stroke-linecap="round"/>
<circle cx="1190.0" cy="568.0" r="3.0" fill="#1b1b1b"/>
<text x="1202.0" y="573.0" font-family="Helvetica, Arial, sans-serif" font-size="13" text-anchor="start" font-weight="600" fill="#1457b8" letter-spacing="0">LATCH</text>
<line x1="1168.0" y1="602.0" x2="1190.0" y2="602.0" stroke="#1b1b1b" stroke-width="2.2" stroke-linecap="round"/>
<circle cx="1190.0" cy="602.0" r="3.0" fill="#1b1b1b"/>
<text x="1202.0" y="607.0" font-family="Helvetica, Arial, sans-serif" font-size="13" text-anchor="start" font-weight="600" fill="#1457b8" letter-spacing="0">DATA</text>
<line x1="1168.0" y1="636.0" x2="1190.0" y2="636.0" stroke="#1b1b1b" stroke-width="2.2" stroke-linecap="round"/>
<circle cx="1190.0" cy="636.0" r="3.0" fill="#1b1b1b"/>
<text x="1202.0" y="641.0" font-family="Helvetica, Arial, sans-serif" font-size="13" text-anchor="start" font-weight="600" fill="#1b1b1b" letter-spacing="0">GND</text>
<line x1="1168.0" y1="636.0" x2="1146.0" y2="636.0" stroke="#1b1b1b" stroke-width="2.2" stroke-linecap="round"/>
<line x1="1146.0" y1="636.0" x2="1146.0" y2="648.0" stroke="#1b1b1b" stroke-width="2.2" stroke-linecap="round"/>
<line x1="1133.0" y1="648.0" x2="1159.0" y2="648.0" stroke="#1b1b1b" stroke-width="2.4" stroke-linecap="round"/>
<line x1="1138.0" y1="654.0" x2="1154.0" y2="654.0" stroke="#1b1b1b" stroke-width="2.4" stroke-linecap="round"/>
<line x1="1142.5" y1="659.0" x2="1149.5" y2="659.0" stroke="#1b1b1b" stroke-width="2.4" stroke-linecap="round"/>
<polyline points="1066.0,192.0 1088.0,192.0 1088.0,214.0 1168.0,214.0" fill="none" stroke="#1b1b1b" stroke-width="2.2" stroke-linecap="round" stroke-linejoin="round"/>
<polyline points="1066.0,261.0 1100.0,261.0 1100.0,248.0 1168.0,248.0" fill="none" stroke="#1b1b1b" stroke-width="2.2" stroke-linecap="round" stroke-linejoin="round"/>
<polyline points="1066.0,330.0 1112.0,330.0 1112.0,282.0 1168.0,282.0" fill="none" stroke="#1b1b1b" stroke-width="2.2" stroke-linecap="round" stroke-linejoin="round"/>
<polyline points="1066.0,236.0 1088.0,236.0 1088.0,534.0 1168.0,534.0" fill="none" stroke="#1b1b1b" stroke-width="2.2" stroke-linecap="round" stroke-linejoin="round"/>
<polyline points="1066.0,305.0 1100.0,305.0 1100.0,568.0 1168.0,568.0" fill="none" stroke="#1b1b1b" stroke-width="2.2" stroke-linecap="round" stroke-linejoin="round"/>
<polyline points="1066.0,374.0 1112.0,374.0 1112.0,602.0 1168.0,602.0" fill="none" stroke="#1b1b1b" stroke-width="2.2" stroke-linecap="round" stroke-linejoin="round"/>
<text x="40.0" y="560.0" font-family="Helvetica, Arial, sans-serif" font-size="16" text-anchor="start" font-weight="700" fill="#1b1b1b" letter-spacing="0.5">TURBO &amp; SLOW OSCILLATORS</text>
<text x="40.0" y="580.0" font-family="Helvetica, Arial, sans-serif" font-size="12.5" text-anchor="start" font-weight="400" fill="#555555" letter-spacing="0">Two-inverter CMOS astable (RCA ICAN-6267): Rs at the input, timing R between the gates, C at the output — one 74HC04 makes three.</text>
<polyline points="176.0,631.0 222.0,648.0 176.0,665.0 176.0,631.0" fill="none" stroke="#1b1b1b" stroke-width="2.2" stroke-linecap="round" stroke-linejoin="round"/>
<circle cx="227.0" cy="648.0" r="5" fill="none" stroke="#1b1b1b" stroke-width="2.2"/>
<line x1="150.0" y1="648.0" x2="176.0" y2="648.0" stroke="#1b1b1b" stroke-width="2.2" stroke-linecap="round"/>
<circle cx="150.0" cy="648.0" r="3.6" fill="#1b1b1b"/>
<line x1="232.0" y1="648.0" x2="256.0" y2="648.0" stroke="#1b1b1b" stroke-width="2.2" stroke-linecap="round"/>
<circle cx="256.0" cy="648.0" r="3.6" fill="#1b1b1b"/>
<line x1="256.0" y1="648.0" x2="276.0" y2="648.0" stroke="#1b1b1b" stroke-width="2.2" stroke-linecap="round"/>
<polyline points="276.0,631.0 322.0,648.0 276.0,665.0 276.0,631.0" fill="none" stroke="#1b1b1b" stroke-width="2.2" stroke-linecap="round" stroke-linejoin="round"/>
<circle cx="327.0" cy="648.0" r="5" fill="none" stroke="#1b1b1b" stroke-width="2.2"/>
<line x1="332.0" y1="648.0" x2="364.0" y2="648.0" stroke="#1b1b1b" stroke-width="2.2" stroke-linecap="round"/>
<circle cx="364.0" cy="648.0" r="3.6" fill="#1b1b1b"/>
<line x1="150.0" y1="708.0" x2="364.0" y2="708.0" stroke="#1b1b1b" stroke-width="2.2" stroke-linecap="round"/>
<polyline points="150.0,648.0 150.0,663.0 150.0,663.0 144.0,668.0 156.0,673.0 144.0,678.0 156.0,683.0 144.0,688.0 150.0,693.0 150.0,693.0 150.0,708.0" fill="none" stroke="#1b1b1b" stroke-width="2.2" stroke-linecap="round" stroke-linejoin="round"/>
<polyline points="256.0,648.0 256.0,661.0 256.0,661.0 249.0,666.7 263.0,672.3 249.0,678.0 263.0,683.7 249.0,689.3 256.0,695.0 256.0,695.0 256.0,708.0" fill="none" stroke="#1b1b1b" stroke-width="2.2" stroke-linecap="round" stroke-linejoin="round"/>
<line x1="236.0" y1="678.0" x2="251.0" y2="678.0" stroke="#1b1b1b" stroke-width="2.2" stroke-linecap="round"/>
<polyline points="246.0,674.0 251.0,678.0 246.0,682.0" fill="none" stroke="#1b1b1b" stroke-width="2.2" stroke-linecap="round" stroke-linejoin="round"/>
<line x1="364.0" y1="648.0" x2="364.0" y2="674.0" stroke="#1b1b1b" stroke-width="2.4" stroke-linecap="round"/>
<line x1="364.0" y1="682.0" x2="364.0" y2="708.0" stroke="#1b1b1b" stroke-width="2.4" stroke-linecap="round"/>
<line x1="350.0" y1="674.0" x2="378.0" y2="674.0" stroke="#1b1b1b" stroke-width="2.4" stroke-linecap="round"/>
<line x1="350.0" y1="682.0" x2="378.0" y2="682.0" stroke="#1b1b1b" stroke-width="2.4" stroke-linecap="round"/>
<text x="150.0" y="726.0" font-family="Helvetica, Arial, sans-serif" font-size="12.5" text-anchor="middle" font-weight="600" fill="#555555" letter-spacing="0">10K</text>
<text x="256.0" y="726.0" font-family="Helvetica, Arial, sans-serif" font-size="12.5" text-anchor="middle" font-weight="600" fill="#555555" letter-spacing="0">1M + 120K</text>
<text x="364.0" y="726.0" font-family="Helvetica, Arial, sans-serif" font-size="12.5" text-anchor="middle" font-weight="600" fill="#555555" letter-spacing="0">120nF</text>
<text x="254.0" y="606.0" font-family="Helvetica, Arial, sans-serif" font-size="13" text-anchor="middle" font-weight="700" fill="#555555" letter-spacing="0">74HC04</text>
<polyline points="364.0,648.0 392.0,648.0 392.0,633.0 430.0,633.0" fill="none" stroke="#1b1b1b" stroke-width="2.2" stroke-linecap="round" stroke-linejoin="round"/>
<circle cx="430.0" cy="633.0" r="3.2" fill="#1b1b1b"/>
<circle cx="430.0" cy="663.0" r="3.2" fill="#1b1b1b"/>
<line x1="430.0" y1="663.0" x2="430.0" y2="675.0" stroke="#1b1b1b" stroke-width="2.2" stroke-linecap="round"/>
<line x1="417.0" y1="675.0" x2="443.0" y2="675.0" stroke="#1b1b1b" stroke-width="2.4" stroke-linecap="round"/>
<line x1="422.0" y1="681.0" x2="438.0" y2="681.0" stroke="#1b1b1b" stroke-width="2.4" stroke-linecap="round"/>
<line x1="426.5" y1="686.0" x2="433.5" y2="686.0" stroke="#1b1b1b" stroke-width="2.4" stroke-linecap="round"/>
<circle cx="484.0" cy="648.0" r="3.6" fill="#1b1b1b"/>
<line x1="484.0" y1="648.0" x2="433.0" y2="637.0" stroke="#1b1b1b" stroke-width="2.2" stroke-linecap="round"/>
<text x="451.0" y="616.0" font-family="Helvetica, Arial, sans-serif" font-size="11.5" text-anchor="middle" font-weight="700" fill="#1b1b1b" letter-spacing="0.5">TURBO</text>
<line x1="484.0" y1="648.0" x2="504.0" y2="648.0" stroke="#1b1b1b" stroke-width="2.2" stroke-linecap="round"/>
<polyline points="504.0,637.0 538.0,637.0 548.0,648.0 538.0,659.0 504.0,659.0 504.0,637.0" fill="none" stroke="#1457b8" stroke-width="1.8" stroke-linecap="round" stroke-linejoin="round"/>
<text x="523.0" y="653.0" font-family="Helvetica, Arial, sans-serif" font-size="14" text-anchor="middle" font-weight="700" fill="#1457b8" letter-spacing="0">A·R</text>
<polyline points="176.0,753.0 222.0,770.0 176.0,787.0 176.0,753.0" fill="none" stroke="#1b1b1b" stroke-width="2.2" stroke-linecap="round" stroke-linejoin="round"/>
<circle cx="227.0" cy="770.0" r="5" fill="none" stroke="#1b1b1b" stroke-width="2.2"/>
<line x1="150.0" y1="770.0" x2="176.0" y2="770.0" stroke="#1b1b1b" stroke-width="2.2" stroke-linecap="round"/>
<circle cx="150.0" cy="770.0" r="3.6" fill="#1b1b1b"/>
<line x1="232.0" y1="770.0" x2="256.0" y2="770.0" stroke="#1b1b1b" stroke-width="2.2" stroke-linecap="round"/>
<circle cx="256.0" cy="770.0" r="3.6" fill="#1b1b1b"/>
<line x1="256.0" y1="770.0" x2="276.0" y2="770.0" stroke="#1b1b1b" stroke-width="2.2" stroke-linecap="round"/>
<polyline points="276.0,753.0 322.0,770.0 276.0,787.0 276.0,753.0" fill="none" stroke="#1b1b1b" stroke-width="2.2" stroke-linecap="round" stroke-linejoin="round"/>
<circle cx="327.0" cy="770.0" r="5" fill="none" stroke="#1b1b1b" stroke-width="2.2"/>
<line x1="332.0" y1="770.0" x2="364.0" y2="770.0" stroke="#1b1b1b" stroke-width="2.2" stroke-linecap="round"/>
<circle cx="364.0" cy="770.0" r="3.6" fill="#1b1b1b"/>
<line x1="150.0" y1="830.0" x2="364.0" y2="830.0" stroke="#1b1b1b" stroke-width="2.2" stroke-linecap="round"/>
<polyline points="150.0,770.0 150.0,785.0 150.0,785.0 144.0,790.0 156.0,795.0 144.0,800.0 156.0,805.0 144.0,810.0 150.0,815.0 150.0,815.0 150.0,830.0" fill="none" stroke="#1b1b1b" stroke-width="2.2" stroke-linecap="round" stroke-linejoin="round"/>
<polyline points="256.0,770.0 256.0,783.0 256.0,783.0 249.0,788.7 263.0,794.3 249.0,800.0 263.0,805.7 249.0,811.3 256.0,817.0 256.0,817.0 256.0,830.0" fill="none" stroke="#1b1b1b" stroke-width="2.2" stroke-linecap="round" stroke-linejoin="round"/>
<line x1="236.0" y1="800.0" x2="251.0" y2="800.0" stroke="#1b1b1b" stroke-width="2.2" stroke-linecap="round"/>
<polyline points="246.0,796.0 251.0,800.0 246.0,804.0" fill="none" stroke="#1b1b1b" stroke-width="2.2" stroke-linecap="round" stroke-linejoin="round"/>
<line x1="364.0" y1="770.0" x2="364.0" y2="796.0" stroke="#1b1b1b" stroke-width="2.4" stroke-linecap="round"/>
<line x1="364.0" y1="804.0" x2="364.0" y2="830.0" stroke="#1b1b1b" stroke-width="2.4" stroke-linecap="round"/>
<line x1="350.0" y1="796.0" x2="378.0" y2="796.0" stroke="#1b1b1b" stroke-width="2.4" stroke-linecap="round"/>
<line x1="350.0" y1="804.0" x2="378.0" y2="804.0" stroke="#1b1b1b" stroke-width="2.4" stroke-linecap="round"/>
<text x="150.0" y="848.0" font-family="Helvetica, Arial, sans-serif" font-size="12.5" text-anchor="middle" font-weight="600" fill="#555555" letter-spacing="0">10K</text>
<text x="256.0" y="848.0" font-family="Helvetica, Arial, sans-serif" font-size="12.5" text-anchor="middle" font-weight="600" fill="#555555" letter-spacing="0">1M + 120K</text>
<text x="364.0" y="848.0" font-family="Helvetica, Arial, sans-serif" font-size="12.5" text-anchor="middle" font-weight="600" fill="#555555" letter-spacing="0">120nF</text>
<polyline points="364.0,770.0 392.0,770.0 392.0,755.0 430.0,755.0" fill="none" stroke="#1b1b1b" stroke-width="2.2" stroke-linecap="round" stroke-linejoin="round"/>
<circle cx="430.0" cy="755.0" r="3.2" fill="#1b1b1b"/>
<circle cx="430.0" cy="785.0" r="3.2" fill="#1b1b1b"/>
<line x1="430.0" y1="785.0" x2="430.0" y2="797.0" stroke="#1b1b1b" stroke-width="2.2" stroke-linecap="round"/>
<line x1="417.0" y1="797.0" x2="443.0" y2="797.0" stroke="#1b1b1b" stroke-width="2.4" stroke-linecap="round"/>
<line x1="422.0" y1="803.0" x2="438.0" y2="803.0" stroke="#1b1b1b" stroke-width="2.4" stroke-linecap="round"/>
<line x1="426.5" y1="808.0" x2="433.5" y2="808.0" stroke="#1b1b1b" stroke-width="2.4" stroke-linecap="round"/>
<circle cx="484.0" cy="770.0" r="3.6" fill="#1b1b1b"/>
<line x1="484.0" y1="770.0" x2="433.0" y2="759.0" stroke="#1b1b1b" stroke-width="2.2" stroke-linecap="round"/>
<text x="451.0" y="738.0" font-family="Helvetica, Arial, sans-serif" font-size="11.5" text-anchor="middle" font-weight="700" fill="#1b1b1b" letter-spacing="0.5">TURBO</text>
<line x1="484.0" y1="770.0" x2="504.0" y2="770.0" stroke="#1b1b1b" stroke-width="2.2" stroke-linecap="round"/>
<polyline points="504.0,759.0 538.0,759.0 548.0,770.0 538.0,781.0 504.0,781.0 504.0,759.0" fill="none" stroke="#1457b8" stroke-width="1.8" stroke-linecap="round" stroke-linejoin="round"/>
<text x="523.0" y="775.0" font-family="Helvetica, Arial, sans-serif" font-size="14" text-anchor="middle" font-weight="700" fill="#1457b8" letter-spacing="0">B·R</text>
<polyline points="176.0,875.0 222.0,892.0 176.0,909.0 176.0,875.0" fill="none" stroke="#1b1b1b" stroke-width="2.2" stroke-linecap="round" stroke-linejoin="round"/>
<circle cx="227.0" cy="892.0" r="5" fill="none" stroke="#1b1b1b" stroke-width="2.2"/>
<line x1="150.0" y1="892.0" x2="176.0" y2="892.0" stroke="#1b1b1b" stroke-width="2.2" stroke-linecap="round"/>
<circle cx="150.0" cy="892.0" r="3.6" fill="#1b1b1b"/>
<line x1="232.0" y1="892.0" x2="256.0" y2="892.0" stroke="#1b1b1b" stroke-width="2.2" stroke-linecap="round"/>
<circle cx="256.0" cy="892.0" r="3.6" fill="#1b1b1b"/>
<line x1="256.0" y1="892.0" x2="276.0" y2="892.0" stroke="#1b1b1b" stroke-width="2.2" stroke-linecap="round"/>
<polyline points="276.0,875.0 322.0,892.0 276.0,909.0 276.0,875.0" fill="none" stroke="#1b1b1b" stroke-width="2.2" stroke-linecap="round" stroke-linejoin="round"/>
<circle cx="327.0" cy="892.0" r="5" fill="none" stroke="#1b1b1b" stroke-width="2.2"/>
<line x1="332.0" y1="892.0" x2="364.0" y2="892.0" stroke="#1b1b1b" stroke-width="2.2" stroke-linecap="round"/>
<circle cx="364.0" cy="892.0" r="3.6" fill="#1b1b1b"/>
<line x1="150.0" y1="952.0" x2="364.0" y2="952.0" stroke="#1b1b1b" stroke-width="2.2" stroke-linecap="round"/>
<polyline points="150.0,892.0 150.0,907.0 150.0,907.0 144.0,912.0 156.0,917.0 144.0,922.0 156.0,927.0 144.0,932.0 150.0,937.0 150.0,937.0 150.0,952.0" fill="none" stroke="#1b1b1b" stroke-width="2.2" stroke-linecap="round" stroke-linejoin="round"/>
<polyline points="256.0,892.0 256.0,905.0 256.0,905.0 249.0,910.7 263.0,916.3 249.0,922.0 263.0,927.7 249.0,933.3 256.0,939.0 256.0,939.0 256.0,952.0" fill="none" stroke="#1b1b1b" stroke-width="2.2" stroke-linecap="round" stroke-linejoin="round"/>
<line x1="236.0" y1="922.0" x2="251.0" y2="922.0" stroke="#1b1b1b" stroke-width="2.2" stroke-linecap="round"/>
<polyline points="246.0,918.0 251.0,922.0 246.0,926.0" fill="none" stroke="#1b1b1b" stroke-width="2.2" stroke-linecap="round" stroke-linejoin="round"/>
<line x1="364.0" y1="892.0" x2="364.0" y2="918.0" stroke="#1b1b1b" stroke-width="2.4" stroke-linecap="round"/>
<line x1="364.0" y1="926.0" x2="364.0" y2="952.0" stroke="#1b1b1b" stroke-width="2.4" stroke-linecap="round"/>
<line x1="350.0" y1="918.0" x2="378.0" y2="918.0" stroke="#1b1b1b" stroke-width="2.4" stroke-linecap="round"/>
<line x1="350.0" y1="926.0" x2="378.0" y2="926.0" stroke="#1b1b1b" stroke-width="2.4" stroke-linecap="round"/>
<text x="150.0" y="970.0" font-family="Helvetica, Arial, sans-serif" font-size="12.5" text-anchor="middle" font-weight="600" fill="#555555" letter-spacing="0">10K</text>
<text x="256.0" y="970.0" font-family="Helvetica, Arial, sans-serif" font-size="12.5" text-anchor="middle" font-weight="600" fill="#555555" letter-spacing="0">160K</text>
<text x="364.0" y="970.0" font-family="Helvetica, Arial, sans-serif" font-size="12.5" text-anchor="middle" font-weight="600" fill="#555555" letter-spacing="0">120nF</text>
<line x1="364.0" y1="892.0" x2="394.0" y2="892.0" stroke="#1b1b1b" stroke-width="2.2" stroke-linecap="round"/>
<circle cx="394.0" cy="892.0" r="3.4" fill="#1b1b1b"/>
<circle cx="434.0" cy="892.0" r="3.4" fill="#1b1b1b"/>
<line x1="394.0" y1="892.0" x2="432.0" y2="875.0" stroke="#1b1b1b" stroke-width="2.2" stroke-linecap="round"/>
<text x="414.0" y="866.0" font-family="Helvetica, Arial, sans-serif" font-size="11.5" text-anchor="middle" font-weight="700" fill="#1b1b1b" letter-spacing="0.5">SLOW</text>
<line x1="434.0" y1="892.0" x2="452.0" y2="892.0" stroke="#1b1b1b" stroke-width="2.2" stroke-linecap="round"/>
<polyline points="452.0,881.0 502.0,881.0 512.0,892.0 502.0,903.0 452.0,903.0 452.0,881.0" fill="none" stroke="#1457b8" stroke-width="1.8" stroke-linecap="round" stroke-linejoin="round"/>
<text x="479.0" y="897.0" font-family="Helvetica, Arial, sans-serif" font-size="14" text-anchor="middle" font-weight="700" fill="#1457b8" letter-spacing="0">START</text>
<rect x="40.0" y="992.0" width="520.0" height="86.0" rx="8" fill="#ffffff" stroke="#cdcdc7" stroke-width="1.4"/>
<text x="56.0" y="1014.0" font-family="Helvetica, Arial, sans-serif" font-size="13" text-anchor="start" font-weight="600" fill="#1b1b1b" letter-spacing="0">TURBO (A, B): the switch swaps the button's return from ground to the</text>
<text x="56.0" y="1034.0" font-family="Helvetica, Arial, sans-serif" font-size="13" text-anchor="start" font-weight="400" fill="#1b1b1b" letter-spacing="0">oscillator, so auto-fire happens only while the button is held + turbo on.</text>
<text x="56.0" y="1054.0" font-family="Helvetica, Arial, sans-serif" font-size="13" text-anchor="start" font-weight="400" fill="#1b1b1b" letter-spacing="0">SLOW: drives START continuously when on — no Start press needed.</text>
</svg>
