%TF.GenerationSoftware,KiCad,Pcbnew,10.0.4-10.0.4~ubuntu24.04.1*%
%TF.CreationDate,2026-07-30T18:24:09-05:00*%
%TF.ProjectId,bt-nes-advantage-pcb,62742d6e-6573-42d6-9164-76616e746167,rev?*%
%TF.SameCoordinates,Original*%
%TF.FileFunction,Soldermask,Top*%
%TF.FilePolarity,Negative*%
%FSLAX46Y46*%
G04 Gerber Fmt 4.6, Leading zero omitted, Abs format (unit mm)*
G04 Created by KiCad (PCBNEW 10.0.4-10.0.4~ubuntu24.04.1) date 2026-07-30 18:24:09*
%MOMM*%
%LPD*%
G01*
G04 APERTURE LIST*
G04 APERTURE END LIST*
G36*
X190249797Y-96354932D02*
G01*
X190294650Y-96361467D01*
X190302882Y-96365491D01*
X190320671Y-96369030D01*
X190349440Y-96388253D01*
X190369263Y-96397944D01*
X190379973Y-96408654D01*
X190401777Y-96423223D01*
X190416345Y-96445026D01*
X190427055Y-96455736D01*
X190436744Y-96475556D01*
X190455970Y-96504329D01*
X190459508Y-96522119D01*
X190463532Y-96530349D01*
X190470064Y-96575187D01*
X190475000Y-96600000D01*
X190475000Y-97800000D01*
X190470063Y-97824816D01*
X190463532Y-97869650D01*
X190459509Y-97877878D01*
X190455970Y-97895671D01*
X190436742Y-97924446D01*
X190427055Y-97944263D01*
X190416347Y-97954970D01*
X190401777Y-97976777D01*
X190379970Y-97991347D01*
X190369263Y-98002055D01*
X190349446Y-98011742D01*
X190320671Y-98030970D01*
X190302878Y-98034509D01*
X190294650Y-98038532D01*
X190249814Y-98045064D01*
X190225000Y-98050000D01*
X188775000Y-98050000D01*
X188750186Y-98045064D01*
X188705349Y-98038532D01*
X188697119Y-98034508D01*
X188679329Y-98030970D01*
X188650556Y-98011744D01*
X188630736Y-98002055D01*
X188620026Y-97991345D01*
X188598223Y-97976777D01*
X188583654Y-97954973D01*
X188572944Y-97944263D01*
X188563253Y-97924440D01*
X188544030Y-97895671D01*
X188540491Y-97877882D01*
X188536467Y-97869650D01*
X188529932Y-97824796D01*
X188525000Y-97800000D01*
X188525000Y-96600000D01*
X188529931Y-96575205D01*
X188536467Y-96530349D01*
X188540491Y-96522115D01*
X188544030Y-96504329D01*
X188563251Y-96475561D01*
X188572944Y-96455736D01*
X188583656Y-96445023D01*
X188598223Y-96423223D01*
X188620023Y-96408656D01*
X188630736Y-96397944D01*
X188650561Y-96388251D01*
X188679329Y-96369030D01*
X188697115Y-96365491D01*
X188705349Y-96361467D01*
X188750206Y-96354931D01*
X188775000Y-96350000D01*
X190225000Y-96350000D01*
X190249797Y-96354932D01*
G37*
G36*
X189708315Y-93854093D02*
G01*
X189871742Y-93886601D01*
X190025687Y-93950367D01*
X190164234Y-94042941D01*
X190282059Y-94160766D01*
X190374633Y-94299313D01*
X190438399Y-94453258D01*
X190470907Y-94616685D01*
X190470907Y-94783315D01*
X190438399Y-94946742D01*
X190374633Y-95100687D01*
X190282059Y-95239234D01*
X190164234Y-95357059D01*
X190025687Y-95449633D01*
X189871742Y-95513399D01*
X189708315Y-95545907D01*
X189625000Y-95550000D01*
X189621940Y-95550000D01*
X189378060Y-95550000D01*
X189375000Y-95550000D01*
X189291685Y-95545907D01*
X189128258Y-95513399D01*
X188974313Y-95449633D01*
X188835766Y-95357059D01*
X188717941Y-95239234D01*
X188625367Y-95100687D01*
X188561601Y-94946742D01*
X188529093Y-94783315D01*
X188529093Y-94616685D01*
X188561601Y-94453258D01*
X188625367Y-94299313D01*
X188717941Y-94160766D01*
X188835766Y-94042941D01*
X188974313Y-93950367D01*
X189128258Y-93886601D01*
X189291685Y-93854093D01*
X189375000Y-93850000D01*
X189625000Y-93850000D01*
X189708315Y-93854093D01*
G37*
G36*
X128184148Y-93000599D02*
G01*
X128230717Y-93002887D01*
X128236451Y-93004027D01*
X128253316Y-93005133D01*
X128285897Y-93013863D01*
X128348994Y-93026414D01*
X128378773Y-93038749D01*
X128404610Y-93045672D01*
X128427774Y-93059046D01*
X128457551Y-93071380D01*
X128511034Y-93107116D01*
X128540257Y-93123988D01*
X128548255Y-93131986D01*
X128555250Y-93136660D01*
X128638339Y-93219749D01*
X128643012Y-93226743D01*
X128651012Y-93234743D01*
X128667885Y-93263968D01*
X128703619Y-93317448D01*
X128715951Y-93347221D01*
X128729328Y-93370390D01*
X128736251Y-93396230D01*
X128748585Y-93426005D01*
X128761134Y-93489094D01*
X128769867Y-93521684D01*
X128769867Y-93532993D01*
X128771509Y-93541248D01*
X128771509Y-93658751D01*
X128769867Y-93667005D01*
X128769867Y-93678316D01*
X128761133Y-93710908D01*
X128748585Y-93773994D01*
X128736252Y-93803766D01*
X128729328Y-93829610D01*
X128715950Y-93852780D01*
X128703619Y-93882551D01*
X128667889Y-93936023D01*
X128651012Y-93965257D01*
X128643010Y-93973258D01*
X128638339Y-93980250D01*
X128555250Y-94063339D01*
X128548258Y-94068010D01*
X128540257Y-94076012D01*
X128511023Y-94092889D01*
X128457551Y-94128619D01*
X128427780Y-94140950D01*
X128404610Y-94154328D01*
X128378766Y-94161252D01*
X128348994Y-94173585D01*
X128285912Y-94186132D01*
X128253316Y-94194867D01*
X128236443Y-94195972D01*
X128230717Y-94197112D01*
X128184161Y-94199399D01*
X128175000Y-94200000D01*
X128171941Y-94200000D01*
X127628059Y-94200000D01*
X127625000Y-94200000D01*
X127615839Y-94199399D01*
X127569282Y-94197112D01*
X127563554Y-94195972D01*
X127546684Y-94194867D01*
X127514090Y-94186133D01*
X127451005Y-94173585D01*
X127421230Y-94161251D01*
X127395390Y-94154328D01*
X127372221Y-94140951D01*
X127342448Y-94128619D01*
X127288968Y-94092885D01*
X127259743Y-94076012D01*
X127251743Y-94068012D01*
X127244749Y-94063339D01*
X127161660Y-93980250D01*
X127156986Y-93973255D01*
X127148988Y-93965257D01*
X127132116Y-93936034D01*
X127096380Y-93882551D01*
X127084046Y-93852774D01*
X127070672Y-93829610D01*
X127063749Y-93803773D01*
X127051414Y-93773994D01*
X127038864Y-93710901D01*
X127030133Y-93678316D01*
X127030133Y-93667005D01*
X127028491Y-93658751D01*
X127028491Y-93541248D01*
X127030133Y-93532993D01*
X127030133Y-93521684D01*
X127038863Y-93489100D01*
X127051414Y-93426005D01*
X127063749Y-93396223D01*
X127070672Y-93370390D01*
X127084044Y-93347227D01*
X127096380Y-93317448D01*
X127132120Y-93263957D01*
X127148988Y-93234743D01*
X127156984Y-93226746D01*
X127161660Y-93219749D01*
X127244749Y-93136660D01*
X127251746Y-93131984D01*
X127259743Y-93123988D01*
X127288957Y-93107120D01*
X127342448Y-93071380D01*
X127372227Y-93059044D01*
X127395390Y-93045672D01*
X127421223Y-93038749D01*
X127451005Y-93026414D01*
X127514104Y-93013862D01*
X127546684Y-93005133D01*
X127563547Y-93004027D01*
X127569282Y-93002887D01*
X127615851Y-93000599D01*
X127625000Y-93000000D01*
X128175000Y-93000000D01*
X128184148Y-93000599D01*
G37*
G36*
X189708315Y-91354093D02*
G01*
X189871742Y-91386601D01*
X190025687Y-91450367D01*
X190164234Y-91542941D01*
X190282059Y-91660766D01*
X190374633Y-91799313D01*
X190438399Y-91953258D01*
X190470907Y-92116685D01*
X190470907Y-92283315D01*
X190438399Y-92446742D01*
X190374633Y-92600687D01*
X190282059Y-92739234D01*
X190164234Y-92857059D01*
X190025687Y-92949633D01*
X189871742Y-93013399D01*
X189708315Y-93045907D01*
X189625000Y-93050000D01*
X189621940Y-93050000D01*
X189378060Y-93050000D01*
X189375000Y-93050000D01*
X189291685Y-93045907D01*
X189128258Y-93013399D01*
X188974313Y-92949633D01*
X188835766Y-92857059D01*
X188717941Y-92739234D01*
X188625367Y-92600687D01*
X188561601Y-92446742D01*
X188529093Y-92283315D01*
X188529093Y-92116685D01*
X188561601Y-91953258D01*
X188625367Y-91799313D01*
X188717941Y-91660766D01*
X188835766Y-91542941D01*
X188974313Y-91450367D01*
X189128258Y-91386601D01*
X189291685Y-91354093D01*
X189375000Y-91350000D01*
X189625000Y-91350000D01*
X189708315Y-91354093D01*
G37*
G36*
X128549797Y-91004932D02*
G01*
X128594650Y-91011467D01*
X128602882Y-91015491D01*
X128620671Y-91019030D01*
X128649440Y-91038253D01*
X128669263Y-91047944D01*
X128679973Y-91058654D01*
X128701777Y-91073223D01*
X128716345Y-91095026D01*
X128727055Y-91105736D01*
X128736744Y-91125556D01*
X128755970Y-91154329D01*
X128759508Y-91172119D01*
X128763532Y-91180349D01*
X128770064Y-91225187D01*
X128775000Y-91250000D01*
X128775000Y-91950000D01*
X128770063Y-91974816D01*
X128763532Y-92019650D01*
X128759509Y-92027878D01*
X128755970Y-92045671D01*
X128736742Y-92074446D01*
X128727055Y-92094263D01*
X128716347Y-92104970D01*
X128701777Y-92126777D01*
X128679970Y-92141347D01*
X128669263Y-92152055D01*
X128649446Y-92161742D01*
X128620671Y-92180970D01*
X128602878Y-92184509D01*
X128594650Y-92188532D01*
X128549814Y-92195064D01*
X128525000Y-92200000D01*
X127275000Y-92200000D01*
X127250186Y-92195064D01*
X127205349Y-92188532D01*
X127197119Y-92184508D01*
X127179329Y-92180970D01*
X127150556Y-92161744D01*
X127130736Y-92152055D01*
X127120026Y-92141345D01*
X127098223Y-92126777D01*
X127083654Y-92104973D01*
X127072944Y-92094263D01*
X127063253Y-92074440D01*
X127044030Y-92045671D01*
X127040491Y-92027882D01*
X127036467Y-92019650D01*
X127029932Y-91974796D01*
X127025000Y-91950000D01*
X127025000Y-91250000D01*
X127029931Y-91225205D01*
X127036467Y-91180349D01*
X127040491Y-91172115D01*
X127044030Y-91154329D01*
X127063251Y-91125561D01*
X127072944Y-91105736D01*
X127083656Y-91095023D01*
X127098223Y-91073223D01*
X127120023Y-91058656D01*
X127130736Y-91047944D01*
X127150561Y-91038251D01*
X127179329Y-91019030D01*
X127197115Y-91015491D01*
X127205349Y-91011467D01*
X127250206Y-91004931D01*
X127275000Y-91000000D01*
X128525000Y-91000000D01*
X128549797Y-91004932D01*
G37*
G36*
X139135000Y-90750000D02*
G01*
X138235000Y-90750000D01*
X138235000Y-89250000D01*
X139135000Y-89250000D01*
X139135000Y-90750000D01*
G37*
G36*
X140405000Y-90750000D02*
G01*
X139505000Y-90750000D01*
X139505000Y-89250000D01*
X140405000Y-89250000D01*
X140405000Y-90750000D01*
G37*
G36*
X141675000Y-90750000D02*
G01*
X140775000Y-90750000D01*
X140775000Y-89250000D01*
X141675000Y-89250000D01*
X141675000Y-90750000D01*
G37*
G36*
X142945000Y-90750000D02*
G01*
X142045000Y-90750000D01*
X142045000Y-89250000D01*
X142945000Y-89250000D01*
X142945000Y-90750000D01*
G37*
G36*
X144215000Y-90750000D02*
G01*
X143315000Y-90750000D01*
X143315000Y-89250000D01*
X144215000Y-89250000D01*
X144215000Y-90750000D01*
G37*
G36*
X145485000Y-90750000D02*
G01*
X144585000Y-90750000D01*
X144585000Y-89250000D01*
X145485000Y-89250000D01*
X145485000Y-90750000D01*
G37*
G36*
X146755000Y-90750000D02*
G01*
X145855000Y-90750000D01*
X145855000Y-89250000D01*
X146755000Y-89250000D01*
X146755000Y-90750000D01*
G37*
G36*
X148025000Y-90750000D02*
G01*
X147125000Y-90750000D01*
X147125000Y-89250000D01*
X148025000Y-89250000D01*
X148025000Y-90750000D01*
G37*
G36*
X149295000Y-90750000D02*
G01*
X148395000Y-90750000D01*
X148395000Y-89250000D01*
X149295000Y-89250000D01*
X149295000Y-90750000D01*
G37*
G36*
X150565000Y-90750000D02*
G01*
X149665000Y-90750000D01*
X149665000Y-89250000D01*
X150565000Y-89250000D01*
X150565000Y-90750000D01*
G37*
G36*
X189708315Y-88854093D02*
G01*
X189871742Y-88886601D01*
X190025687Y-88950367D01*
X190164234Y-89042941D01*
X190282059Y-89160766D01*
X190374633Y-89299313D01*
X190438399Y-89453258D01*
X190470907Y-89616685D01*
X190470907Y-89783315D01*
X190438399Y-89946742D01*
X190374633Y-90100687D01*
X190282059Y-90239234D01*
X190164234Y-90357059D01*
X190025687Y-90449633D01*
X189871742Y-90513399D01*
X189708315Y-90545907D01*
X189625000Y-90550000D01*
X189621940Y-90550000D01*
X189378060Y-90550000D01*
X189375000Y-90550000D01*
X189291685Y-90545907D01*
X189128258Y-90513399D01*
X188974313Y-90449633D01*
X188835766Y-90357059D01*
X188717941Y-90239234D01*
X188625367Y-90100687D01*
X188561601Y-89946742D01*
X188529093Y-89783315D01*
X188529093Y-89616685D01*
X188561601Y-89453258D01*
X188625367Y-89299313D01*
X188717941Y-89160766D01*
X188835766Y-89042941D01*
X188974313Y-88950367D01*
X189128258Y-88886601D01*
X189291685Y-88854093D01*
X189375000Y-88850000D01*
X189625000Y-88850000D01*
X189708315Y-88854093D01*
G37*
G36*
X156562291Y-88329931D02*
G01*
X156603583Y-88335947D01*
X156611163Y-88339652D01*
X156628387Y-88343079D01*
X156656243Y-88361691D01*
X156674500Y-88370617D01*
X156684364Y-88380481D01*
X156705438Y-88394562D01*
X156719518Y-88415635D01*
X156729382Y-88425499D01*
X156738306Y-88443754D01*
X156756921Y-88471613D01*
X156760347Y-88488838D01*
X156764052Y-88496416D01*
X156770065Y-88537695D01*
X156775000Y-88562500D01*
X156775000Y-89037500D01*
X156770064Y-89062310D01*
X156764052Y-89103583D01*
X156760347Y-89111159D01*
X156756921Y-89128387D01*
X156738304Y-89156248D01*
X156729382Y-89174500D01*
X156719520Y-89184361D01*
X156705438Y-89205438D01*
X156684361Y-89219520D01*
X156674500Y-89229382D01*
X156656248Y-89238304D01*
X156628387Y-89256921D01*
X156611159Y-89260347D01*
X156603583Y-89264052D01*
X156562307Y-89270065D01*
X156537500Y-89275000D01*
X156037500Y-89275000D01*
X156012692Y-89270065D01*
X155971416Y-89264052D01*
X155963838Y-89260347D01*
X155946613Y-89256921D01*
X155918754Y-89238306D01*
X155900499Y-89229382D01*
X155890635Y-89219518D01*
X155869562Y-89205438D01*
X155855481Y-89184364D01*
X155845617Y-89174500D01*
X155836691Y-89156243D01*
X155818079Y-89128387D01*
X155814652Y-89111163D01*
X155810947Y-89103583D01*
X155804930Y-89062288D01*
X155800000Y-89037500D01*
X155800000Y-88562500D01*
X155804931Y-88537710D01*
X155810947Y-88496416D01*
X155814653Y-88488834D01*
X155818079Y-88471613D01*
X155836689Y-88443759D01*
X155845617Y-88425499D01*
X155855483Y-88415632D01*
X155869562Y-88394562D01*
X155890632Y-88380483D01*
X155900499Y-88370617D01*
X155918759Y-88361689D01*
X155946613Y-88343079D01*
X155963834Y-88339653D01*
X155971416Y-88335947D01*
X156012713Y-88329930D01*
X156037500Y-88325000D01*
X156537500Y-88325000D01*
X156562291Y-88329931D01*
G37*
G36*
X158387291Y-88329931D02*
G01*
X158428583Y-88335947D01*
X158436163Y-88339652D01*
X158453387Y-88343079D01*
X158481243Y-88361691D01*
X158499500Y-88370617D01*
X158509364Y-88380481D01*
X158530438Y-88394562D01*
X158544518Y-88415635D01*
X158554382Y-88425499D01*
X158563306Y-88443754D01*
X158581921Y-88471613D01*
X158585347Y-88488838D01*
X158589052Y-88496416D01*
X158595065Y-88537695D01*
X158600000Y-88562500D01*
X158600000Y-89037500D01*
X158595064Y-89062310D01*
X158589052Y-89103583D01*
X158585347Y-89111159D01*
X158581921Y-89128387D01*
X158563304Y-89156248D01*
X158554382Y-89174500D01*
X158544520Y-89184361D01*
X158530438Y-89205438D01*
X158509361Y-89219520D01*
X158499500Y-89229382D01*
X158481248Y-89238304D01*
X158453387Y-89256921D01*
X158436159Y-89260347D01*
X158428583Y-89264052D01*
X158387307Y-89270065D01*
X158362500Y-89275000D01*
X157862500Y-89275000D01*
X157837692Y-89270065D01*
X157796416Y-89264052D01*
X157788838Y-89260347D01*
X157771613Y-89256921D01*
X157743754Y-89238306D01*
X157725499Y-89229382D01*
X157715635Y-89219518D01*
X157694562Y-89205438D01*
X157680481Y-89184364D01*
X157670617Y-89174500D01*
X157661691Y-89156243D01*
X157643079Y-89128387D01*
X157639652Y-89111163D01*
X157635947Y-89103583D01*
X157629930Y-89062288D01*
X157625000Y-89037500D01*
X157625000Y-88562500D01*
X157629931Y-88537710D01*
X157635947Y-88496416D01*
X157639653Y-88488834D01*
X157643079Y-88471613D01*
X157661689Y-88443759D01*
X157670617Y-88425499D01*
X157680483Y-88415632D01*
X157694562Y-88394562D01*
X157715632Y-88380483D01*
X157725499Y-88370617D01*
X157743759Y-88361689D01*
X157771613Y-88343079D01*
X157788834Y-88339653D01*
X157796416Y-88335947D01*
X157837713Y-88329930D01*
X157862500Y-88325000D01*
X158362500Y-88325000D01*
X158387291Y-88329931D01*
G37*
G36*
X136400000Y-89200000D02*
G01*
X134900000Y-89200000D01*
X134900000Y-88300000D01*
X136400000Y-88300000D01*
X136400000Y-89200000D01*
G37*
G36*
X153900000Y-89200000D02*
G01*
X152400000Y-89200000D01*
X152400000Y-88300000D01*
X153900000Y-88300000D01*
X153900000Y-89200000D01*
G37*
G36*
X189708315Y-86354093D02*
G01*
X189871742Y-86386601D01*
X190025687Y-86450367D01*
X190164234Y-86542941D01*
X190282059Y-86660766D01*
X190374633Y-86799313D01*
X190438399Y-86953258D01*
X190470907Y-87116685D01*
X190470907Y-87283315D01*
X190438399Y-87446742D01*
X190374633Y-87600687D01*
X190282059Y-87739234D01*
X190164234Y-87857059D01*
X190025687Y-87949633D01*
X189871742Y-88013399D01*
X189708315Y-88045907D01*
X189625000Y-88050000D01*
X189621940Y-88050000D01*
X189378060Y-88050000D01*
X189375000Y-88050000D01*
X189291685Y-88045907D01*
X189128258Y-88013399D01*
X188974313Y-87949633D01*
X188835766Y-87857059D01*
X188717941Y-87739234D01*
X188625367Y-87600687D01*
X188561601Y-87446742D01*
X188529093Y-87283315D01*
X188529093Y-87116685D01*
X188561601Y-86953258D01*
X188625367Y-86799313D01*
X188717941Y-86660766D01*
X188835766Y-86542941D01*
X188974313Y-86450367D01*
X189128258Y-86386601D01*
X189291685Y-86354093D01*
X189375000Y-86350000D01*
X189625000Y-86350000D01*
X189708315Y-86354093D01*
G37*
G36*
X136400000Y-87930000D02*
G01*
X134900000Y-87930000D01*
X134900000Y-87030000D01*
X136400000Y-87030000D01*
X136400000Y-87930000D01*
G37*
G36*
X153900000Y-87930000D02*
G01*
X152400000Y-87930000D01*
X152400000Y-87030000D01*
X153900000Y-87030000D01*
X153900000Y-87930000D01*
G37*
G36*
X136400000Y-86660000D02*
G01*
X134900000Y-86660000D01*
X134900000Y-85760000D01*
X136400000Y-85760000D01*
X136400000Y-86660000D01*
G37*
G36*
X153900000Y-86660000D02*
G01*
X152400000Y-86660000D01*
X152400000Y-85760000D01*
X153900000Y-85760000D01*
X153900000Y-86660000D01*
G37*
G36*
X133682403Y-85861418D02*
G01*
X133731066Y-85893934D01*
X133763582Y-85942597D01*
X133775000Y-86000000D01*
X133775000Y-86300000D01*
X133763582Y-86357403D01*
X133731066Y-86406066D01*
X133682403Y-86438582D01*
X133625000Y-86450000D01*
X132450000Y-86450000D01*
X132392597Y-86438582D01*
X132343934Y-86406066D01*
X132311418Y-86357403D01*
X132300000Y-86300000D01*
X132300000Y-86000000D01*
X132311418Y-85942597D01*
X132343934Y-85893934D01*
X132392597Y-85861418D01*
X132450000Y-85850000D01*
X133625000Y-85850000D01*
X133682403Y-85861418D01*
G37*
G36*
X124577205Y-83625359D02*
G01*
X124754417Y-83682939D01*
X124920441Y-83767532D01*
X125071187Y-83877056D01*
X125202944Y-84008813D01*
X125312468Y-84159559D01*
X125397061Y-84325583D01*
X125454641Y-84502795D01*
X125483789Y-84686834D01*
X125483789Y-84873166D01*
X125454641Y-85057205D01*
X125397061Y-85234417D01*
X125312468Y-85400441D01*
X125202944Y-85551187D01*
X125071187Y-85682944D01*
X124920441Y-85792468D01*
X124754417Y-85877061D01*
X124577205Y-85934641D01*
X124393166Y-85963789D01*
X124206834Y-85963789D01*
X124022795Y-85934641D01*
X123845583Y-85877061D01*
X123679559Y-85792468D01*
X123528813Y-85682944D01*
X123397056Y-85551187D01*
X123287532Y-85400441D01*
X123202939Y-85234417D01*
X123145359Y-85057205D01*
X123116211Y-84873166D01*
X123116211Y-84686834D01*
X123145359Y-84502795D01*
X123202939Y-84325583D01*
X123287532Y-84159559D01*
X123397056Y-84008813D01*
X123528813Y-83877056D01*
X123679559Y-83767532D01*
X123845583Y-83682939D01*
X124022795Y-83625359D01*
X124206834Y-83596211D01*
X124393166Y-83596211D01*
X124577205Y-83625359D01*
G37*
G36*
X127752205Y-83625359D02*
G01*
X127929417Y-83682939D01*
X128095441Y-83767532D01*
X128246187Y-83877056D01*
X128377944Y-84008813D01*
X128487468Y-84159559D01*
X128572061Y-84325583D01*
X128629641Y-84502795D01*
X128658789Y-84686834D01*
X128658789Y-84873166D01*
X128629641Y-85057205D01*
X128572061Y-85234417D01*
X128487468Y-85400441D01*
X128377944Y-85551187D01*
X128246187Y-85682944D01*
X128095441Y-85792468D01*
X127929417Y-85877061D01*
X127752205Y-85934641D01*
X127568166Y-85963789D01*
X127381834Y-85963789D01*
X127197795Y-85934641D01*
X127020583Y-85877061D01*
X126854559Y-85792468D01*
X126703813Y-85682944D01*
X126572056Y-85551187D01*
X126462532Y-85400441D01*
X126377939Y-85234417D01*
X126320359Y-85057205D01*
X126291211Y-84873166D01*
X126291211Y-84686834D01*
X126320359Y-84502795D01*
X126377939Y-84325583D01*
X126462532Y-84159559D01*
X126572056Y-84008813D01*
X126703813Y-83877056D01*
X126854559Y-83767532D01*
X127020583Y-83682939D01*
X127197795Y-83625359D01*
X127381834Y-83596211D01*
X127568166Y-83596211D01*
X127752205Y-83625359D01*
G37*
G36*
X189708315Y-83854093D02*
G01*
X189871742Y-83886601D01*
X190025687Y-83950367D01*
X190164234Y-84042941D01*
X190282059Y-84160766D01*
X190374633Y-84299313D01*
X190438399Y-84453258D01*
X190470907Y-84616685D01*
X190470907Y-84783315D01*
X190438399Y-84946742D01*
X190374633Y-85100687D01*
X190282059Y-85239234D01*
X190164234Y-85357059D01*
X190025687Y-85449633D01*
X189871742Y-85513399D01*
X189708315Y-85545907D01*
X189625000Y-85550000D01*
X189621940Y-85550000D01*
X189378060Y-85550000D01*
X189375000Y-85550000D01*
X189291685Y-85545907D01*
X189128258Y-85513399D01*
X188974313Y-85449633D01*
X188835766Y-85357059D01*
X188717941Y-85239234D01*
X188625367Y-85100687D01*
X188561601Y-84946742D01*
X188529093Y-84783315D01*
X188529093Y-84616685D01*
X188561601Y-84453258D01*
X188625367Y-84299313D01*
X188717941Y-84160766D01*
X188835766Y-84042941D01*
X188974313Y-83950367D01*
X189128258Y-83886601D01*
X189291685Y-83854093D01*
X189375000Y-83850000D01*
X189625000Y-83850000D01*
X189708315Y-83854093D01*
G37*
G36*
X131807403Y-84911418D02*
G01*
X131856066Y-84943934D01*
X131888582Y-84992597D01*
X131900000Y-85050000D01*
X131900000Y-85350000D01*
X131888582Y-85407403D01*
X131856066Y-85456066D01*
X131807403Y-85488582D01*
X131750000Y-85500000D01*
X130575000Y-85500000D01*
X130517597Y-85488582D01*
X130468934Y-85456066D01*
X130436418Y-85407403D01*
X130425000Y-85350000D01*
X130425000Y-85050000D01*
X130436418Y-84992597D01*
X130468934Y-84943934D01*
X130517597Y-84911418D01*
X130575000Y-84900000D01*
X131750000Y-84900000D01*
X131807403Y-84911418D01*
G37*
G36*
X136400000Y-85390000D02*
G01*
X134900000Y-85390000D01*
X134900000Y-84490000D01*
X136400000Y-84490000D01*
X136400000Y-85390000D01*
G37*
G36*
X153900000Y-85390000D02*
G01*
X152400000Y-85390000D01*
X152400000Y-84490000D01*
X153900000Y-84490000D01*
X153900000Y-85390000D01*
G37*
G36*
X133682403Y-83961418D02*
G01*
X133731066Y-83993934D01*
X133763582Y-84042597D01*
X133775000Y-84100000D01*
X133775000Y-84400000D01*
X133763582Y-84457403D01*
X133731066Y-84506066D01*
X133682403Y-84538582D01*
X133625000Y-84550000D01*
X132450000Y-84550000D01*
X132392597Y-84538582D01*
X132343934Y-84506066D01*
X132311418Y-84457403D01*
X132300000Y-84400000D01*
X132300000Y-84100000D01*
X132311418Y-84042597D01*
X132343934Y-83993934D01*
X132392597Y-83961418D01*
X132450000Y-83950000D01*
X133625000Y-83950000D01*
X133682403Y-83961418D01*
G37*
G36*
X136400000Y-84120000D02*
G01*
X134900000Y-84120000D01*
X134900000Y-83220000D01*
X136400000Y-83220000D01*
X136400000Y-84120000D01*
G37*
G36*
X153900000Y-84120000D02*
G01*
X152400000Y-84120000D01*
X152400000Y-83220000D01*
X153900000Y-83220000D01*
X153900000Y-84120000D01*
G37*
G36*
X171224797Y-82379932D02*
G01*
X171269650Y-82386467D01*
X171277882Y-82390491D01*
X171295671Y-82394030D01*
X171324440Y-82413253D01*
X171344263Y-82422944D01*
X171354973Y-82433654D01*
X171376777Y-82448223D01*
X171391345Y-82470026D01*
X171402055Y-82480736D01*
X171411744Y-82500556D01*
X171430970Y-82529329D01*
X171434508Y-82547119D01*
X171438532Y-82555349D01*
X171445064Y-82600187D01*
X171450000Y-82625000D01*
X171450000Y-83575000D01*
X171445063Y-83599816D01*
X171438532Y-83644650D01*
X171434509Y-83652878D01*
X171430970Y-83670671D01*
X171411742Y-83699446D01*
X171402055Y-83719263D01*
X171391347Y-83729970D01*
X171376777Y-83751777D01*
X171354970Y-83766347D01*
X171344263Y-83777055D01*
X171324446Y-83786742D01*
X171295671Y-83805970D01*
X171277878Y-83809509D01*
X171269650Y-83813532D01*
X171224814Y-83820064D01*
X171200000Y-83825000D01*
X170525000Y-83825000D01*
X170500186Y-83820064D01*
X170455349Y-83813532D01*
X170447119Y-83809508D01*
X170429329Y-83805970D01*
X170400556Y-83786744D01*
X170380736Y-83777055D01*
X170370026Y-83766345D01*
X170348223Y-83751777D01*
X170333654Y-83729973D01*
X170322944Y-83719263D01*
X170313253Y-83699440D01*
X170294030Y-83670671D01*
X170290491Y-83652882D01*
X170286467Y-83644650D01*
X170279932Y-83599796D01*
X170275000Y-83575000D01*
X170275000Y-82625000D01*
X170279931Y-82600205D01*
X170286467Y-82555349D01*
X170290491Y-82547115D01*
X170294030Y-82529329D01*
X170313251Y-82500561D01*
X170322944Y-82480736D01*
X170333656Y-82470023D01*
X170348223Y-82448223D01*
X170370023Y-82433656D01*
X170380736Y-82422944D01*
X170400561Y-82413251D01*
X170429329Y-82394030D01*
X170447115Y-82390491D01*
X170455349Y-82386467D01*
X170500206Y-82379931D01*
X170525000Y-82375000D01*
X171200000Y-82375000D01*
X171224797Y-82379932D01*
G37*
G36*
X173299797Y-82379932D02*
G01*
X173344650Y-82386467D01*
X173352882Y-82390491D01*
X173370671Y-82394030D01*
X173399440Y-82413253D01*
X173419263Y-82422944D01*
X173429973Y-82433654D01*
X173451777Y-82448223D01*
X173466345Y-82470026D01*
X173477055Y-82480736D01*
X173486744Y-82500556D01*
X173505970Y-82529329D01*
X173509508Y-82547119D01*
X173513532Y-82555349D01*
X173520064Y-82600187D01*
X173525000Y-82625000D01*
X173525000Y-83575000D01*
X173520063Y-83599816D01*
X173513532Y-83644650D01*
X173509509Y-83652878D01*
X173505970Y-83670671D01*
X173486742Y-83699446D01*
X173477055Y-83719263D01*
X173466347Y-83729970D01*
X173451777Y-83751777D01*
X173429970Y-83766347D01*
X173419263Y-83777055D01*
X173399446Y-83786742D01*
X173370671Y-83805970D01*
X173352878Y-83809509D01*
X173344650Y-83813532D01*
X173299814Y-83820064D01*
X173275000Y-83825000D01*
X172600000Y-83825000D01*
X172575186Y-83820064D01*
X172530349Y-83813532D01*
X172522119Y-83809508D01*
X172504329Y-83805970D01*
X172475556Y-83786744D01*
X172455736Y-83777055D01*
X172445026Y-83766345D01*
X172423223Y-83751777D01*
X172408654Y-83729973D01*
X172397944Y-83719263D01*
X172388253Y-83699440D01*
X172369030Y-83670671D01*
X172365491Y-83652882D01*
X172361467Y-83644650D01*
X172354932Y-83599796D01*
X172350000Y-83575000D01*
X172350000Y-82625000D01*
X172354931Y-82600205D01*
X172361467Y-82555349D01*
X172365491Y-82547115D01*
X172369030Y-82529329D01*
X172388251Y-82500561D01*
X172397944Y-82480736D01*
X172408656Y-82470023D01*
X172423223Y-82448223D01*
X172445023Y-82433656D01*
X172455736Y-82422944D01*
X172475561Y-82413251D01*
X172504329Y-82394030D01*
X172522115Y-82390491D01*
X172530349Y-82386467D01*
X172575206Y-82379931D01*
X172600000Y-82375000D01*
X173275000Y-82375000D01*
X173299797Y-82379932D01*
G37*
G36*
X175024797Y-82379932D02*
G01*
X175069650Y-82386467D01*
X175077882Y-82390491D01*
X175095671Y-82394030D01*
X175124440Y-82413253D01*
X175144263Y-82422944D01*
X175154973Y-82433654D01*
X175176777Y-82448223D01*
X175191345Y-82470026D01*
X175202055Y-82480736D01*
X175211744Y-82500556D01*
X175230970Y-82529329D01*
X175234508Y-82547119D01*
X175238532Y-82555349D01*
X175245064Y-82600187D01*
X175250000Y-82625000D01*
X175250000Y-83575000D01*
X175245063Y-83599816D01*
X175238532Y-83644650D01*
X175234509Y-83652878D01*
X175230970Y-83670671D01*
X175211742Y-83699446D01*
X175202055Y-83719263D01*
X175191347Y-83729970D01*
X175176777Y-83751777D01*
X175154970Y-83766347D01*
X175144263Y-83777055D01*
X175124446Y-83786742D01*
X175095671Y-83805970D01*
X175077878Y-83809509D01*
X175069650Y-83813532D01*
X175024814Y-83820064D01*
X175000000Y-83825000D01*
X174325000Y-83825000D01*
X174300186Y-83820064D01*
X174255349Y-83813532D01*
X174247119Y-83809508D01*
X174229329Y-83805970D01*
X174200556Y-83786744D01*
X174180736Y-83777055D01*
X174170026Y-83766345D01*
X174148223Y-83751777D01*
X174133654Y-83729973D01*
X174122944Y-83719263D01*
X174113253Y-83699440D01*
X174094030Y-83670671D01*
X174090491Y-83652882D01*
X174086467Y-83644650D01*
X174079932Y-83599796D01*
X174075000Y-83575000D01*
X174075000Y-82625000D01*
X174079931Y-82600205D01*
X174086467Y-82555349D01*
X174090491Y-82547115D01*
X174094030Y-82529329D01*
X174113251Y-82500561D01*
X174122944Y-82480736D01*
X174133656Y-82470023D01*
X174148223Y-82448223D01*
X174170023Y-82433656D01*
X174180736Y-82422944D01*
X174200561Y-82413251D01*
X174229329Y-82394030D01*
X174247115Y-82390491D01*
X174255349Y-82386467D01*
X174300206Y-82379931D01*
X174325000Y-82375000D01*
X175000000Y-82375000D01*
X175024797Y-82379932D01*
G37*
G36*
X177099797Y-82379932D02*
G01*
X177144650Y-82386467D01*
X177152882Y-82390491D01*
X177170671Y-82394030D01*
X177199440Y-82413253D01*
X177219263Y-82422944D01*
X177229973Y-82433654D01*
X177251777Y-82448223D01*
X177266345Y-82470026D01*
X177277055Y-82480736D01*
X177286744Y-82500556D01*
X177305970Y-82529329D01*
X177309508Y-82547119D01*
X177313532Y-82555349D01*
X177320064Y-82600187D01*
X177325000Y-82625000D01*
X177325000Y-83575000D01*
X177320063Y-83599816D01*
X177313532Y-83644650D01*
X177309509Y-83652878D01*
X177305970Y-83670671D01*
X177286742Y-83699446D01*
X177277055Y-83719263D01*
X177266347Y-83729970D01*
X177251777Y-83751777D01*
X177229970Y-83766347D01*
X177219263Y-83777055D01*
X177199446Y-83786742D01*
X177170671Y-83805970D01*
X177152878Y-83809509D01*
X177144650Y-83813532D01*
X177099814Y-83820064D01*
X177075000Y-83825000D01*
X176400000Y-83825000D01*
X176375186Y-83820064D01*
X176330349Y-83813532D01*
X176322119Y-83809508D01*
X176304329Y-83805970D01*
X176275556Y-83786744D01*
X176255736Y-83777055D01*
X176245026Y-83766345D01*
X176223223Y-83751777D01*
X176208654Y-83729973D01*
X176197944Y-83719263D01*
X176188253Y-83699440D01*
X176169030Y-83670671D01*
X176165491Y-83652882D01*
X176161467Y-83644650D01*
X176154932Y-83599796D01*
X176150000Y-83575000D01*
X176150000Y-82625000D01*
X176154931Y-82600205D01*
X176161467Y-82555349D01*
X176165491Y-82547115D01*
X176169030Y-82529329D01*
X176188251Y-82500561D01*
X176197944Y-82480736D01*
X176208656Y-82470023D01*
X176223223Y-82448223D01*
X176245023Y-82433656D01*
X176255736Y-82422944D01*
X176275561Y-82413251D01*
X176304329Y-82394030D01*
X176322115Y-82390491D01*
X176330349Y-82386467D01*
X176375206Y-82379931D01*
X176400000Y-82375000D01*
X177075000Y-82375000D01*
X177099797Y-82379932D01*
G37*
G36*
X122449774Y-82764937D02*
G01*
X122459650Y-82764937D01*
X122488106Y-82772561D01*
X122538601Y-82782606D01*
X122562434Y-82792478D01*
X122584543Y-82798402D01*
X122604362Y-82809844D01*
X122628199Y-82819718D01*
X122671017Y-82848328D01*
X122696520Y-82863052D01*
X122703499Y-82870031D01*
X122708828Y-82873592D01*
X122777407Y-82942171D01*
X122780967Y-82947499D01*
X122787948Y-82954480D01*
X122802673Y-82979986D01*
X122831281Y-83022800D01*
X122841153Y-83046634D01*
X122852598Y-83066457D01*
X122858522Y-83088569D01*
X122868393Y-83112398D01*
X122878436Y-83162888D01*
X122886063Y-83191350D01*
X122886063Y-83201226D01*
X122887313Y-83207510D01*
X122887313Y-83304489D01*
X122886063Y-83310772D01*
X122886063Y-83320650D01*
X122878435Y-83349114D01*
X122868393Y-83399601D01*
X122858523Y-83423428D01*
X122852598Y-83445543D01*
X122841151Y-83465368D01*
X122831281Y-83489199D01*
X122802678Y-83532006D01*
X122787948Y-83557520D01*
X122780965Y-83564502D01*
X122777407Y-83569828D01*
X122708828Y-83638407D01*
X122703502Y-83641965D01*
X122696520Y-83648948D01*
X122671006Y-83663678D01*
X122628199Y-83692281D01*
X122604368Y-83702151D01*
X122584543Y-83713598D01*
X122562428Y-83719523D01*
X122538601Y-83729393D01*
X122488113Y-83739436D01*
X122459650Y-83747063D01*
X122449774Y-83747063D01*
X122443490Y-83748313D01*
X122346510Y-83748313D01*
X122340226Y-83747063D01*
X122330350Y-83747063D01*
X122301888Y-83739436D01*
X122251398Y-83729393D01*
X122227569Y-83719522D01*
X122205457Y-83713598D01*
X122185634Y-83702153D01*
X122161800Y-83692281D01*
X122118986Y-83663673D01*
X122093480Y-83648948D01*
X122086499Y-83641967D01*
X122081171Y-83638407D01*
X122012592Y-83569828D01*
X122009031Y-83564499D01*
X122002052Y-83557520D01*
X121987328Y-83532017D01*
X121958718Y-83489199D01*
X121948844Y-83465362D01*
X121937402Y-83445543D01*
X121931478Y-83423434D01*
X121921606Y-83399601D01*
X121911562Y-83349107D01*
X121903937Y-83320650D01*
X121903937Y-83310773D01*
X121902687Y-83304489D01*
X121902687Y-83207510D01*
X121903937Y-83201225D01*
X121903937Y-83191350D01*
X121911561Y-83162895D01*
X121921606Y-83112398D01*
X121931478Y-83088562D01*
X121937402Y-83066457D01*
X121948843Y-83046640D01*
X121958718Y-83022800D01*
X121987332Y-82979975D01*
X122002052Y-82954480D01*
X122009029Y-82947502D01*
X122012592Y-82942171D01*
X122081171Y-82873592D01*
X122086502Y-82870029D01*
X122093480Y-82863052D01*
X122118975Y-82848332D01*
X122161800Y-82819718D01*
X122185640Y-82809843D01*
X122205457Y-82798402D01*
X122227562Y-82792478D01*
X122251398Y-82782606D01*
X122301895Y-82772561D01*
X122330350Y-82764937D01*
X122340226Y-82764937D01*
X122346510Y-82763687D01*
X122443490Y-82763687D01*
X122449774Y-82764937D01*
G37*
G36*
X123815662Y-82511269D02*
G01*
X123904669Y-82562657D01*
X123977343Y-82635331D01*
X124028731Y-82724338D01*
X124055332Y-82823612D01*
X124055332Y-82926388D01*
X124028731Y-83025662D01*
X123977343Y-83114669D01*
X123904669Y-83187343D01*
X123815662Y-83238731D01*
X123716388Y-83265332D01*
X123613612Y-83265332D01*
X123514338Y-83238731D01*
X123425331Y-83187343D01*
X123352657Y-83114669D01*
X123301269Y-83025662D01*
X123274668Y-82926388D01*
X123274668Y-82823612D01*
X123301269Y-82724338D01*
X123352657Y-82635331D01*
X123425331Y-82562657D01*
X123514338Y-82511269D01*
X123613612Y-82484668D01*
X123716388Y-82484668D01*
X123815662Y-82511269D01*
G37*
G36*
X125085662Y-82511269D02*
G01*
X125174669Y-82562657D01*
X125247343Y-82635331D01*
X125298731Y-82724338D01*
X125325332Y-82823612D01*
X125325332Y-82926388D01*
X125298731Y-83025662D01*
X125247343Y-83114669D01*
X125174669Y-83187343D01*
X125085662Y-83238731D01*
X124986388Y-83265332D01*
X124883612Y-83265332D01*
X124784338Y-83238731D01*
X124695331Y-83187343D01*
X124622657Y-83114669D01*
X124571269Y-83025662D01*
X124544668Y-82926388D01*
X124544668Y-82823612D01*
X124571269Y-82724338D01*
X124622657Y-82635331D01*
X124695331Y-82562657D01*
X124784338Y-82511269D01*
X124883612Y-82484668D01*
X124986388Y-82484668D01*
X125085662Y-82511269D01*
G37*
G36*
X126355662Y-82511269D02*
G01*
X126444669Y-82562657D01*
X126517343Y-82635331D01*
X126568731Y-82724338D01*
X126595332Y-82823612D01*
X126595332Y-82926388D01*
X126568731Y-83025662D01*
X126517343Y-83114669D01*
X126444669Y-83187343D01*
X126355662Y-83238731D01*
X126256388Y-83265332D01*
X126153612Y-83265332D01*
X126054338Y-83238731D01*
X125965331Y-83187343D01*
X125892657Y-83114669D01*
X125841269Y-83025662D01*
X125814668Y-82926388D01*
X125814668Y-82823612D01*
X125841269Y-82724338D01*
X125892657Y-82635331D01*
X125965331Y-82562657D01*
X126054338Y-82511269D01*
X126153612Y-82484668D01*
X126256388Y-82484668D01*
X126355662Y-82511269D01*
G37*
G36*
X189708315Y-81354093D02*
G01*
X189871742Y-81386601D01*
X190025687Y-81450367D01*
X190164234Y-81542941D01*
X190282059Y-81660766D01*
X190374633Y-81799313D01*
X190438399Y-81953258D01*
X190470907Y-82116685D01*
X190470907Y-82283315D01*
X190438399Y-82446742D01*
X190374633Y-82600687D01*
X190282059Y-82739234D01*
X190164234Y-82857059D01*
X190025687Y-82949633D01*
X189871742Y-83013399D01*
X189708315Y-83045907D01*
X189625000Y-83050000D01*
X189621940Y-83050000D01*
X189378060Y-83050000D01*
X189375000Y-83050000D01*
X189291685Y-83045907D01*
X189128258Y-83013399D01*
X188974313Y-82949633D01*
X188835766Y-82857059D01*
X188717941Y-82739234D01*
X188625367Y-82600687D01*
X188561601Y-82446742D01*
X188529093Y-82283315D01*
X188529093Y-82116685D01*
X188561601Y-81953258D01*
X188625367Y-81799313D01*
X188717941Y-81660766D01*
X188835766Y-81542941D01*
X188974313Y-81450367D01*
X189128258Y-81386601D01*
X189291685Y-81354093D01*
X189375000Y-81350000D01*
X189625000Y-81350000D01*
X189708315Y-81354093D01*
G37*
G36*
X184024797Y-81579932D02*
G01*
X184069650Y-81586467D01*
X184077882Y-81590491D01*
X184095671Y-81594030D01*
X184124440Y-81613253D01*
X184144263Y-81622944D01*
X184154973Y-81633654D01*
X184176777Y-81648223D01*
X184191345Y-81670026D01*
X184202055Y-81680736D01*
X184211744Y-81700556D01*
X184230970Y-81729329D01*
X184234508Y-81747119D01*
X184238532Y-81755349D01*
X184245064Y-81800187D01*
X184250000Y-81825000D01*
X184250000Y-82775000D01*
X184245063Y-82799816D01*
X184238532Y-82844650D01*
X184234509Y-82852878D01*
X184230970Y-82870671D01*
X184211742Y-82899446D01*
X184202055Y-82919263D01*
X184191347Y-82929970D01*
X184176777Y-82951777D01*
X184154970Y-82966347D01*
X184144263Y-82977055D01*
X184124446Y-82986742D01*
X184095671Y-83005970D01*
X184077878Y-83009509D01*
X184069650Y-83013532D01*
X184024814Y-83020064D01*
X184000000Y-83025000D01*
X183325000Y-83025000D01*
X183300186Y-83020064D01*
X183255349Y-83013532D01*
X183247119Y-83009508D01*
X183229329Y-83005970D01*
X183200556Y-82986744D01*
X183180736Y-82977055D01*
X183170026Y-82966345D01*
X183148223Y-82951777D01*
X183133654Y-82929973D01*
X183122944Y-82919263D01*
X183113253Y-82899440D01*
X183094030Y-82870671D01*
X183090491Y-82852882D01*
X183086467Y-82844650D01*
X183079932Y-82799796D01*
X183075000Y-82775000D01*
X183075000Y-81825000D01*
X183079931Y-81800205D01*
X183086467Y-81755349D01*
X183090491Y-81747115D01*
X183094030Y-81729329D01*
X183113251Y-81700561D01*
X183122944Y-81680736D01*
X183133656Y-81670023D01*
X183148223Y-81648223D01*
X183170023Y-81633656D01*
X183180736Y-81622944D01*
X183200561Y-81613251D01*
X183229329Y-81594030D01*
X183247115Y-81590491D01*
X183255349Y-81586467D01*
X183300206Y-81579931D01*
X183325000Y-81575000D01*
X184000000Y-81575000D01*
X184024797Y-81579932D01*
G37*
G36*
X186099797Y-81579932D02*
G01*
X186144650Y-81586467D01*
X186152882Y-81590491D01*
X186170671Y-81594030D01*
X186199440Y-81613253D01*
X186219263Y-81622944D01*
X186229973Y-81633654D01*
X186251777Y-81648223D01*
X186266345Y-81670026D01*
X186277055Y-81680736D01*
X186286744Y-81700556D01*
X186305970Y-81729329D01*
X186309508Y-81747119D01*
X186313532Y-81755349D01*
X186320064Y-81800187D01*
X186325000Y-81825000D01*
X186325000Y-82775000D01*
X186320063Y-82799816D01*
X186313532Y-82844650D01*
X186309509Y-82852878D01*
X186305970Y-82870671D01*
X186286742Y-82899446D01*
X186277055Y-82919263D01*
X186266347Y-82929970D01*
X186251777Y-82951777D01*
X186229970Y-82966347D01*
X186219263Y-82977055D01*
X186199446Y-82986742D01*
X186170671Y-83005970D01*
X186152878Y-83009509D01*
X186144650Y-83013532D01*
X186099814Y-83020064D01*
X186075000Y-83025000D01*
X185400000Y-83025000D01*
X185375186Y-83020064D01*
X185330349Y-83013532D01*
X185322119Y-83009508D01*
X185304329Y-83005970D01*
X185275556Y-82986744D01*
X185255736Y-82977055D01*
X185245026Y-82966345D01*
X185223223Y-82951777D01*
X185208654Y-82929973D01*
X185197944Y-82919263D01*
X185188253Y-82899440D01*
X185169030Y-82870671D01*
X185165491Y-82852882D01*
X185161467Y-82844650D01*
X185154932Y-82799796D01*
X185150000Y-82775000D01*
X185150000Y-81825000D01*
X185154931Y-81800205D01*
X185161467Y-81755349D01*
X185165491Y-81747115D01*
X185169030Y-81729329D01*
X185188251Y-81700561D01*
X185197944Y-81680736D01*
X185208656Y-81670023D01*
X185223223Y-81648223D01*
X185245023Y-81633656D01*
X185255736Y-81622944D01*
X185275561Y-81613251D01*
X185304329Y-81594030D01*
X185322115Y-81590491D01*
X185330349Y-81586467D01*
X185375206Y-81579931D01*
X185400000Y-81575000D01*
X186075000Y-81575000D01*
X186099797Y-81579932D01*
G37*
G36*
X136400000Y-82850000D02*
G01*
X134900000Y-82850000D01*
X134900000Y-81950000D01*
X136400000Y-81950000D01*
X136400000Y-82850000D01*
G37*
G36*
X153900000Y-82850000D02*
G01*
X152400000Y-82850000D01*
X152400000Y-81950000D01*
X153900000Y-81950000D01*
X153900000Y-82850000D01*
G37*
G36*
X127529774Y-81748937D02*
G01*
X127539650Y-81748937D01*
X127568106Y-81756561D01*
X127618601Y-81766606D01*
X127642434Y-81776478D01*
X127664543Y-81782402D01*
X127684362Y-81793844D01*
X127708199Y-81803718D01*
X127751017Y-81832328D01*
X127776520Y-81847052D01*
X127783499Y-81854031D01*
X127788828Y-81857592D01*
X127857407Y-81926171D01*
X127860967Y-81931499D01*
X127867948Y-81938480D01*
X127882673Y-81963986D01*
X127911281Y-82006800D01*
X127921153Y-82030634D01*
X127932598Y-82050457D01*
X127938522Y-82072569D01*
X127948393Y-82096398D01*
X127958436Y-82146888D01*
X127966063Y-82175350D01*
X127966063Y-82185226D01*
X127967313Y-82191510D01*
X127967313Y-82288489D01*
X127966063Y-82294772D01*
X127966063Y-82304650D01*
X127958435Y-82333114D01*
X127948393Y-82383601D01*
X127938523Y-82407428D01*
X127932598Y-82429543D01*
X127921151Y-82449368D01*
X127911281Y-82473199D01*
X127882678Y-82516006D01*
X127867948Y-82541520D01*
X127860965Y-82548502D01*
X127857407Y-82553828D01*
X127788828Y-82622407D01*
X127783502Y-82625965D01*
X127776520Y-82632948D01*
X127751006Y-82647678D01*
X127708199Y-82676281D01*
X127684368Y-82686151D01*
X127664543Y-82697598D01*
X127642428Y-82703523D01*
X127618601Y-82713393D01*
X127568113Y-82723436D01*
X127539650Y-82731063D01*
X127529774Y-82731063D01*
X127523490Y-82732313D01*
X127426510Y-82732313D01*
X127420226Y-82731063D01*
X127410350Y-82731063D01*
X127381888Y-82723436D01*
X127331398Y-82713393D01*
X127307569Y-82703522D01*
X127285457Y-82697598D01*
X127265634Y-82686153D01*
X127241800Y-82676281D01*
X127198986Y-82647673D01*
X127173480Y-82632948D01*
X127166499Y-82625967D01*
X127161171Y-82622407D01*
X127092592Y-82553828D01*
X127089031Y-82548499D01*
X127082052Y-82541520D01*
X127067328Y-82516017D01*
X127038718Y-82473199D01*
X127028844Y-82449362D01*
X127017402Y-82429543D01*
X127011478Y-82407434D01*
X127001606Y-82383601D01*
X126991562Y-82333107D01*
X126983937Y-82304650D01*
X126983937Y-82294773D01*
X126982687Y-82288489D01*
X126982687Y-82191510D01*
X126983937Y-82185225D01*
X126983937Y-82175350D01*
X126991561Y-82146895D01*
X127001606Y-82096398D01*
X127011478Y-82072562D01*
X127017402Y-82050457D01*
X127028843Y-82030640D01*
X127038718Y-82006800D01*
X127067332Y-81963975D01*
X127082052Y-81938480D01*
X127089029Y-81931502D01*
X127092592Y-81926171D01*
X127161171Y-81857592D01*
X127166502Y-81854029D01*
X127173480Y-81847052D01*
X127198975Y-81832332D01*
X127241800Y-81803718D01*
X127265640Y-81793843D01*
X127285457Y-81782402D01*
X127307562Y-81776478D01*
X127331398Y-81766606D01*
X127381895Y-81756561D01*
X127410350Y-81748937D01*
X127420226Y-81748937D01*
X127426510Y-81747687D01*
X127523490Y-81747687D01*
X127529774Y-81748937D01*
G37*
G36*
X132062291Y-81529931D02*
G01*
X132103583Y-81535947D01*
X132111163Y-81539652D01*
X132128387Y-81543079D01*
X132156243Y-81561691D01*
X132174500Y-81570617D01*
X132184364Y-81580481D01*
X132205438Y-81594562D01*
X132219518Y-81615635D01*
X132229382Y-81625499D01*
X132238306Y-81643754D01*
X132256921Y-81671613D01*
X132260347Y-81688838D01*
X132264052Y-81696416D01*
X132270065Y-81737695D01*
X132275000Y-81762500D01*
X132275000Y-82237500D01*
X132270064Y-82262310D01*
X132264052Y-82303583D01*
X132260347Y-82311159D01*
X132256921Y-82328387D01*
X132238304Y-82356248D01*
X132229382Y-82374500D01*
X132219520Y-82384361D01*
X132205438Y-82405438D01*
X132184361Y-82419520D01*
X132174500Y-82429382D01*
X132156248Y-82438304D01*
X132128387Y-82456921D01*
X132111159Y-82460347D01*
X132103583Y-82464052D01*
X132062307Y-82470065D01*
X132037500Y-82475000D01*
X131537500Y-82475000D01*
X131512692Y-82470065D01*
X131471416Y-82464052D01*
X131463838Y-82460347D01*
X131446613Y-82456921D01*
X131418754Y-82438306D01*
X131400499Y-82429382D01*
X131390635Y-82419518D01*
X131369562Y-82405438D01*
X131355481Y-82384364D01*
X131345617Y-82374500D01*
X131336691Y-82356243D01*
X131318079Y-82328387D01*
X131314652Y-82311163D01*
X131310947Y-82303583D01*
X131304930Y-82262288D01*
X131300000Y-82237500D01*
X131300000Y-81762500D01*
X131304931Y-81737710D01*
X131310947Y-81696416D01*
X131314653Y-81688834D01*
X131318079Y-81671613D01*
X131336689Y-81643759D01*
X131345617Y-81625499D01*
X131355483Y-81615632D01*
X131369562Y-81594562D01*
X131390632Y-81580483D01*
X131400499Y-81570617D01*
X131418759Y-81561689D01*
X131446613Y-81543079D01*
X131463834Y-81539653D01*
X131471416Y-81535947D01*
X131512713Y-81529930D01*
X131537500Y-81525000D01*
X132037500Y-81525000D01*
X132062291Y-81529931D01*
G37*
G36*
X133887291Y-81529931D02*
G01*
X133928583Y-81535947D01*
X133936163Y-81539652D01*
X133953387Y-81543079D01*
X133981243Y-81561691D01*
X133999500Y-81570617D01*
X134009364Y-81580481D01*
X134030438Y-81594562D01*
X134044518Y-81615635D01*
X134054382Y-81625499D01*
X134063306Y-81643754D01*
X134081921Y-81671613D01*
X134085347Y-81688838D01*
X134089052Y-81696416D01*
X134095065Y-81737695D01*
X134100000Y-81762500D01*
X134100000Y-82237500D01*
X134095064Y-82262310D01*
X134089052Y-82303583D01*
X134085347Y-82311159D01*
X134081921Y-82328387D01*
X134063304Y-82356248D01*
X134054382Y-82374500D01*
X134044520Y-82384361D01*
X134030438Y-82405438D01*
X134009361Y-82419520D01*
X133999500Y-82429382D01*
X133981248Y-82438304D01*
X133953387Y-82456921D01*
X133936159Y-82460347D01*
X133928583Y-82464052D01*
X133887307Y-82470065D01*
X133862500Y-82475000D01*
X133362500Y-82475000D01*
X133337692Y-82470065D01*
X133296416Y-82464052D01*
X133288838Y-82460347D01*
X133271613Y-82456921D01*
X133243754Y-82438306D01*
X133225499Y-82429382D01*
X133215635Y-82419518D01*
X133194562Y-82405438D01*
X133180481Y-82384364D01*
X133170617Y-82374500D01*
X133161691Y-82356243D01*
X133143079Y-82328387D01*
X133139652Y-82311163D01*
X133135947Y-82303583D01*
X133129930Y-82262288D01*
X133125000Y-82237500D01*
X133125000Y-81762500D01*
X133129931Y-81737710D01*
X133135947Y-81696416D01*
X133139653Y-81688834D01*
X133143079Y-81671613D01*
X133161689Y-81643759D01*
X133170617Y-81625499D01*
X133180483Y-81615632D01*
X133194562Y-81594562D01*
X133215632Y-81580483D01*
X133225499Y-81570617D01*
X133243759Y-81561689D01*
X133271613Y-81543079D01*
X133288834Y-81539653D01*
X133296416Y-81535947D01*
X133337713Y-81529930D01*
X133362500Y-81525000D01*
X133862500Y-81525000D01*
X133887291Y-81529931D01*
G37*
G36*
X123815662Y-81241269D02*
G01*
X123904669Y-81292657D01*
X123977343Y-81365331D01*
X124028731Y-81454338D01*
X124055332Y-81553612D01*
X124055332Y-81656388D01*
X124028731Y-81755662D01*
X123977343Y-81844669D01*
X123904669Y-81917343D01*
X123815662Y-81968731D01*
X123716388Y-81995332D01*
X123613612Y-81995332D01*
X123514338Y-81968731D01*
X123425331Y-81917343D01*
X123352657Y-81844669D01*
X123301269Y-81755662D01*
X123274668Y-81656388D01*
X123274668Y-81553612D01*
X123301269Y-81454338D01*
X123352657Y-81365331D01*
X123425331Y-81292657D01*
X123514338Y-81241269D01*
X123613612Y-81214668D01*
X123716388Y-81214668D01*
X123815662Y-81241269D01*
G37*
G36*
X125085662Y-81241269D02*
G01*
X125174669Y-81292657D01*
X125247343Y-81365331D01*
X125298731Y-81454338D01*
X125325332Y-81553612D01*
X125325332Y-81656388D01*
X125298731Y-81755662D01*
X125247343Y-81844669D01*
X125174669Y-81917343D01*
X125085662Y-81968731D01*
X124986388Y-81995332D01*
X124883612Y-81995332D01*
X124784338Y-81968731D01*
X124695331Y-81917343D01*
X124622657Y-81844669D01*
X124571269Y-81755662D01*
X124544668Y-81656388D01*
X124544668Y-81553612D01*
X124571269Y-81454338D01*
X124622657Y-81365331D01*
X124695331Y-81292657D01*
X124784338Y-81241269D01*
X124883612Y-81214668D01*
X124986388Y-81214668D01*
X125085662Y-81241269D01*
G37*
G36*
X126355662Y-81241269D02*
G01*
X126444669Y-81292657D01*
X126517343Y-81365331D01*
X126568731Y-81454338D01*
X126595332Y-81553612D01*
X126595332Y-81656388D01*
X126568731Y-81755662D01*
X126517343Y-81844669D01*
X126444669Y-81917343D01*
X126355662Y-81968731D01*
X126256388Y-81995332D01*
X126153612Y-81995332D01*
X126054338Y-81968731D01*
X125965331Y-81917343D01*
X125892657Y-81844669D01*
X125841269Y-81755662D01*
X125814668Y-81656388D01*
X125814668Y-81553612D01*
X125841269Y-81454338D01*
X125892657Y-81365331D01*
X125965331Y-81292657D01*
X126054338Y-81241269D01*
X126153612Y-81214668D01*
X126256388Y-81214668D01*
X126355662Y-81241269D01*
G37*
G36*
X141950000Y-78218908D02*
G01*
X142047807Y-78293960D01*
X142081619Y-78284900D01*
X142085195Y-78282836D01*
X142160842Y-78262567D01*
X142239158Y-78262567D01*
X142314805Y-78282836D01*
X142318381Y-78284900D01*
X142352192Y-78293960D01*
X142450000Y-78218908D01*
X142450000Y-78122310D01*
X142450000Y-78110000D01*
X143350000Y-78110000D01*
X143350000Y-78218908D01*
X143447807Y-78293960D01*
X143481619Y-78284900D01*
X143485195Y-78282836D01*
X143560842Y-78262567D01*
X143639158Y-78262567D01*
X143714805Y-78282836D01*
X143718381Y-78284900D01*
X143752192Y-78293960D01*
X143850000Y-78218908D01*
X143850000Y-78122310D01*
X143850000Y-78110000D01*
X144750000Y-78110000D01*
X144750000Y-79010000D01*
X144641089Y-79010000D01*
X144566039Y-79107808D01*
X144575097Y-79141616D01*
X144577164Y-79145195D01*
X144597433Y-79220842D01*
X144597433Y-79299158D01*
X144577164Y-79374805D01*
X144575097Y-79378384D01*
X144566039Y-79412191D01*
X144641090Y-79510000D01*
X144750000Y-79510000D01*
X144750000Y-80410000D01*
X144641089Y-80410000D01*
X144566039Y-80507808D01*
X144575097Y-80541616D01*
X144577164Y-80545195D01*
X144597433Y-80620842D01*
X144597433Y-80699158D01*
X144577164Y-80774805D01*
X144575097Y-80778384D01*
X144566039Y-80812191D01*
X144641090Y-80910000D01*
X144750000Y-80910000D01*
X144750000Y-81810000D01*
X143850000Y-81810000D01*
X143850000Y-81755249D01*
X143849999Y-81701088D01*
X143752190Y-81626039D01*
X143718385Y-81635097D01*
X143714805Y-81637164D01*
X143639158Y-81657433D01*
X143560842Y-81657433D01*
X143485195Y-81637164D01*
X143481617Y-81635098D01*
X143447807Y-81626039D01*
X143350000Y-81701090D01*
X143350000Y-81810000D01*
X142450000Y-81810000D01*
X142450000Y-81755249D01*
X142449999Y-81701088D01*
X142352190Y-81626039D01*
X142318385Y-81635097D01*
X142314805Y-81637164D01*
X142239158Y-81657433D01*
X142160842Y-81657433D01*
X142085195Y-81637164D01*
X142081617Y-81635098D01*
X142047807Y-81626039D01*
X141950000Y-81701090D01*
X141950000Y-81810000D01*
X141050000Y-81810000D01*
X141050000Y-80910000D01*
X141062313Y-80910000D01*
X141158910Y-80909999D01*
X141233959Y-80812191D01*
X141224899Y-80778379D01*
X141222836Y-80774805D01*
X141202567Y-80699158D01*
X141202567Y-80620842D01*
X141222836Y-80545195D01*
X141224899Y-80541620D01*
X141233959Y-80507808D01*
X141766039Y-80507808D01*
X141775097Y-80541616D01*
X141777164Y-80545195D01*
X141797433Y-80620842D01*
X141797433Y-80699158D01*
X141777164Y-80774805D01*
X141775097Y-80778384D01*
X141766039Y-80812191D01*
X141841090Y-80910000D01*
X141950000Y-80910000D01*
X141950000Y-81018908D01*
X142047807Y-81093960D01*
X142081619Y-81084900D01*
X142085195Y-81082836D01*
X142160842Y-81062567D01*
X142239158Y-81062567D01*
X142314805Y-81082836D01*
X142318381Y-81084900D01*
X142352192Y-81093960D01*
X142450000Y-81018908D01*
X142450000Y-80922310D01*
X142450000Y-80910000D01*
X142462313Y-80910000D01*
X142558910Y-80909999D01*
X142633959Y-80812191D01*
X142624899Y-80778379D01*
X142622836Y-80774805D01*
X142602567Y-80699158D01*
X142602567Y-80620842D01*
X142622836Y-80545195D01*
X142624899Y-80541620D01*
X142633959Y-80507808D01*
X143166039Y-80507808D01*
X143175097Y-80541616D01*
X143177164Y-80545195D01*
X143197433Y-80620842D01*
X143197433Y-80699158D01*
X143177164Y-80774805D01*
X143175097Y-80778384D01*
X143166039Y-80812191D01*
X143241090Y-80910000D01*
X143350000Y-80910000D01*
X143350000Y-81018908D01*
X143447807Y-81093960D01*
X143481619Y-81084900D01*
X143485195Y-81082836D01*
X143560842Y-81062567D01*
X143639158Y-81062567D01*
X143714805Y-81082836D01*
X143718381Y-81084900D01*
X143752192Y-81093960D01*
X143850000Y-81018908D01*
X143850000Y-80922310D01*
X143850000Y-80910000D01*
X143862313Y-80910000D01*
X143958910Y-80909999D01*
X144033959Y-80812191D01*
X144024899Y-80778379D01*
X144022836Y-80774805D01*
X144002567Y-80699158D01*
X144002567Y-80620842D01*
X144022836Y-80545195D01*
X144024899Y-80541620D01*
X144033960Y-80507806D01*
X143958908Y-80410000D01*
X143850000Y-80410000D01*
X143850000Y-80356591D01*
X143849999Y-80301088D01*
X143752190Y-80226039D01*
X143718385Y-80235097D01*
X143714805Y-80237164D01*
X143639158Y-80257433D01*
X143560842Y-80257433D01*
X143485195Y-80237164D01*
X143481617Y-80235098D01*
X143447807Y-80226039D01*
X143350000Y-80301090D01*
X143350000Y-80410000D01*
X143241089Y-80410000D01*
X143166039Y-80507808D01*
X142633959Y-80507808D01*
X142633960Y-80507806D01*
X142558908Y-80410000D01*
X142450000Y-80410000D01*
X142450000Y-80356591D01*
X142449999Y-80301088D01*
X142352190Y-80226039D01*
X142318385Y-80235097D01*
X142314805Y-80237164D01*
X142239158Y-80257433D01*
X142160842Y-80257433D01*
X142085195Y-80237164D01*
X142081617Y-80235098D01*
X142047807Y-80226039D01*
X141950000Y-80301090D01*
X141950000Y-80410000D01*
X141841089Y-80410000D01*
X141766039Y-80507808D01*
X141233959Y-80507808D01*
X141233960Y-80507806D01*
X141158908Y-80410000D01*
X141050000Y-80410000D01*
X141050000Y-79510000D01*
X141062313Y-79510000D01*
X141158910Y-79509999D01*
X141233959Y-79412191D01*
X141224899Y-79378379D01*
X141222836Y-79374805D01*
X141202567Y-79299158D01*
X141202567Y-79220842D01*
X141222836Y-79145195D01*
X141224899Y-79141620D01*
X141233959Y-79107808D01*
X141766039Y-79107808D01*
X141775097Y-79141616D01*
X141777164Y-79145195D01*
X141797433Y-79220842D01*
X141797433Y-79299158D01*
X141777164Y-79374805D01*
X141775097Y-79378384D01*
X141766039Y-79412191D01*
X141841090Y-79510000D01*
X141950000Y-79510000D01*
X141950000Y-79618908D01*
X142047807Y-79693960D01*
X142081619Y-79684900D01*
X142085195Y-79682836D01*
X142160842Y-79662567D01*
X142239158Y-79662567D01*
X142314805Y-79682836D01*
X142318381Y-79684900D01*
X142352192Y-79693960D01*
X142450000Y-79618908D01*
X142450000Y-79522310D01*
X142450000Y-79510000D01*
X142462313Y-79510000D01*
X142558910Y-79509999D01*
X142633959Y-79412191D01*
X142624899Y-79378379D01*
X142622836Y-79374805D01*
X142602567Y-79299158D01*
X142602567Y-79220842D01*
X142622836Y-79145195D01*
X142624899Y-79141620D01*
X142633959Y-79107808D01*
X143166039Y-79107808D01*
X143175097Y-79141616D01*
X143177164Y-79145195D01*
X143197433Y-79220842D01*
X143197433Y-79299158D01*
X143177164Y-79374805D01*
X143175097Y-79378384D01*
X143166039Y-79412191D01*
X143241090Y-79510000D01*
X143350000Y-79510000D01*
X143350000Y-79618908D01*
X143447807Y-79693960D01*
X143481619Y-79684900D01*
X143485195Y-79682836D01*
X143560842Y-79662567D01*
X143639158Y-79662567D01*
X143714805Y-79682836D01*
X143718381Y-79684900D01*
X143752192Y-79693960D01*
X143850000Y-79618908D01*
X143850000Y-79522310D01*
X143850000Y-79510000D01*
X143862313Y-79510000D01*
X143958910Y-79509999D01*
X144033959Y-79412191D01*
X144024899Y-79378379D01*
X144022836Y-79374805D01*
X144002567Y-79299158D01*
X144002567Y-79220842D01*
X144022836Y-79145195D01*
X144024899Y-79141620D01*
X144033960Y-79107806D01*
X143958908Y-79010000D01*
X143850000Y-79010000D01*
X143850000Y-78950367D01*
X143849999Y-78901088D01*
X143752190Y-78826039D01*
X143718385Y-78835097D01*
X143714805Y-78837164D01*
X143639158Y-78857433D01*
X143560842Y-78857433D01*
X143485195Y-78837164D01*
X143481617Y-78835098D01*
X143447807Y-78826039D01*
X143350000Y-78901090D01*
X143350000Y-79010000D01*
X143241089Y-79010000D01*
X143166039Y-79107808D01*
X142633959Y-79107808D01*
X142633960Y-79107806D01*
X142558908Y-79010000D01*
X142450000Y-79010000D01*
X142450000Y-78950367D01*
X142449999Y-78901088D01*
X142352190Y-78826039D01*
X142318385Y-78835097D01*
X142314805Y-78837164D01*
X142239158Y-78857433D01*
X142160842Y-78857433D01*
X142085195Y-78837164D01*
X142081617Y-78835098D01*
X142047807Y-78826039D01*
X141950000Y-78901090D01*
X141950000Y-79010000D01*
X141841089Y-79010000D01*
X141766039Y-79107808D01*
X141233959Y-79107808D01*
X141233960Y-79107806D01*
X141158908Y-79010000D01*
X141050000Y-79010000D01*
X141050000Y-78110000D01*
X141950000Y-78110000D01*
X141950000Y-78218908D01*
G37*
G36*
X122449774Y-80732937D02*
G01*
X122459650Y-80732937D01*
X122488106Y-80740561D01*
X122538601Y-80750606D01*
X122562434Y-80760478D01*
X122584543Y-80766402D01*
X122604362Y-80777844D01*
X122628199Y-80787718D01*
X122671017Y-80816328D01*
X122696520Y-80831052D01*
X122703499Y-80838031D01*
X122708828Y-80841592D01*
X122777407Y-80910171D01*
X122780967Y-80915499D01*
X122787948Y-80922480D01*
X122802673Y-80947986D01*
X122831281Y-80990800D01*
X122841153Y-81014634D01*
X122852598Y-81034457D01*
X122858522Y-81056569D01*
X122868393Y-81080398D01*
X122878436Y-81130888D01*
X122886063Y-81159350D01*
X122886063Y-81169226D01*
X122887313Y-81175510D01*
X122887313Y-81272489D01*
X122886063Y-81278772D01*
X122886063Y-81288650D01*
X122878435Y-81317114D01*
X122868393Y-81367601D01*
X122858523Y-81391428D01*
X122852598Y-81413543D01*
X122841151Y-81433368D01*
X122831281Y-81457199D01*
X122802678Y-81500006D01*
X122787948Y-81525520D01*
X122780965Y-81532502D01*
X122777407Y-81537828D01*
X122708828Y-81606407D01*
X122703502Y-81609965D01*
X122696520Y-81616948D01*
X122671006Y-81631678D01*
X122628199Y-81660281D01*
X122604368Y-81670151D01*
X122584543Y-81681598D01*
X122562428Y-81687523D01*
X122538601Y-81697393D01*
X122488113Y-81707436D01*
X122459650Y-81715063D01*
X122449774Y-81715063D01*
X122443490Y-81716313D01*
X122346510Y-81716313D01*
X122340226Y-81715063D01*
X122330350Y-81715063D01*
X122301888Y-81707436D01*
X122251398Y-81697393D01*
X122227569Y-81687522D01*
X122205457Y-81681598D01*
X122185634Y-81670153D01*
X122161800Y-81660281D01*
X122118986Y-81631673D01*
X122093480Y-81616948D01*
X122086499Y-81609967D01*
X122081171Y-81606407D01*
X122012592Y-81537828D01*
X122009031Y-81532499D01*
X122002052Y-81525520D01*
X121987328Y-81500017D01*
X121958718Y-81457199D01*
X121948844Y-81433362D01*
X121937402Y-81413543D01*
X121931478Y-81391434D01*
X121921606Y-81367601D01*
X121911562Y-81317107D01*
X121903937Y-81288650D01*
X121903937Y-81278773D01*
X121902687Y-81272489D01*
X121902687Y-81175510D01*
X121903937Y-81169225D01*
X121903937Y-81159350D01*
X121911561Y-81130895D01*
X121921606Y-81080398D01*
X121931478Y-81056562D01*
X121937402Y-81034457D01*
X121948843Y-81014640D01*
X121958718Y-80990800D01*
X121987332Y-80947975D01*
X122002052Y-80922480D01*
X122009029Y-80915502D01*
X122012592Y-80910171D01*
X122081171Y-80841592D01*
X122086502Y-80838029D01*
X122093480Y-80831052D01*
X122118975Y-80816332D01*
X122161800Y-80787718D01*
X122185640Y-80777843D01*
X122205457Y-80766402D01*
X122227562Y-80760478D01*
X122251398Y-80750606D01*
X122301895Y-80740561D01*
X122330350Y-80732937D01*
X122340226Y-80732937D01*
X122346510Y-80731687D01*
X122443490Y-80731687D01*
X122449774Y-80732937D01*
G37*
G36*
X172207403Y-81016418D02*
G01*
X172256066Y-81048934D01*
X172288582Y-81097597D01*
X172300000Y-81155000D01*
X172300000Y-81455000D01*
X172288582Y-81512403D01*
X172256066Y-81561066D01*
X172207403Y-81593582D01*
X172150000Y-81605000D01*
X170500000Y-81605000D01*
X170442597Y-81593582D01*
X170393934Y-81561066D01*
X170361418Y-81512403D01*
X170350000Y-81455000D01*
X170350000Y-81155000D01*
X170361418Y-81097597D01*
X170393934Y-81048934D01*
X170442597Y-81016418D01*
X170500000Y-81005000D01*
X172150000Y-81005000D01*
X172207403Y-81016418D01*
G37*
G36*
X177157403Y-81016418D02*
G01*
X177206066Y-81048934D01*
X177238582Y-81097597D01*
X177250000Y-81155000D01*
X177250000Y-81455000D01*
X177238582Y-81512403D01*
X177206066Y-81561066D01*
X177157403Y-81593582D01*
X177100000Y-81605000D01*
X175450000Y-81605000D01*
X175392597Y-81593582D01*
X175343934Y-81561066D01*
X175311418Y-81512403D01*
X175300000Y-81455000D01*
X175300000Y-81155000D01*
X175311418Y-81097597D01*
X175343934Y-81048934D01*
X175392597Y-81016418D01*
X175450000Y-81005000D01*
X177100000Y-81005000D01*
X177157403Y-81016418D01*
G37*
G36*
X136400000Y-81580000D02*
G01*
X134900000Y-81580000D01*
X134900000Y-80680000D01*
X136400000Y-80680000D01*
X136400000Y-81580000D01*
G37*
G36*
X153900000Y-81580000D02*
G01*
X152400000Y-81580000D01*
X152400000Y-80680000D01*
X153900000Y-80680000D01*
X153900000Y-81580000D01*
G37*
G36*
X132062291Y-80029931D02*
G01*
X132103583Y-80035947D01*
X132111163Y-80039652D01*
X132128387Y-80043079D01*
X132156243Y-80061691D01*
X132174500Y-80070617D01*
X132184364Y-80080481D01*
X132205438Y-80094562D01*
X132219518Y-80115635D01*
X132229382Y-80125499D01*
X132238306Y-80143754D01*
X132256921Y-80171613D01*
X132260347Y-80188838D01*
X132264052Y-80196416D01*
X132270065Y-80237695D01*
X132275000Y-80262500D01*
X132275000Y-80737500D01*
X132270064Y-80762310D01*
X132264052Y-80803583D01*
X132260347Y-80811159D01*
X132256921Y-80828387D01*
X132238304Y-80856248D01*
X132229382Y-80874500D01*
X132219520Y-80884361D01*
X132205438Y-80905438D01*
X132184361Y-80919520D01*
X132174500Y-80929382D01*
X132156248Y-80938304D01*
X132128387Y-80956921D01*
X132111159Y-80960347D01*
X132103583Y-80964052D01*
X132062307Y-80970065D01*
X132037500Y-80975000D01*
X131537500Y-80975000D01*
X131512692Y-80970065D01*
X131471416Y-80964052D01*
X131463838Y-80960347D01*
X131446613Y-80956921D01*
X131418754Y-80938306D01*
X131400499Y-80929382D01*
X131390635Y-80919518D01*
X131369562Y-80905438D01*
X131355481Y-80884364D01*
X131345617Y-80874500D01*
X131336691Y-80856243D01*
X131318079Y-80828387D01*
X131314652Y-80811163D01*
X131310947Y-80803583D01*
X131304930Y-80762288D01*
X131300000Y-80737500D01*
X131300000Y-80262500D01*
X131304931Y-80237710D01*
X131310947Y-80196416D01*
X131314653Y-80188834D01*
X131318079Y-80171613D01*
X131336689Y-80143759D01*
X131345617Y-80125499D01*
X131355483Y-80115632D01*
X131369562Y-80094562D01*
X131390632Y-80080483D01*
X131400499Y-80070617D01*
X131418759Y-80061689D01*
X131446613Y-80043079D01*
X131463834Y-80039653D01*
X131471416Y-80035947D01*
X131512713Y-80029930D01*
X131537500Y-80025000D01*
X132037500Y-80025000D01*
X132062291Y-80029931D01*
G37*
G36*
X133887291Y-80029931D02*
G01*
X133928583Y-80035947D01*
X133936163Y-80039652D01*
X133953387Y-80043079D01*
X133981243Y-80061691D01*
X133999500Y-80070617D01*
X134009364Y-80080481D01*
X134030438Y-80094562D01*
X134044518Y-80115635D01*
X134054382Y-80125499D01*
X134063306Y-80143754D01*
X134081921Y-80171613D01*
X134085347Y-80188838D01*
X134089052Y-80196416D01*
X134095065Y-80237695D01*
X134100000Y-80262500D01*
X134100000Y-80737500D01*
X134095064Y-80762310D01*
X134089052Y-80803583D01*
X134085347Y-80811159D01*
X134081921Y-80828387D01*
X134063304Y-80856248D01*
X134054382Y-80874500D01*
X134044520Y-80884361D01*
X134030438Y-80905438D01*
X134009361Y-80919520D01*
X133999500Y-80929382D01*
X133981248Y-80938304D01*
X133953387Y-80956921D01*
X133936159Y-80960347D01*
X133928583Y-80964052D01*
X133887307Y-80970065D01*
X133862500Y-80975000D01*
X133362500Y-80975000D01*
X133337692Y-80970065D01*
X133296416Y-80964052D01*
X133288838Y-80960347D01*
X133271613Y-80956921D01*
X133243754Y-80938306D01*
X133225499Y-80929382D01*
X133215635Y-80919518D01*
X133194562Y-80905438D01*
X133180481Y-80884364D01*
X133170617Y-80874500D01*
X133161691Y-80856243D01*
X133143079Y-80828387D01*
X133139652Y-80811163D01*
X133135947Y-80803583D01*
X133129930Y-80762288D01*
X133125000Y-80737500D01*
X133125000Y-80262500D01*
X133129931Y-80237710D01*
X133135947Y-80196416D01*
X133139653Y-80188834D01*
X133143079Y-80171613D01*
X133161689Y-80143759D01*
X133170617Y-80125499D01*
X133180483Y-80115632D01*
X133194562Y-80094562D01*
X133215632Y-80080483D01*
X133225499Y-80070617D01*
X133243759Y-80061689D01*
X133271613Y-80043079D01*
X133288834Y-80039653D01*
X133296416Y-80035947D01*
X133337713Y-80029930D01*
X133362500Y-80025000D01*
X133862500Y-80025000D01*
X133887291Y-80029931D01*
G37*
G36*
X174945000Y-80900000D02*
G01*
X172655000Y-80900000D01*
X172655000Y-77900000D01*
X174945000Y-77900000D01*
X174945000Y-80900000D01*
G37*
G36*
X124577205Y-78545359D02*
G01*
X124754417Y-78602939D01*
X124920441Y-78687532D01*
X125071187Y-78797056D01*
X125202944Y-78928813D01*
X125312468Y-79079559D01*
X125397061Y-79245583D01*
X125454641Y-79422795D01*
X125483789Y-79606834D01*
X125483789Y-79793166D01*
X125454641Y-79977205D01*
X125397061Y-80154417D01*
X125312468Y-80320441D01*
X125202944Y-80471187D01*
X125071187Y-80602944D01*
X124920441Y-80712468D01*
X124754417Y-80797061D01*
X124577205Y-80854641D01*
X124393166Y-80883789D01*
X124206834Y-80883789D01*
X124022795Y-80854641D01*
X123845583Y-80797061D01*
X123679559Y-80712468D01*
X123528813Y-80602944D01*
X123397056Y-80471187D01*
X123287532Y-80320441D01*
X123202939Y-80154417D01*
X123145359Y-79977205D01*
X123116211Y-79793166D01*
X123116211Y-79606834D01*
X123145359Y-79422795D01*
X123202939Y-79245583D01*
X123287532Y-79079559D01*
X123397056Y-78928813D01*
X123528813Y-78797056D01*
X123679559Y-78687532D01*
X123845583Y-78602939D01*
X124022795Y-78545359D01*
X124206834Y-78516211D01*
X124393166Y-78516211D01*
X124577205Y-78545359D01*
G37*
G36*
X127752205Y-78545359D02*
G01*
X127929417Y-78602939D01*
X128095441Y-78687532D01*
X128246187Y-78797056D01*
X128377944Y-78928813D01*
X128487468Y-79079559D01*
X128572061Y-79245583D01*
X128629641Y-79422795D01*
X128658789Y-79606834D01*
X128658789Y-79793166D01*
X128629641Y-79977205D01*
X128572061Y-80154417D01*
X128487468Y-80320441D01*
X128377944Y-80471187D01*
X128246187Y-80602944D01*
X128095441Y-80712468D01*
X127929417Y-80797061D01*
X127752205Y-80854641D01*
X127568166Y-80883789D01*
X127381834Y-80883789D01*
X127197795Y-80854641D01*
X127020583Y-80797061D01*
X126854559Y-80712468D01*
X126703813Y-80602944D01*
X126572056Y-80471187D01*
X126462532Y-80320441D01*
X126377939Y-80154417D01*
X126320359Y-79977205D01*
X126291211Y-79793166D01*
X126291211Y-79606834D01*
X126320359Y-79422795D01*
X126377939Y-79245583D01*
X126462532Y-79079559D01*
X126572056Y-78928813D01*
X126703813Y-78797056D01*
X126854559Y-78687532D01*
X127020583Y-78602939D01*
X127197795Y-78545359D01*
X127381834Y-78516211D01*
X127568166Y-78516211D01*
X127752205Y-78545359D01*
G37*
G36*
X184362291Y-79929931D02*
G01*
X184403583Y-79935947D01*
X184411163Y-79939652D01*
X184428387Y-79943079D01*
X184456243Y-79961691D01*
X184474500Y-79970617D01*
X184484364Y-79980481D01*
X184505438Y-79994562D01*
X184519518Y-80015635D01*
X184529382Y-80025499D01*
X184538306Y-80043754D01*
X184556921Y-80071613D01*
X184560347Y-80088838D01*
X184564052Y-80096416D01*
X184570065Y-80137695D01*
X184575000Y-80162500D01*
X184575000Y-80637500D01*
X184570064Y-80662310D01*
X184564052Y-80703583D01*
X184560347Y-80711159D01*
X184556921Y-80728387D01*
X184538304Y-80756248D01*
X184529382Y-80774500D01*
X184519520Y-80784361D01*
X184505438Y-80805438D01*
X184484361Y-80819520D01*
X184474500Y-80829382D01*
X184456248Y-80838304D01*
X184428387Y-80856921D01*
X184411159Y-80860347D01*
X184403583Y-80864052D01*
X184362307Y-80870065D01*
X184337500Y-80875000D01*
X183737500Y-80875000D01*
X183712692Y-80870065D01*
X183671416Y-80864052D01*
X183663838Y-80860347D01*
X183646613Y-80856921D01*
X183618754Y-80838306D01*
X183600499Y-80829382D01*
X183590635Y-80819518D01*
X183569562Y-80805438D01*
X183555481Y-80784364D01*
X183545617Y-80774500D01*
X183536691Y-80756243D01*
X183518079Y-80728387D01*
X183514652Y-80711163D01*
X183510947Y-80703583D01*
X183504930Y-80662288D01*
X183500000Y-80637500D01*
X183500000Y-80162500D01*
X183504931Y-80137710D01*
X183510947Y-80096416D01*
X183514653Y-80088834D01*
X183518079Y-80071613D01*
X183536689Y-80043759D01*
X183545617Y-80025499D01*
X183555483Y-80015632D01*
X183569562Y-79994562D01*
X183590632Y-79980483D01*
X183600499Y-79970617D01*
X183618759Y-79961689D01*
X183646613Y-79943079D01*
X183663834Y-79939653D01*
X183671416Y-79935947D01*
X183712713Y-79929930D01*
X183737500Y-79925000D01*
X184337500Y-79925000D01*
X184362291Y-79929931D01*
G37*
G36*
X186087291Y-79929931D02*
G01*
X186128583Y-79935947D01*
X186136163Y-79939652D01*
X186153387Y-79943079D01*
X186181243Y-79961691D01*
X186199500Y-79970617D01*
X186209364Y-79980481D01*
X186230438Y-79994562D01*
X186244518Y-80015635D01*
X186254382Y-80025499D01*
X186263306Y-80043754D01*
X186281921Y-80071613D01*
X186285347Y-80088838D01*
X186289052Y-80096416D01*
X186295065Y-80137695D01*
X186300000Y-80162500D01*
X186300000Y-80637500D01*
X186295064Y-80662310D01*
X186289052Y-80703583D01*
X186285347Y-80711159D01*
X186281921Y-80728387D01*
X186263304Y-80756248D01*
X186254382Y-80774500D01*
X186244520Y-80784361D01*
X186230438Y-80805438D01*
X186209361Y-80819520D01*
X186199500Y-80829382D01*
X186181248Y-80838304D01*
X186153387Y-80856921D01*
X186136159Y-80860347D01*
X186128583Y-80864052D01*
X186087307Y-80870065D01*
X186062500Y-80875000D01*
X185462500Y-80875000D01*
X185437692Y-80870065D01*
X185396416Y-80864052D01*
X185388838Y-80860347D01*
X185371613Y-80856921D01*
X185343754Y-80838306D01*
X185325499Y-80829382D01*
X185315635Y-80819518D01*
X185294562Y-80805438D01*
X185280481Y-80784364D01*
X185270617Y-80774500D01*
X185261691Y-80756243D01*
X185243079Y-80728387D01*
X185239652Y-80711163D01*
X185235947Y-80703583D01*
X185229930Y-80662288D01*
X185225000Y-80637500D01*
X185225000Y-80162500D01*
X185229931Y-80137710D01*
X185235947Y-80096416D01*
X185239653Y-80088834D01*
X185243079Y-80071613D01*
X185261689Y-80043759D01*
X185270617Y-80025499D01*
X185280483Y-80015632D01*
X185294562Y-79994562D01*
X185315632Y-79980483D01*
X185325499Y-79970617D01*
X185343759Y-79961689D01*
X185371613Y-79943079D01*
X185388834Y-79939653D01*
X185396416Y-79935947D01*
X185437713Y-79929930D01*
X185462500Y-79925000D01*
X186062500Y-79925000D01*
X186087291Y-79929931D01*
G37*
G36*
X161624797Y-79379932D02*
G01*
X161669650Y-79386467D01*
X161677882Y-79390491D01*
X161695671Y-79394030D01*
X161724440Y-79413253D01*
X161744263Y-79422944D01*
X161754973Y-79433654D01*
X161776777Y-79448223D01*
X161791345Y-79470026D01*
X161802055Y-79480736D01*
X161811744Y-79500556D01*
X161830970Y-79529329D01*
X161834508Y-79547119D01*
X161838532Y-79555349D01*
X161845064Y-79600187D01*
X161850000Y-79625000D01*
X161850000Y-80575000D01*
X161845063Y-80599816D01*
X161838532Y-80644650D01*
X161834509Y-80652878D01*
X161830970Y-80670671D01*
X161811742Y-80699446D01*
X161802055Y-80719263D01*
X161791347Y-80729970D01*
X161776777Y-80751777D01*
X161754970Y-80766347D01*
X161744263Y-80777055D01*
X161724446Y-80786742D01*
X161695671Y-80805970D01*
X161677878Y-80809509D01*
X161669650Y-80813532D01*
X161624814Y-80820064D01*
X161600000Y-80825000D01*
X160925000Y-80825000D01*
X160900186Y-80820064D01*
X160855349Y-80813532D01*
X160847119Y-80809508D01*
X160829329Y-80805970D01*
X160800556Y-80786744D01*
X160780736Y-80777055D01*
X160770026Y-80766345D01*
X160748223Y-80751777D01*
X160733654Y-80729973D01*
X160722944Y-80719263D01*
X160713253Y-80699440D01*
X160694030Y-80670671D01*
X160690491Y-80652882D01*
X160686467Y-80644650D01*
X160679932Y-80599796D01*
X160675000Y-80575000D01*
X160675000Y-79625000D01*
X160679931Y-79600205D01*
X160686467Y-79555349D01*
X160690491Y-79547115D01*
X160694030Y-79529329D01*
X160713251Y-79500561D01*
X160722944Y-79480736D01*
X160733656Y-79470023D01*
X160748223Y-79448223D01*
X160770023Y-79433656D01*
X160780736Y-79422944D01*
X160800561Y-79413251D01*
X160829329Y-79394030D01*
X160847115Y-79390491D01*
X160855349Y-79386467D01*
X160900206Y-79379931D01*
X160925000Y-79375000D01*
X161600000Y-79375000D01*
X161624797Y-79379932D01*
G37*
G36*
X163699797Y-79379932D02*
G01*
X163744650Y-79386467D01*
X163752882Y-79390491D01*
X163770671Y-79394030D01*
X163799440Y-79413253D01*
X163819263Y-79422944D01*
X163829973Y-79433654D01*
X163851777Y-79448223D01*
X163866345Y-79470026D01*
X163877055Y-79480736D01*
X163886744Y-79500556D01*
X163905970Y-79529329D01*
X163909508Y-79547119D01*
X163913532Y-79555349D01*
X163920064Y-79600187D01*
X163925000Y-79625000D01*
X163925000Y-80575000D01*
X163920063Y-80599816D01*
X163913532Y-80644650D01*
X163909509Y-80652878D01*
X163905970Y-80670671D01*
X163886742Y-80699446D01*
X163877055Y-80719263D01*
X163866347Y-80729970D01*
X163851777Y-80751777D01*
X163829970Y-80766347D01*
X163819263Y-80777055D01*
X163799446Y-80786742D01*
X163770671Y-80805970D01*
X163752878Y-80809509D01*
X163744650Y-80813532D01*
X163699814Y-80820064D01*
X163675000Y-80825000D01*
X163000000Y-80825000D01*
X162975186Y-80820064D01*
X162930349Y-80813532D01*
X162922119Y-80809508D01*
X162904329Y-80805970D01*
X162875556Y-80786744D01*
X162855736Y-80777055D01*
X162845026Y-80766345D01*
X162823223Y-80751777D01*
X162808654Y-80729973D01*
X162797944Y-80719263D01*
X162788253Y-80699440D01*
X162769030Y-80670671D01*
X162765491Y-80652882D01*
X162761467Y-80644650D01*
X162754932Y-80599796D01*
X162750000Y-80575000D01*
X162750000Y-79625000D01*
X162754931Y-79600205D01*
X162761467Y-79555349D01*
X162765491Y-79547115D01*
X162769030Y-79529329D01*
X162788251Y-79500561D01*
X162797944Y-79480736D01*
X162808656Y-79470023D01*
X162823223Y-79448223D01*
X162845023Y-79433656D01*
X162855736Y-79422944D01*
X162875561Y-79413251D01*
X162904329Y-79394030D01*
X162922115Y-79390491D01*
X162930349Y-79386467D01*
X162975206Y-79379931D01*
X163000000Y-79375000D01*
X163675000Y-79375000D01*
X163699797Y-79379932D01*
G37*
G36*
X180062291Y-79729931D02*
G01*
X180103583Y-79735947D01*
X180111163Y-79739652D01*
X180128387Y-79743079D01*
X180156243Y-79761691D01*
X180174500Y-79770617D01*
X180184364Y-79780481D01*
X180205438Y-79794562D01*
X180219518Y-79815635D01*
X180229382Y-79825499D01*
X180238306Y-79843754D01*
X180256921Y-79871613D01*
X180260347Y-79888838D01*
X180264052Y-79896416D01*
X180270065Y-79937695D01*
X180275000Y-79962500D01*
X180275000Y-80437500D01*
X180270064Y-80462310D01*
X180264052Y-80503583D01*
X180260347Y-80511159D01*
X180256921Y-80528387D01*
X180238304Y-80556248D01*
X180229382Y-80574500D01*
X180219520Y-80584361D01*
X180205438Y-80605438D01*
X180184361Y-80619520D01*
X180174500Y-80629382D01*
X180156248Y-80638304D01*
X180128387Y-80656921D01*
X180111159Y-80660347D01*
X180103583Y-80664052D01*
X180062307Y-80670065D01*
X180037500Y-80675000D01*
X179537500Y-80675000D01*
X179512692Y-80670065D01*
X179471416Y-80664052D01*
X179463838Y-80660347D01*
X179446613Y-80656921D01*
X179418754Y-80638306D01*
X179400499Y-80629382D01*
X179390635Y-80619518D01*
X179369562Y-80605438D01*
X179355481Y-80584364D01*
X179345617Y-80574500D01*
X179336691Y-80556243D01*
X179318079Y-80528387D01*
X179314652Y-80511163D01*
X179310947Y-80503583D01*
X179304930Y-80462288D01*
X179300000Y-80437500D01*
X179300000Y-79962500D01*
X179304931Y-79937710D01*
X179310947Y-79896416D01*
X179314653Y-79888834D01*
X179318079Y-79871613D01*
X179336689Y-79843759D01*
X179345617Y-79825499D01*
X179355483Y-79815632D01*
X179369562Y-79794562D01*
X179390632Y-79780483D01*
X179400499Y-79770617D01*
X179418759Y-79761689D01*
X179446613Y-79743079D01*
X179463834Y-79739653D01*
X179471416Y-79735947D01*
X179512713Y-79729930D01*
X179537500Y-79725000D01*
X180037500Y-79725000D01*
X180062291Y-79729931D01*
G37*
G36*
X181887291Y-79729931D02*
G01*
X181928583Y-79735947D01*
X181936163Y-79739652D01*
X181953387Y-79743079D01*
X181981243Y-79761691D01*
X181999500Y-79770617D01*
X182009364Y-79780481D01*
X182030438Y-79794562D01*
X182044518Y-79815635D01*
X182054382Y-79825499D01*
X182063306Y-79843754D01*
X182081921Y-79871613D01*
X182085347Y-79888838D01*
X182089052Y-79896416D01*
X182095065Y-79937695D01*
X182100000Y-79962500D01*
X182100000Y-80437500D01*
X182095064Y-80462310D01*
X182089052Y-80503583D01*
X182085347Y-80511159D01*
X182081921Y-80528387D01*
X182063304Y-80556248D01*
X182054382Y-80574500D01*
X182044520Y-80584361D01*
X182030438Y-80605438D01*
X182009361Y-80619520D01*
X181999500Y-80629382D01*
X181981248Y-80638304D01*
X181953387Y-80656921D01*
X181936159Y-80660347D01*
X181928583Y-80664052D01*
X181887307Y-80670065D01*
X181862500Y-80675000D01*
X181362500Y-80675000D01*
X181337692Y-80670065D01*
X181296416Y-80664052D01*
X181288838Y-80660347D01*
X181271613Y-80656921D01*
X181243754Y-80638306D01*
X181225499Y-80629382D01*
X181215635Y-80619518D01*
X181194562Y-80605438D01*
X181180481Y-80584364D01*
X181170617Y-80574500D01*
X181161691Y-80556243D01*
X181143079Y-80528387D01*
X181139652Y-80511163D01*
X181135947Y-80503583D01*
X181129930Y-80462288D01*
X181125000Y-80437500D01*
X181125000Y-79962500D01*
X181129931Y-79937710D01*
X181135947Y-79896416D01*
X181139653Y-79888834D01*
X181143079Y-79871613D01*
X181161689Y-79843759D01*
X181170617Y-79825499D01*
X181180483Y-79815632D01*
X181194562Y-79794562D01*
X181215632Y-79780483D01*
X181225499Y-79770617D01*
X181243759Y-79761689D01*
X181271613Y-79743079D01*
X181288834Y-79739653D01*
X181296416Y-79735947D01*
X181337713Y-79729930D01*
X181362500Y-79725000D01*
X181862500Y-79725000D01*
X181887291Y-79729931D01*
G37*
G36*
X189708315Y-78854093D02*
G01*
X189871742Y-78886601D01*
X190025687Y-78950367D01*
X190164234Y-79042941D01*
X190282059Y-79160766D01*
X190374633Y-79299313D01*
X190438399Y-79453258D01*
X190470907Y-79616685D01*
X190470907Y-79783315D01*
X190438399Y-79946742D01*
X190374633Y-80100687D01*
X190282059Y-80239234D01*
X190164234Y-80357059D01*
X190025687Y-80449633D01*
X189871742Y-80513399D01*
X189708315Y-80545907D01*
X189625000Y-80550000D01*
X189621940Y-80550000D01*
X189378060Y-80550000D01*
X189375000Y-80550000D01*
X189291685Y-80545907D01*
X189128258Y-80513399D01*
X188974313Y-80449633D01*
X188835766Y-80357059D01*
X188717941Y-80239234D01*
X188625367Y-80100687D01*
X188561601Y-79946742D01*
X188529093Y-79783315D01*
X188529093Y-79616685D01*
X188561601Y-79453258D01*
X188625367Y-79299313D01*
X188717941Y-79160766D01*
X188835766Y-79042941D01*
X188974313Y-78950367D01*
X189128258Y-78886601D01*
X189291685Y-78854093D01*
X189375000Y-78850000D01*
X189625000Y-78850000D01*
X189708315Y-78854093D01*
G37*
G36*
X172207403Y-79746418D02*
G01*
X172256066Y-79778934D01*
X172288582Y-79827597D01*
X172300000Y-79885000D01*
X172300000Y-80185000D01*
X172288582Y-80242403D01*
X172256066Y-80291066D01*
X172207403Y-80323582D01*
X172150000Y-80335000D01*
X170500000Y-80335000D01*
X170442597Y-80323582D01*
X170393934Y-80291066D01*
X170361418Y-80242403D01*
X170350000Y-80185000D01*
X170350000Y-79885000D01*
X170361418Y-79827597D01*
X170393934Y-79778934D01*
X170442597Y-79746418D01*
X170500000Y-79735000D01*
X172150000Y-79735000D01*
X172207403Y-79746418D01*
G37*
G36*
X177157403Y-79746418D02*
G01*
X177206066Y-79778934D01*
X177238582Y-79827597D01*
X177250000Y-79885000D01*
X177250000Y-80185000D01*
X177238582Y-80242403D01*
X177206066Y-80291066D01*
X177157403Y-80323582D01*
X177100000Y-80335000D01*
X175450000Y-80335000D01*
X175392597Y-80323582D01*
X175343934Y-80291066D01*
X175311418Y-80242403D01*
X175300000Y-80185000D01*
X175300000Y-79885000D01*
X175311418Y-79827597D01*
X175343934Y-79778934D01*
X175392597Y-79746418D01*
X175450000Y-79735000D01*
X177100000Y-79735000D01*
X177157403Y-79746418D01*
G37*
G36*
X136400000Y-80310000D02*
G01*
X134900000Y-80310000D01*
X134900000Y-79410000D01*
X136400000Y-79410000D01*
X136400000Y-80310000D01*
G37*
G36*
X153900000Y-80310000D02*
G01*
X152400000Y-80310000D01*
X152400000Y-79410000D01*
X153900000Y-79410000D01*
X153900000Y-80310000D01*
G37*
G36*
X169462291Y-79029931D02*
G01*
X169503583Y-79035947D01*
X169511163Y-79039652D01*
X169528387Y-79043079D01*
X169556243Y-79061691D01*
X169574500Y-79070617D01*
X169584364Y-79080481D01*
X169605438Y-79094562D01*
X169619518Y-79115635D01*
X169629382Y-79125499D01*
X169638306Y-79143754D01*
X169656921Y-79171613D01*
X169660347Y-79188838D01*
X169664052Y-79196416D01*
X169670065Y-79237695D01*
X169675000Y-79262500D01*
X169675000Y-79762500D01*
X169670064Y-79787310D01*
X169664052Y-79828583D01*
X169660347Y-79836159D01*
X169656921Y-79853387D01*
X169638304Y-79881248D01*
X169629382Y-79899500D01*
X169619520Y-79909361D01*
X169605438Y-79930438D01*
X169584361Y-79944520D01*
X169574500Y-79954382D01*
X169556248Y-79963304D01*
X169528387Y-79981921D01*
X169511159Y-79985347D01*
X169503583Y-79989052D01*
X169462307Y-79995065D01*
X169437500Y-80000000D01*
X168962500Y-80000000D01*
X168937692Y-79995065D01*
X168896416Y-79989052D01*
X168888838Y-79985347D01*
X168871613Y-79981921D01*
X168843754Y-79963306D01*
X168825499Y-79954382D01*
X168815635Y-79944518D01*
X168794562Y-79930438D01*
X168780481Y-79909364D01*
X168770617Y-79899500D01*
X168761691Y-79881243D01*
X168743079Y-79853387D01*
X168739652Y-79836163D01*
X168735947Y-79828583D01*
X168729930Y-79787288D01*
X168725000Y-79762500D01*
X168725000Y-79262500D01*
X168729931Y-79237710D01*
X168735947Y-79196416D01*
X168739653Y-79188834D01*
X168743079Y-79171613D01*
X168761689Y-79143759D01*
X168770617Y-79125499D01*
X168780483Y-79115632D01*
X168794562Y-79094562D01*
X168815632Y-79080483D01*
X168825499Y-79070617D01*
X168843759Y-79061689D01*
X168871613Y-79043079D01*
X168888834Y-79039653D01*
X168896416Y-79035947D01*
X168937713Y-79029930D01*
X168962500Y-79025000D01*
X169437500Y-79025000D01*
X169462291Y-79029931D01*
G37*
G36*
X132162291Y-78529931D02*
G01*
X132203583Y-78535947D01*
X132211163Y-78539652D01*
X132228387Y-78543079D01*
X132256243Y-78561691D01*
X132274500Y-78570617D01*
X132284364Y-78580481D01*
X132305438Y-78594562D01*
X132319518Y-78615635D01*
X132329382Y-78625499D01*
X132338306Y-78643754D01*
X132356921Y-78671613D01*
X132360347Y-78688838D01*
X132364052Y-78696416D01*
X132370065Y-78737695D01*
X132375000Y-78762500D01*
X132375000Y-79237500D01*
X132370064Y-79262310D01*
X132364052Y-79303583D01*
X132360347Y-79311159D01*
X132356921Y-79328387D01*
X132338304Y-79356248D01*
X132329382Y-79374500D01*
X132319520Y-79384361D01*
X132305438Y-79405438D01*
X132284361Y-79419520D01*
X132274500Y-79429382D01*
X132256248Y-79438304D01*
X132228387Y-79456921D01*
X132211159Y-79460347D01*
X132203583Y-79464052D01*
X132162307Y-79470065D01*
X132137500Y-79475000D01*
X131537500Y-79475000D01*
X131512692Y-79470065D01*
X131471416Y-79464052D01*
X131463838Y-79460347D01*
X131446613Y-79456921D01*
X131418754Y-79438306D01*
X131400499Y-79429382D01*
X131390635Y-79419518D01*
X131369562Y-79405438D01*
X131355481Y-79384364D01*
X131345617Y-79374500D01*
X131336691Y-79356243D01*
X131318079Y-79328387D01*
X131314652Y-79311163D01*
X131310947Y-79303583D01*
X131304930Y-79262288D01*
X131300000Y-79237500D01*
X131300000Y-78762500D01*
X131304931Y-78737710D01*
X131310947Y-78696416D01*
X131314653Y-78688834D01*
X131318079Y-78671613D01*
X131336689Y-78643759D01*
X131345617Y-78625499D01*
X131355483Y-78615632D01*
X131369562Y-78594562D01*
X131390632Y-78580483D01*
X131400499Y-78570617D01*
X131418759Y-78561689D01*
X131446613Y-78543079D01*
X131463834Y-78539653D01*
X131471416Y-78535947D01*
X131512713Y-78529930D01*
X131537500Y-78525000D01*
X132137500Y-78525000D01*
X132162291Y-78529931D01*
G37*
G36*
X133887291Y-78529931D02*
G01*
X133928583Y-78535947D01*
X133936163Y-78539652D01*
X133953387Y-78543079D01*
X133981243Y-78561691D01*
X133999500Y-78570617D01*
X134009364Y-78580481D01*
X134030438Y-78594562D01*
X134044518Y-78615635D01*
X134054382Y-78625499D01*
X134063306Y-78643754D01*
X134081921Y-78671613D01*
X134085347Y-78688838D01*
X134089052Y-78696416D01*
X134095065Y-78737695D01*
X134100000Y-78762500D01*
X134100000Y-79237500D01*
X134095064Y-79262310D01*
X134089052Y-79303583D01*
X134085347Y-79311159D01*
X134081921Y-79328387D01*
X134063304Y-79356248D01*
X134054382Y-79374500D01*
X134044520Y-79384361D01*
X134030438Y-79405438D01*
X134009361Y-79419520D01*
X133999500Y-79429382D01*
X133981248Y-79438304D01*
X133953387Y-79456921D01*
X133936159Y-79460347D01*
X133928583Y-79464052D01*
X133887307Y-79470065D01*
X133862500Y-79475000D01*
X133262500Y-79475000D01*
X133237692Y-79470065D01*
X133196416Y-79464052D01*
X133188838Y-79460347D01*
X133171613Y-79456921D01*
X133143754Y-79438306D01*
X133125499Y-79429382D01*
X133115635Y-79419518D01*
X133094562Y-79405438D01*
X133080481Y-79384364D01*
X133070617Y-79374500D01*
X133061691Y-79356243D01*
X133043079Y-79328387D01*
X133039652Y-79311163D01*
X133035947Y-79303583D01*
X133029930Y-79262288D01*
X133025000Y-79237500D01*
X133025000Y-78762500D01*
X133029931Y-78737710D01*
X133035947Y-78696416D01*
X133039653Y-78688834D01*
X133043079Y-78671613D01*
X133061689Y-78643759D01*
X133070617Y-78625499D01*
X133080483Y-78615632D01*
X133094562Y-78594562D01*
X133115632Y-78580483D01*
X133125499Y-78570617D01*
X133143759Y-78561689D01*
X133171613Y-78543079D01*
X133188834Y-78539653D01*
X133196416Y-78535947D01*
X133237713Y-78529930D01*
X133262500Y-78525000D01*
X133862500Y-78525000D01*
X133887291Y-78529931D01*
G37*
G36*
X180062291Y-78229931D02*
G01*
X180103583Y-78235947D01*
X180111163Y-78239652D01*
X180128387Y-78243079D01*
X180156243Y-78261691D01*
X180174500Y-78270617D01*
X180184364Y-78280481D01*
X180205438Y-78294562D01*
X180219518Y-78315635D01*
X180229382Y-78325499D01*
X180238306Y-78343754D01*
X180256921Y-78371613D01*
X180260347Y-78388838D01*
X180264052Y-78396416D01*
X180270065Y-78437695D01*
X180275000Y-78462500D01*
X180275000Y-78937500D01*
X180270064Y-78962310D01*
X180264052Y-79003583D01*
X180260347Y-79011159D01*
X180256921Y-79028387D01*
X180238304Y-79056248D01*
X180229382Y-79074500D01*
X180219520Y-79084361D01*
X180205438Y-79105438D01*
X180184361Y-79119520D01*
X180174500Y-79129382D01*
X180156248Y-79138304D01*
X180128387Y-79156921D01*
X180111159Y-79160347D01*
X180103583Y-79164052D01*
X180062307Y-79170065D01*
X180037500Y-79175000D01*
X179537500Y-79175000D01*
X179512692Y-79170065D01*
X179471416Y-79164052D01*
X179463838Y-79160347D01*
X179446613Y-79156921D01*
X179418754Y-79138306D01*
X179400499Y-79129382D01*
X179390635Y-79119518D01*
X179369562Y-79105438D01*
X179355481Y-79084364D01*
X179345617Y-79074500D01*
X179336691Y-79056243D01*
X179318079Y-79028387D01*
X179314652Y-79011163D01*
X179310947Y-79003583D01*
X179304930Y-78962288D01*
X179300000Y-78937500D01*
X179300000Y-78462500D01*
X179304931Y-78437710D01*
X179310947Y-78396416D01*
X179314653Y-78388834D01*
X179318079Y-78371613D01*
X179336689Y-78343759D01*
X179345617Y-78325499D01*
X179355483Y-78315632D01*
X179369562Y-78294562D01*
X179390632Y-78280483D01*
X179400499Y-78270617D01*
X179418759Y-78261689D01*
X179446613Y-78243079D01*
X179463834Y-78239653D01*
X179471416Y-78235947D01*
X179512713Y-78229930D01*
X179537500Y-78225000D01*
X180037500Y-78225000D01*
X180062291Y-78229931D01*
G37*
G36*
X181887291Y-78229931D02*
G01*
X181928583Y-78235947D01*
X181936163Y-78239652D01*
X181953387Y-78243079D01*
X181981243Y-78261691D01*
X181999500Y-78270617D01*
X182009364Y-78280481D01*
X182030438Y-78294562D01*
X182044518Y-78315635D01*
X182054382Y-78325499D01*
X182063306Y-78343754D01*
X182081921Y-78371613D01*
X182085347Y-78388838D01*
X182089052Y-78396416D01*
X182095065Y-78437695D01*
X182100000Y-78462500D01*
X182100000Y-78937500D01*
X182095064Y-78962310D01*
X182089052Y-79003583D01*
X182085347Y-79011159D01*
X182081921Y-79028387D01*
X182063304Y-79056248D01*
X182054382Y-79074500D01*
X182044520Y-79084361D01*
X182030438Y-79105438D01*
X182009361Y-79119520D01*
X181999500Y-79129382D01*
X181981248Y-79138304D01*
X181953387Y-79156921D01*
X181936159Y-79160347D01*
X181928583Y-79164052D01*
X181887307Y-79170065D01*
X181862500Y-79175000D01*
X181362500Y-79175000D01*
X181337692Y-79170065D01*
X181296416Y-79164052D01*
X181288838Y-79160347D01*
X181271613Y-79156921D01*
X181243754Y-79138306D01*
X181225499Y-79129382D01*
X181215635Y-79119518D01*
X181194562Y-79105438D01*
X181180481Y-79084364D01*
X181170617Y-79074500D01*
X181161691Y-79056243D01*
X181143079Y-79028387D01*
X181139652Y-79011163D01*
X181135947Y-79003583D01*
X181129930Y-78962288D01*
X181125000Y-78937500D01*
X181125000Y-78462500D01*
X181129931Y-78437710D01*
X181135947Y-78396416D01*
X181139653Y-78388834D01*
X181143079Y-78371613D01*
X181161689Y-78343759D01*
X181170617Y-78325499D01*
X181180483Y-78315632D01*
X181194562Y-78294562D01*
X181215632Y-78280483D01*
X181225499Y-78270617D01*
X181243759Y-78261689D01*
X181271613Y-78243079D01*
X181288834Y-78239653D01*
X181296416Y-78235947D01*
X181337713Y-78229930D01*
X181362500Y-78225000D01*
X181862500Y-78225000D01*
X181887291Y-78229931D01*
G37*
G36*
X172207403Y-78476418D02*
G01*
X172256066Y-78508934D01*
X172288582Y-78557597D01*
X172300000Y-78615000D01*
X172300000Y-78915000D01*
X172288582Y-78972403D01*
X172256066Y-79021066D01*
X172207403Y-79053582D01*
X172150000Y-79065000D01*
X170500000Y-79065000D01*
X170442597Y-79053582D01*
X170393934Y-79021066D01*
X170361418Y-78972403D01*
X170350000Y-78915000D01*
X170350000Y-78615000D01*
X170361418Y-78557597D01*
X170393934Y-78508934D01*
X170442597Y-78476418D01*
X170500000Y-78465000D01*
X172150000Y-78465000D01*
X172207403Y-78476418D01*
G37*
G36*
X177157403Y-78476418D02*
G01*
X177206066Y-78508934D01*
X177238582Y-78557597D01*
X177250000Y-78615000D01*
X177250000Y-78915000D01*
X177238582Y-78972403D01*
X177206066Y-79021066D01*
X177157403Y-79053582D01*
X177100000Y-79065000D01*
X175450000Y-79065000D01*
X175392597Y-79053582D01*
X175343934Y-79021066D01*
X175311418Y-78972403D01*
X175300000Y-78915000D01*
X175300000Y-78615000D01*
X175311418Y-78557597D01*
X175343934Y-78508934D01*
X175392597Y-78476418D01*
X175450000Y-78465000D01*
X177100000Y-78465000D01*
X177157403Y-78476418D01*
G37*
G36*
X136400000Y-79040000D02*
G01*
X134900000Y-79040000D01*
X134900000Y-78140000D01*
X136400000Y-78140000D01*
X136400000Y-79040000D01*
G37*
G36*
X153900000Y-79040000D02*
G01*
X152400000Y-79040000D01*
X152400000Y-78140000D01*
X153900000Y-78140000D01*
X153900000Y-79040000D01*
G37*
G36*
X156962291Y-77729931D02*
G01*
X157003583Y-77735947D01*
X157011163Y-77739652D01*
X157028387Y-77743079D01*
X157056243Y-77761691D01*
X157074500Y-77770617D01*
X157084364Y-77780481D01*
X157105438Y-77794562D01*
X157119518Y-77815635D01*
X157129382Y-77825499D01*
X157138306Y-77843754D01*
X157156921Y-77871613D01*
X157160347Y-77888838D01*
X157164052Y-77896416D01*
X157170065Y-77937695D01*
X157175000Y-77962500D01*
X157175000Y-78462500D01*
X157170064Y-78487310D01*
X157164052Y-78528583D01*
X157160347Y-78536159D01*
X157156921Y-78553387D01*
X157138304Y-78581248D01*
X157129382Y-78599500D01*
X157119520Y-78609361D01*
X157105438Y-78630438D01*
X157084361Y-78644520D01*
X157074500Y-78654382D01*
X157056248Y-78663304D01*
X157028387Y-78681921D01*
X157011159Y-78685347D01*
X157003583Y-78689052D01*
X156962307Y-78695065D01*
X156937500Y-78700000D01*
X156462500Y-78700000D01*
X156437692Y-78695065D01*
X156396416Y-78689052D01*
X156388838Y-78685347D01*
X156371613Y-78681921D01*
X156343754Y-78663306D01*
X156325499Y-78654382D01*
X156315635Y-78644518D01*
X156294562Y-78630438D01*
X156280481Y-78609364D01*
X156270617Y-78599500D01*
X156261691Y-78581243D01*
X156243079Y-78553387D01*
X156239652Y-78536163D01*
X156235947Y-78528583D01*
X156229930Y-78487288D01*
X156225000Y-78462500D01*
X156225000Y-77962500D01*
X156229931Y-77937710D01*
X156235947Y-77896416D01*
X156239653Y-77888834D01*
X156243079Y-77871613D01*
X156261689Y-77843759D01*
X156270617Y-77825499D01*
X156280483Y-77815632D01*
X156294562Y-77794562D01*
X156315632Y-77780483D01*
X156325499Y-77770617D01*
X156343759Y-77761689D01*
X156371613Y-77743079D01*
X156388834Y-77739653D01*
X156396416Y-77735947D01*
X156437713Y-77729930D01*
X156462500Y-77725000D01*
X156937500Y-77725000D01*
X156962291Y-77729931D01*
G37*
G36*
X158761418Y-78279758D02*
G01*
X158781694Y-78293306D01*
X158795242Y-78313582D01*
X158800000Y-78337500D01*
X158800000Y-78462500D01*
X158795242Y-78486418D01*
X158781694Y-78506694D01*
X158761418Y-78520242D01*
X158737500Y-78525000D01*
X158037500Y-78525000D01*
X158013582Y-78520242D01*
X157993306Y-78506694D01*
X157979758Y-78486418D01*
X157975000Y-78462500D01*
X157975000Y-78337500D01*
X157979758Y-78313582D01*
X157993306Y-78293306D01*
X158013582Y-78279758D01*
X158037500Y-78275000D01*
X158737500Y-78275000D01*
X158761418Y-78279758D01*
G37*
G36*
X161186418Y-78279758D02*
G01*
X161206694Y-78293306D01*
X161220242Y-78313582D01*
X161225000Y-78337500D01*
X161225000Y-78462500D01*
X161220242Y-78486418D01*
X161206694Y-78506694D01*
X161186418Y-78520242D01*
X161162500Y-78525000D01*
X160462500Y-78525000D01*
X160438582Y-78520242D01*
X160418306Y-78506694D01*
X160404758Y-78486418D01*
X160400000Y-78462500D01*
X160400000Y-78337500D01*
X160404758Y-78313582D01*
X160418306Y-78293306D01*
X160438582Y-78279758D01*
X160462500Y-78275000D01*
X161162500Y-78275000D01*
X161186418Y-78279758D01*
G37*
G36*
X163815119Y-77860467D02*
G01*
X163859727Y-77890273D01*
X163889533Y-77934881D01*
X163900000Y-77987500D01*
X163900000Y-78262500D01*
X163889533Y-78315119D01*
X163859727Y-78359727D01*
X163815119Y-78389533D01*
X163762500Y-78400000D01*
X162437500Y-78400000D01*
X162384881Y-78389533D01*
X162340273Y-78359727D01*
X162310467Y-78315119D01*
X162300000Y-78262500D01*
X162300000Y-77987500D01*
X162310467Y-77934881D01*
X162340273Y-77890273D01*
X162384881Y-77860467D01*
X162437500Y-77850000D01*
X163762500Y-77850000D01*
X163815119Y-77860467D01*
G37*
G36*
X160150000Y-78350000D02*
G01*
X159050000Y-78350000D01*
X159050000Y-76450000D01*
X160150000Y-76450000D01*
X160150000Y-78350000D01*
G37*
G36*
X169462291Y-77204931D02*
G01*
X169503583Y-77210947D01*
X169511163Y-77214652D01*
X169528387Y-77218079D01*
X169556243Y-77236691D01*
X169574500Y-77245617D01*
X169584364Y-77255481D01*
X169605438Y-77269562D01*
X169619518Y-77290635D01*
X169629382Y-77300499D01*
X169638306Y-77318754D01*
X169656921Y-77346613D01*
X169660347Y-77363838D01*
X169664052Y-77371416D01*
X169670065Y-77412695D01*
X169675000Y-77437500D01*
X169675000Y-77937500D01*
X169670064Y-77962310D01*
X169664052Y-78003583D01*
X169660347Y-78011159D01*
X169656921Y-78028387D01*
X169638304Y-78056248D01*
X169629382Y-78074500D01*
X169619520Y-78084361D01*
X169605438Y-78105438D01*
X169584361Y-78119520D01*
X169574500Y-78129382D01*
X169556248Y-78138304D01*
X169528387Y-78156921D01*
X169511159Y-78160347D01*
X169503583Y-78164052D01*
X169462307Y-78170065D01*
X169437500Y-78175000D01*
X168962500Y-78175000D01*
X168937692Y-78170065D01*
X168896416Y-78164052D01*
X168888838Y-78160347D01*
X168871613Y-78156921D01*
X168843754Y-78138306D01*
X168825499Y-78129382D01*
X168815635Y-78119518D01*
X168794562Y-78105438D01*
X168780481Y-78084364D01*
X168770617Y-78074500D01*
X168761691Y-78056243D01*
X168743079Y-78028387D01*
X168739652Y-78011163D01*
X168735947Y-78003583D01*
X168729930Y-77962288D01*
X168725000Y-77937500D01*
X168725000Y-77437500D01*
X168729931Y-77412710D01*
X168735947Y-77371416D01*
X168739653Y-77363834D01*
X168743079Y-77346613D01*
X168761689Y-77318759D01*
X168770617Y-77300499D01*
X168780483Y-77290632D01*
X168794562Y-77269562D01*
X168815632Y-77255483D01*
X168825499Y-77245617D01*
X168843759Y-77236689D01*
X168871613Y-77218079D01*
X168888834Y-77214653D01*
X168896416Y-77210947D01*
X168937713Y-77204930D01*
X168962500Y-77200000D01*
X169437500Y-77200000D01*
X169462291Y-77204931D01*
G37*
G36*
X158761418Y-77779758D02*
G01*
X158781694Y-77793306D01*
X158795242Y-77813582D01*
X158800000Y-77837500D01*
X158800000Y-77962500D01*
X158795242Y-77986418D01*
X158781694Y-78006694D01*
X158761418Y-78020242D01*
X158737500Y-78025000D01*
X158037500Y-78025000D01*
X158013582Y-78020242D01*
X157993306Y-78006694D01*
X157979758Y-77986418D01*
X157975000Y-77962500D01*
X157975000Y-77837500D01*
X157979758Y-77813582D01*
X157993306Y-77793306D01*
X158013582Y-77779758D01*
X158037500Y-77775000D01*
X158737500Y-77775000D01*
X158761418Y-77779758D01*
G37*
G36*
X161186418Y-77779758D02*
G01*
X161206694Y-77793306D01*
X161220242Y-77813582D01*
X161225000Y-77837500D01*
X161225000Y-77962500D01*
X161220242Y-77986418D01*
X161206694Y-78006694D01*
X161186418Y-78020242D01*
X161162500Y-78025000D01*
X160462500Y-78025000D01*
X160438582Y-78020242D01*
X160418306Y-78006694D01*
X160404758Y-77986418D01*
X160400000Y-77962500D01*
X160400000Y-77837500D01*
X160404758Y-77813582D01*
X160418306Y-77793306D01*
X160438582Y-77779758D01*
X160462500Y-77775000D01*
X161162500Y-77775000D01*
X161186418Y-77779758D01*
G37*
G36*
X132162291Y-77029931D02*
G01*
X132203583Y-77035947D01*
X132211163Y-77039652D01*
X132228387Y-77043079D01*
X132256243Y-77061691D01*
X132274500Y-77070617D01*
X132284364Y-77080481D01*
X132305438Y-77094562D01*
X132319518Y-77115635D01*
X132329382Y-77125499D01*
X132338306Y-77143754D01*
X132356921Y-77171613D01*
X132360347Y-77188838D01*
X132364052Y-77196416D01*
X132370065Y-77237695D01*
X132375000Y-77262500D01*
X132375000Y-77737500D01*
X132370064Y-77762310D01*
X132364052Y-77803583D01*
X132360347Y-77811159D01*
X132356921Y-77828387D01*
X132338304Y-77856248D01*
X132329382Y-77874500D01*
X132319520Y-77884361D01*
X132305438Y-77905438D01*
X132284361Y-77919520D01*
X132274500Y-77929382D01*
X132256248Y-77938304D01*
X132228387Y-77956921D01*
X132211159Y-77960347D01*
X132203583Y-77964052D01*
X132162307Y-77970065D01*
X132137500Y-77975000D01*
X131537500Y-77975000D01*
X131512692Y-77970065D01*
X131471416Y-77964052D01*
X131463838Y-77960347D01*
X131446613Y-77956921D01*
X131418754Y-77938306D01*
X131400499Y-77929382D01*
X131390635Y-77919518D01*
X131369562Y-77905438D01*
X131355481Y-77884364D01*
X131345617Y-77874500D01*
X131336691Y-77856243D01*
X131318079Y-77828387D01*
X131314652Y-77811163D01*
X131310947Y-77803583D01*
X131304930Y-77762288D01*
X131300000Y-77737500D01*
X131300000Y-77262500D01*
X131304931Y-77237710D01*
X131310947Y-77196416D01*
X131314653Y-77188834D01*
X131318079Y-77171613D01*
X131336689Y-77143759D01*
X131345617Y-77125499D01*
X131355483Y-77115632D01*
X131369562Y-77094562D01*
X131390632Y-77080483D01*
X131400499Y-77070617D01*
X131418759Y-77061689D01*
X131446613Y-77043079D01*
X131463834Y-77039653D01*
X131471416Y-77035947D01*
X131512713Y-77029930D01*
X131537500Y-77025000D01*
X132137500Y-77025000D01*
X132162291Y-77029931D01*
G37*
G36*
X133887291Y-77029931D02*
G01*
X133928583Y-77035947D01*
X133936163Y-77039652D01*
X133953387Y-77043079D01*
X133981243Y-77061691D01*
X133999500Y-77070617D01*
X134009364Y-77080481D01*
X134030438Y-77094562D01*
X134044518Y-77115635D01*
X134054382Y-77125499D01*
X134063306Y-77143754D01*
X134081921Y-77171613D01*
X134085347Y-77188838D01*
X134089052Y-77196416D01*
X134095065Y-77237695D01*
X134100000Y-77262500D01*
X134100000Y-77737500D01*
X134095064Y-77762310D01*
X134089052Y-77803583D01*
X134085347Y-77811159D01*
X134081921Y-77828387D01*
X134063304Y-77856248D01*
X134054382Y-77874500D01*
X134044520Y-77884361D01*
X134030438Y-77905438D01*
X134009361Y-77919520D01*
X133999500Y-77929382D01*
X133981248Y-77938304D01*
X133953387Y-77956921D01*
X133936159Y-77960347D01*
X133928583Y-77964052D01*
X133887307Y-77970065D01*
X133862500Y-77975000D01*
X133262500Y-77975000D01*
X133237692Y-77970065D01*
X133196416Y-77964052D01*
X133188838Y-77960347D01*
X133171613Y-77956921D01*
X133143754Y-77938306D01*
X133125499Y-77929382D01*
X133115635Y-77919518D01*
X133094562Y-77905438D01*
X133080481Y-77884364D01*
X133070617Y-77874500D01*
X133061691Y-77856243D01*
X133043079Y-77828387D01*
X133039652Y-77811163D01*
X133035947Y-77803583D01*
X133029930Y-77762288D01*
X133025000Y-77737500D01*
X133025000Y-77262500D01*
X133029931Y-77237710D01*
X133035947Y-77196416D01*
X133039653Y-77188834D01*
X133043079Y-77171613D01*
X133061689Y-77143759D01*
X133070617Y-77125499D01*
X133080483Y-77115632D01*
X133094562Y-77094562D01*
X133115632Y-77080483D01*
X133125499Y-77070617D01*
X133143759Y-77061689D01*
X133171613Y-77043079D01*
X133188834Y-77039653D01*
X133196416Y-77035947D01*
X133237713Y-77029930D01*
X133262500Y-77025000D01*
X133862500Y-77025000D01*
X133887291Y-77029931D01*
G37*
G36*
X172207403Y-77206418D02*
G01*
X172256066Y-77238934D01*
X172288582Y-77287597D01*
X172300000Y-77345000D01*
X172300000Y-77645000D01*
X172288582Y-77702403D01*
X172256066Y-77751066D01*
X172207403Y-77783582D01*
X172150000Y-77795000D01*
X170500000Y-77795000D01*
X170442597Y-77783582D01*
X170393934Y-77751066D01*
X170361418Y-77702403D01*
X170350000Y-77645000D01*
X170350000Y-77345000D01*
X170361418Y-77287597D01*
X170393934Y-77238934D01*
X170442597Y-77206418D01*
X170500000Y-77195000D01*
X172150000Y-77195000D01*
X172207403Y-77206418D01*
G37*
G36*
X177157403Y-77206418D02*
G01*
X177206066Y-77238934D01*
X177238582Y-77287597D01*
X177250000Y-77345000D01*
X177250000Y-77645000D01*
X177238582Y-77702403D01*
X177206066Y-77751066D01*
X177157403Y-77783582D01*
X177100000Y-77795000D01*
X175450000Y-77795000D01*
X175392597Y-77783582D01*
X175343934Y-77751066D01*
X175311418Y-77702403D01*
X175300000Y-77645000D01*
X175300000Y-77345000D01*
X175311418Y-77287597D01*
X175343934Y-77238934D01*
X175392597Y-77206418D01*
X175450000Y-77195000D01*
X177100000Y-77195000D01*
X177157403Y-77206418D01*
G37*
G36*
X136400000Y-77770000D02*
G01*
X134900000Y-77770000D01*
X134900000Y-76870000D01*
X136400000Y-76870000D01*
X136400000Y-77770000D01*
G37*
G36*
X153900000Y-77770000D02*
G01*
X152400000Y-77770000D01*
X152400000Y-76870000D01*
X153900000Y-76870000D01*
X153900000Y-77770000D01*
G37*
G36*
X158761418Y-77279758D02*
G01*
X158781694Y-77293306D01*
X158795242Y-77313582D01*
X158800000Y-77337500D01*
X158800000Y-77462500D01*
X158795242Y-77486418D01*
X158781694Y-77506694D01*
X158761418Y-77520242D01*
X158737500Y-77525000D01*
X158037500Y-77525000D01*
X158013582Y-77520242D01*
X157993306Y-77506694D01*
X157979758Y-77486418D01*
X157975000Y-77462500D01*
X157975000Y-77337500D01*
X157979758Y-77313582D01*
X157993306Y-77293306D01*
X158013582Y-77279758D01*
X158037500Y-77275000D01*
X158737500Y-77275000D01*
X158761418Y-77279758D01*
G37*
G36*
X161186418Y-77279758D02*
G01*
X161206694Y-77293306D01*
X161220242Y-77313582D01*
X161225000Y-77337500D01*
X161225000Y-77462500D01*
X161220242Y-77486418D01*
X161206694Y-77506694D01*
X161186418Y-77520242D01*
X161162500Y-77525000D01*
X160462500Y-77525000D01*
X160438582Y-77520242D01*
X160418306Y-77506694D01*
X160404758Y-77486418D01*
X160400000Y-77462500D01*
X160400000Y-77337500D01*
X160404758Y-77313582D01*
X160418306Y-77293306D01*
X160438582Y-77279758D01*
X160462500Y-77275000D01*
X161162500Y-77275000D01*
X161186418Y-77279758D01*
G37*
G36*
X158761418Y-76779758D02*
G01*
X158781694Y-76793306D01*
X158795242Y-76813582D01*
X158800000Y-76837500D01*
X158800000Y-76962500D01*
X158795242Y-76986418D01*
X158781694Y-77006694D01*
X158761418Y-77020242D01*
X158737500Y-77025000D01*
X158037500Y-77025000D01*
X158013582Y-77020242D01*
X157993306Y-77006694D01*
X157979758Y-76986418D01*
X157975000Y-76962500D01*
X157975000Y-76837500D01*
X157979758Y-76813582D01*
X157993306Y-76793306D01*
X158013582Y-76779758D01*
X158037500Y-76775000D01*
X158737500Y-76775000D01*
X158761418Y-76779758D01*
G37*
G36*
X161186418Y-76779758D02*
G01*
X161206694Y-76793306D01*
X161220242Y-76813582D01*
X161225000Y-76837500D01*
X161225000Y-76962500D01*
X161220242Y-76986418D01*
X161206694Y-77006694D01*
X161186418Y-77020242D01*
X161162500Y-77025000D01*
X160462500Y-77025000D01*
X160438582Y-77020242D01*
X160418306Y-77006694D01*
X160404758Y-76986418D01*
X160400000Y-76962500D01*
X160400000Y-76837500D01*
X160404758Y-76813582D01*
X160418306Y-76793306D01*
X160438582Y-76779758D01*
X160462500Y-76775000D01*
X161162500Y-76775000D01*
X161186418Y-76779758D01*
G37*
G36*
X163815119Y-76410467D02*
G01*
X163859727Y-76440273D01*
X163889533Y-76484881D01*
X163900000Y-76537500D01*
X163900000Y-76812500D01*
X163889533Y-76865119D01*
X163859727Y-76909727D01*
X163815119Y-76939533D01*
X163762500Y-76950000D01*
X162437500Y-76950000D01*
X162384881Y-76939533D01*
X162340273Y-76909727D01*
X162310467Y-76865119D01*
X162300000Y-76812500D01*
X162300000Y-76537500D01*
X162310467Y-76484881D01*
X162340273Y-76440273D01*
X162384881Y-76410467D01*
X162437500Y-76400000D01*
X163762500Y-76400000D01*
X163815119Y-76410467D01*
G37*
G36*
X156962291Y-75904931D02*
G01*
X157003583Y-75910947D01*
X157011163Y-75914652D01*
X157028387Y-75918079D01*
X157056243Y-75936691D01*
X157074500Y-75945617D01*
X157084364Y-75955481D01*
X157105438Y-75969562D01*
X157119518Y-75990635D01*
X157129382Y-76000499D01*
X157138306Y-76018754D01*
X157156921Y-76046613D01*
X157160347Y-76063838D01*
X157164052Y-76071416D01*
X157170065Y-76112695D01*
X157175000Y-76137500D01*
X157175000Y-76637500D01*
X157170064Y-76662310D01*
X157164052Y-76703583D01*
X157160347Y-76711159D01*
X157156921Y-76728387D01*
X157138304Y-76756248D01*
X157129382Y-76774500D01*
X157119520Y-76784361D01*
X157105438Y-76805438D01*
X157084361Y-76819520D01*
X157074500Y-76829382D01*
X157056248Y-76838304D01*
X157028387Y-76856921D01*
X157011159Y-76860347D01*
X157003583Y-76864052D01*
X156962307Y-76870065D01*
X156937500Y-76875000D01*
X156462500Y-76875000D01*
X156437692Y-76870065D01*
X156396416Y-76864052D01*
X156388838Y-76860347D01*
X156371613Y-76856921D01*
X156343754Y-76838306D01*
X156325499Y-76829382D01*
X156315635Y-76819518D01*
X156294562Y-76805438D01*
X156280481Y-76784364D01*
X156270617Y-76774500D01*
X156261691Y-76756243D01*
X156243079Y-76728387D01*
X156239652Y-76711163D01*
X156235947Y-76703583D01*
X156229930Y-76662288D01*
X156225000Y-76637500D01*
X156225000Y-76137500D01*
X156229931Y-76112710D01*
X156235947Y-76071416D01*
X156239653Y-76063834D01*
X156243079Y-76046613D01*
X156261689Y-76018759D01*
X156270617Y-76000499D01*
X156280483Y-75990632D01*
X156294562Y-75969562D01*
X156315632Y-75955483D01*
X156325499Y-75945617D01*
X156343759Y-75936689D01*
X156371613Y-75918079D01*
X156388834Y-75914653D01*
X156396416Y-75910947D01*
X156437713Y-75904930D01*
X156462500Y-75900000D01*
X156937500Y-75900000D01*
X156962291Y-75904931D01*
G37*
G36*
X158761418Y-76279758D02*
G01*
X158781694Y-76293306D01*
X158795242Y-76313582D01*
X158800000Y-76337500D01*
X158800000Y-76462500D01*
X158795242Y-76486418D01*
X158781694Y-76506694D01*
X158761418Y-76520242D01*
X158737500Y-76525000D01*
X158037500Y-76525000D01*
X158013582Y-76520242D01*
X157993306Y-76506694D01*
X157979758Y-76486418D01*
X157975000Y-76462500D01*
X157975000Y-76337500D01*
X157979758Y-76313582D01*
X157993306Y-76293306D01*
X158013582Y-76279758D01*
X158037500Y-76275000D01*
X158737500Y-76275000D01*
X158761418Y-76279758D01*
G37*
G36*
X161186418Y-76279758D02*
G01*
X161206694Y-76293306D01*
X161220242Y-76313582D01*
X161225000Y-76337500D01*
X161225000Y-76462500D01*
X161220242Y-76486418D01*
X161206694Y-76506694D01*
X161186418Y-76520242D01*
X161162500Y-76525000D01*
X160462500Y-76525000D01*
X160438582Y-76520242D01*
X160418306Y-76506694D01*
X160404758Y-76486418D01*
X160400000Y-76462500D01*
X160400000Y-76337500D01*
X160404758Y-76313582D01*
X160418306Y-76293306D01*
X160438582Y-76279758D01*
X160462500Y-76275000D01*
X161162500Y-76275000D01*
X161186418Y-76279758D01*
G37*
G36*
X136400000Y-76500000D02*
G01*
X134900000Y-76500000D01*
X134900000Y-75600000D01*
X136400000Y-75600000D01*
X136400000Y-76500000D01*
G37*
G36*
X153900000Y-76500000D02*
G01*
X152400000Y-76500000D01*
X152400000Y-75600000D01*
X153900000Y-75600000D01*
X153900000Y-76500000D01*
G37*
G36*
X132062291Y-75529931D02*
G01*
X132103583Y-75535947D01*
X132111163Y-75539652D01*
X132128387Y-75543079D01*
X132156243Y-75561691D01*
X132174500Y-75570617D01*
X132184364Y-75580481D01*
X132205438Y-75594562D01*
X132219518Y-75615635D01*
X132229382Y-75625499D01*
X132238306Y-75643754D01*
X132256921Y-75671613D01*
X132260347Y-75688838D01*
X132264052Y-75696416D01*
X132270065Y-75737695D01*
X132275000Y-75762500D01*
X132275000Y-76237500D01*
X132270064Y-76262310D01*
X132264052Y-76303583D01*
X132260347Y-76311159D01*
X132256921Y-76328387D01*
X132238304Y-76356248D01*
X132229382Y-76374500D01*
X132219520Y-76384361D01*
X132205438Y-76405438D01*
X132184361Y-76419520D01*
X132174500Y-76429382D01*
X132156248Y-76438304D01*
X132128387Y-76456921D01*
X132111159Y-76460347D01*
X132103583Y-76464052D01*
X132062307Y-76470065D01*
X132037500Y-76475000D01*
X131537500Y-76475000D01*
X131512692Y-76470065D01*
X131471416Y-76464052D01*
X131463838Y-76460347D01*
X131446613Y-76456921D01*
X131418754Y-76438306D01*
X131400499Y-76429382D01*
X131390635Y-76419518D01*
X131369562Y-76405438D01*
X131355481Y-76384364D01*
X131345617Y-76374500D01*
X131336691Y-76356243D01*
X131318079Y-76328387D01*
X131314652Y-76311163D01*
X131310947Y-76303583D01*
X131304930Y-76262288D01*
X131300000Y-76237500D01*
X131300000Y-75762500D01*
X131304931Y-75737710D01*
X131310947Y-75696416D01*
X131314653Y-75688834D01*
X131318079Y-75671613D01*
X131336689Y-75643759D01*
X131345617Y-75625499D01*
X131355483Y-75615632D01*
X131369562Y-75594562D01*
X131390632Y-75580483D01*
X131400499Y-75570617D01*
X131418759Y-75561689D01*
X131446613Y-75543079D01*
X131463834Y-75539653D01*
X131471416Y-75535947D01*
X131512713Y-75529930D01*
X131537500Y-75525000D01*
X132037500Y-75525000D01*
X132062291Y-75529931D01*
G37*
G36*
X133887291Y-75529931D02*
G01*
X133928583Y-75535947D01*
X133936163Y-75539652D01*
X133953387Y-75543079D01*
X133981243Y-75561691D01*
X133999500Y-75570617D01*
X134009364Y-75580481D01*
X134030438Y-75594562D01*
X134044518Y-75615635D01*
X134054382Y-75625499D01*
X134063306Y-75643754D01*
X134081921Y-75671613D01*
X134085347Y-75688838D01*
X134089052Y-75696416D01*
X134095065Y-75737695D01*
X134100000Y-75762500D01*
X134100000Y-76237500D01*
X134095064Y-76262310D01*
X134089052Y-76303583D01*
X134085347Y-76311159D01*
X134081921Y-76328387D01*
X134063304Y-76356248D01*
X134054382Y-76374500D01*
X134044520Y-76384361D01*
X134030438Y-76405438D01*
X134009361Y-76419520D01*
X133999500Y-76429382D01*
X133981248Y-76438304D01*
X133953387Y-76456921D01*
X133936159Y-76460347D01*
X133928583Y-76464052D01*
X133887307Y-76470065D01*
X133862500Y-76475000D01*
X133362500Y-76475000D01*
X133337692Y-76470065D01*
X133296416Y-76464052D01*
X133288838Y-76460347D01*
X133271613Y-76456921D01*
X133243754Y-76438306D01*
X133225499Y-76429382D01*
X133215635Y-76419518D01*
X133194562Y-76405438D01*
X133180481Y-76384364D01*
X133170617Y-76374500D01*
X133161691Y-76356243D01*
X133143079Y-76328387D01*
X133139652Y-76311163D01*
X133135947Y-76303583D01*
X133129930Y-76262288D01*
X133125000Y-76237500D01*
X133125000Y-75762500D01*
X133129931Y-75737710D01*
X133135947Y-75696416D01*
X133139653Y-75688834D01*
X133143079Y-75671613D01*
X133161689Y-75643759D01*
X133170617Y-75625499D01*
X133180483Y-75615632D01*
X133194562Y-75594562D01*
X133215632Y-75580483D01*
X133225499Y-75570617D01*
X133243759Y-75561689D01*
X133271613Y-75543079D01*
X133288834Y-75539653D01*
X133296416Y-75535947D01*
X133337713Y-75529930D01*
X133362500Y-75525000D01*
X133862500Y-75525000D01*
X133887291Y-75529931D01*
G37*
G36*
X161624797Y-73979932D02*
G01*
X161669650Y-73986467D01*
X161677882Y-73990491D01*
X161695671Y-73994030D01*
X161724440Y-74013253D01*
X161744263Y-74022944D01*
X161754973Y-74033654D01*
X161776777Y-74048223D01*
X161791345Y-74070026D01*
X161802055Y-74080736D01*
X161811744Y-74100556D01*
X161830970Y-74129329D01*
X161834508Y-74147119D01*
X161838532Y-74155349D01*
X161845064Y-74200187D01*
X161850000Y-74225000D01*
X161850000Y-75175000D01*
X161845063Y-75199816D01*
X161838532Y-75244650D01*
X161834509Y-75252878D01*
X161830970Y-75270671D01*
X161811742Y-75299446D01*
X161802055Y-75319263D01*
X161791347Y-75329970D01*
X161776777Y-75351777D01*
X161754970Y-75366347D01*
X161744263Y-75377055D01*
X161724446Y-75386742D01*
X161695671Y-75405970D01*
X161677878Y-75409509D01*
X161669650Y-75413532D01*
X161624814Y-75420064D01*
X161600000Y-75425000D01*
X160925000Y-75425000D01*
X160900186Y-75420064D01*
X160855349Y-75413532D01*
X160847119Y-75409508D01*
X160829329Y-75405970D01*
X160800556Y-75386744D01*
X160780736Y-75377055D01*
X160770026Y-75366345D01*
X160748223Y-75351777D01*
X160733654Y-75329973D01*
X160722944Y-75319263D01*
X160713253Y-75299440D01*
X160694030Y-75270671D01*
X160690491Y-75252882D01*
X160686467Y-75244650D01*
X160679932Y-75199796D01*
X160675000Y-75175000D01*
X160675000Y-74225000D01*
X160679931Y-74200205D01*
X160686467Y-74155349D01*
X160690491Y-74147115D01*
X160694030Y-74129329D01*
X160713251Y-74100561D01*
X160722944Y-74080736D01*
X160733656Y-74070023D01*
X160748223Y-74048223D01*
X160770023Y-74033656D01*
X160780736Y-74022944D01*
X160800561Y-74013251D01*
X160829329Y-73994030D01*
X160847115Y-73990491D01*
X160855349Y-73986467D01*
X160900206Y-73979931D01*
X160925000Y-73975000D01*
X161600000Y-73975000D01*
X161624797Y-73979932D01*
G37*
G36*
X163699797Y-73979932D02*
G01*
X163744650Y-73986467D01*
X163752882Y-73990491D01*
X163770671Y-73994030D01*
X163799440Y-74013253D01*
X163819263Y-74022944D01*
X163829973Y-74033654D01*
X163851777Y-74048223D01*
X163866345Y-74070026D01*
X163877055Y-74080736D01*
X163886744Y-74100556D01*
X163905970Y-74129329D01*
X163909508Y-74147119D01*
X163913532Y-74155349D01*
X163920064Y-74200187D01*
X163925000Y-74225000D01*
X163925000Y-75175000D01*
X163920063Y-75199816D01*
X163913532Y-75244650D01*
X163909509Y-75252878D01*
X163905970Y-75270671D01*
X163886742Y-75299446D01*
X163877055Y-75319263D01*
X163866347Y-75329970D01*
X163851777Y-75351777D01*
X163829970Y-75366347D01*
X163819263Y-75377055D01*
X163799446Y-75386742D01*
X163770671Y-75405970D01*
X163752878Y-75409509D01*
X163744650Y-75413532D01*
X163699814Y-75420064D01*
X163675000Y-75425000D01*
X163000000Y-75425000D01*
X162975186Y-75420064D01*
X162930349Y-75413532D01*
X162922119Y-75409508D01*
X162904329Y-75405970D01*
X162875556Y-75386744D01*
X162855736Y-75377055D01*
X162845026Y-75366345D01*
X162823223Y-75351777D01*
X162808654Y-75329973D01*
X162797944Y-75319263D01*
X162788253Y-75299440D01*
X162769030Y-75270671D01*
X162765491Y-75252882D01*
X162761467Y-75244650D01*
X162754932Y-75199796D01*
X162750000Y-75175000D01*
X162750000Y-74225000D01*
X162754931Y-74200205D01*
X162761467Y-74155349D01*
X162765491Y-74147115D01*
X162769030Y-74129329D01*
X162788251Y-74100561D01*
X162797944Y-74080736D01*
X162808656Y-74070023D01*
X162823223Y-74048223D01*
X162845023Y-74033656D01*
X162855736Y-74022944D01*
X162875561Y-74013251D01*
X162904329Y-73994030D01*
X162922115Y-73990491D01*
X162930349Y-73986467D01*
X162975206Y-73979931D01*
X163000000Y-73975000D01*
X163675000Y-73975000D01*
X163699797Y-73979932D01*
G37*
G36*
X136400000Y-75230000D02*
G01*
X134900000Y-75230000D01*
X134900000Y-74330000D01*
X136400000Y-74330000D01*
X136400000Y-75230000D01*
G37*
G36*
X153900000Y-75230000D02*
G01*
X152400000Y-75230000D01*
X152400000Y-74330000D01*
X153900000Y-74330000D01*
X153900000Y-75230000D01*
G37*
G36*
X133899797Y-73754932D02*
G01*
X133944650Y-73761467D01*
X133952882Y-73765491D01*
X133970671Y-73769030D01*
X133999440Y-73788253D01*
X134019263Y-73797944D01*
X134029973Y-73808654D01*
X134051777Y-73823223D01*
X134066345Y-73845026D01*
X134077055Y-73855736D01*
X134086744Y-73875556D01*
X134105970Y-73904329D01*
X134109508Y-73922119D01*
X134113532Y-73930349D01*
X134120064Y-73975187D01*
X134125000Y-74000000D01*
X134125000Y-74675000D01*
X134120063Y-74699816D01*
X134113532Y-74744650D01*
X134109509Y-74752878D01*
X134105970Y-74770671D01*
X134086742Y-74799446D01*
X134077055Y-74819263D01*
X134066347Y-74829970D01*
X134051777Y-74851777D01*
X134029970Y-74866347D01*
X134019263Y-74877055D01*
X133999446Y-74886742D01*
X133970671Y-74905970D01*
X133952878Y-74909509D01*
X133944650Y-74913532D01*
X133899814Y-74920064D01*
X133875000Y-74925000D01*
X132925000Y-74925000D01*
X132900186Y-74920064D01*
X132855349Y-74913532D01*
X132847119Y-74909508D01*
X132829329Y-74905970D01*
X132800556Y-74886744D01*
X132780736Y-74877055D01*
X132770026Y-74866345D01*
X132748223Y-74851777D01*
X132733654Y-74829973D01*
X132722944Y-74819263D01*
X132713253Y-74799440D01*
X132694030Y-74770671D01*
X132690491Y-74752882D01*
X132686467Y-74744650D01*
X132679932Y-74699796D01*
X132675000Y-74675000D01*
X132675000Y-74000000D01*
X132679931Y-73975205D01*
X132686467Y-73930349D01*
X132690491Y-73922115D01*
X132694030Y-73904329D01*
X132713251Y-73875561D01*
X132722944Y-73855736D01*
X132733656Y-73845023D01*
X132748223Y-73823223D01*
X132770023Y-73808656D01*
X132780736Y-73797944D01*
X132800561Y-73788251D01*
X132829329Y-73769030D01*
X132847115Y-73765491D01*
X132855349Y-73761467D01*
X132900206Y-73754931D01*
X132925000Y-73750000D01*
X133875000Y-73750000D01*
X133899797Y-73754932D01*
G37*
G36*
X131862291Y-73429931D02*
G01*
X131903583Y-73435947D01*
X131911163Y-73439652D01*
X131928387Y-73443079D01*
X131956243Y-73461691D01*
X131974500Y-73470617D01*
X131984364Y-73480481D01*
X132005438Y-73494562D01*
X132019518Y-73515635D01*
X132029382Y-73525499D01*
X132038306Y-73543754D01*
X132056921Y-73571613D01*
X132060347Y-73588838D01*
X132064052Y-73596416D01*
X132070065Y-73637695D01*
X132075000Y-73662500D01*
X132075000Y-74262500D01*
X132070064Y-74287310D01*
X132064052Y-74328583D01*
X132060347Y-74336159D01*
X132056921Y-74353387D01*
X132038304Y-74381248D01*
X132029382Y-74399500D01*
X132019520Y-74409361D01*
X132005438Y-74430438D01*
X131984361Y-74444520D01*
X131974500Y-74454382D01*
X131956248Y-74463304D01*
X131928387Y-74481921D01*
X131911159Y-74485347D01*
X131903583Y-74489052D01*
X131862307Y-74495065D01*
X131837500Y-74500000D01*
X131362500Y-74500000D01*
X131337692Y-74495065D01*
X131296416Y-74489052D01*
X131288838Y-74485347D01*
X131271613Y-74481921D01*
X131243754Y-74463306D01*
X131225499Y-74454382D01*
X131215635Y-74444518D01*
X131194562Y-74430438D01*
X131180481Y-74409364D01*
X131170617Y-74399500D01*
X131161691Y-74381243D01*
X131143079Y-74353387D01*
X131139652Y-74336163D01*
X131135947Y-74328583D01*
X131129930Y-74287288D01*
X131125000Y-74262500D01*
X131125000Y-73662500D01*
X131129931Y-73637710D01*
X131135947Y-73596416D01*
X131139653Y-73588834D01*
X131143079Y-73571613D01*
X131161689Y-73543759D01*
X131170617Y-73525499D01*
X131180483Y-73515632D01*
X131194562Y-73494562D01*
X131215632Y-73480483D01*
X131225499Y-73470617D01*
X131243759Y-73461689D01*
X131271613Y-73443079D01*
X131288834Y-73439653D01*
X131296416Y-73435947D01*
X131337713Y-73429930D01*
X131362500Y-73425000D01*
X131837500Y-73425000D01*
X131862291Y-73429931D01*
G37*
G36*
X125291807Y-71984538D02*
G01*
X125478354Y-72045151D01*
X125653123Y-72134200D01*
X125811810Y-72249493D01*
X125950507Y-72388190D01*
X126065800Y-72546877D01*
X126154849Y-72721646D01*
X126215462Y-72908193D01*
X126246147Y-73101926D01*
X126246147Y-73298074D01*
X126215462Y-73491807D01*
X126154849Y-73678354D01*
X126065800Y-73853123D01*
X125950507Y-74011810D01*
X125811810Y-74150507D01*
X125653123Y-74265800D01*
X125478354Y-74354849D01*
X125291807Y-74415462D01*
X125098074Y-74446147D01*
X124901926Y-74446147D01*
X124708193Y-74415462D01*
X124521646Y-74354849D01*
X124346877Y-74265800D01*
X124188190Y-74150507D01*
X124049493Y-74011810D01*
X123934200Y-73853123D01*
X123845151Y-73678354D01*
X123784538Y-73491807D01*
X123753853Y-73298074D01*
X123753853Y-73101926D01*
X123784538Y-72908193D01*
X123845151Y-72721646D01*
X123934200Y-72546877D01*
X124049493Y-72388190D01*
X124188190Y-72249493D01*
X124346877Y-72134200D01*
X124521646Y-72045151D01*
X124708193Y-71984538D01*
X124901926Y-71953853D01*
X125098074Y-71953853D01*
X125291807Y-71984538D01*
G37*
G36*
X195291807Y-71984538D02*
G01*
X195478354Y-72045151D01*
X195653123Y-72134200D01*
X195811810Y-72249493D01*
X195950507Y-72388190D01*
X196065800Y-72546877D01*
X196154849Y-72721646D01*
X196215462Y-72908193D01*
X196246147Y-73101926D01*
X196246147Y-73298074D01*
X196215462Y-73491807D01*
X196154849Y-73678354D01*
X196065800Y-73853123D01*
X195950507Y-74011810D01*
X195811810Y-74150507D01*
X195653123Y-74265800D01*
X195478354Y-74354849D01*
X195291807Y-74415462D01*
X195098074Y-74446147D01*
X194901926Y-74446147D01*
X194708193Y-74415462D01*
X194521646Y-74354849D01*
X194346877Y-74265800D01*
X194188190Y-74150507D01*
X194049493Y-74011810D01*
X193934200Y-73853123D01*
X193845151Y-73678354D01*
X193784538Y-73491807D01*
X193753853Y-73298074D01*
X193753853Y-73101926D01*
X193784538Y-72908193D01*
X193845151Y-72721646D01*
X193934200Y-72546877D01*
X194049493Y-72388190D01*
X194188190Y-72249493D01*
X194346877Y-72134200D01*
X194521646Y-72045151D01*
X194708193Y-71984538D01*
X194901926Y-71953853D01*
X195098074Y-71953853D01*
X195291807Y-71984538D01*
G37*
G36*
X177662291Y-73229931D02*
G01*
X177703583Y-73235947D01*
X177711163Y-73239652D01*
X177728387Y-73243079D01*
X177756243Y-73261691D01*
X177774500Y-73270617D01*
X177784364Y-73280481D01*
X177805438Y-73294562D01*
X177819518Y-73315635D01*
X177829382Y-73325499D01*
X177838306Y-73343754D01*
X177856921Y-73371613D01*
X177860347Y-73388838D01*
X177864052Y-73396416D01*
X177870065Y-73437695D01*
X177875000Y-73462500D01*
X177875000Y-73937500D01*
X177870064Y-73962310D01*
X177864052Y-74003583D01*
X177860347Y-74011159D01*
X177856921Y-74028387D01*
X177838304Y-74056248D01*
X177829382Y-74074500D01*
X177819520Y-74084361D01*
X177805438Y-74105438D01*
X177784361Y-74119520D01*
X177774500Y-74129382D01*
X177756248Y-74138304D01*
X177728387Y-74156921D01*
X177711159Y-74160347D01*
X177703583Y-74164052D01*
X177662307Y-74170065D01*
X177637500Y-74175000D01*
X177137500Y-74175000D01*
X177112692Y-74170065D01*
X177071416Y-74164052D01*
X177063838Y-74160347D01*
X177046613Y-74156921D01*
X177018754Y-74138306D01*
X177000499Y-74129382D01*
X176990635Y-74119518D01*
X176969562Y-74105438D01*
X176955481Y-74084364D01*
X176945617Y-74074500D01*
X176936691Y-74056243D01*
X176918079Y-74028387D01*
X176914652Y-74011163D01*
X176910947Y-74003583D01*
X176904930Y-73962288D01*
X176900000Y-73937500D01*
X176900000Y-73462500D01*
X176904931Y-73437710D01*
X176910947Y-73396416D01*
X176914653Y-73388834D01*
X176918079Y-73371613D01*
X176936689Y-73343759D01*
X176945617Y-73325499D01*
X176955483Y-73315632D01*
X176969562Y-73294562D01*
X176990632Y-73280483D01*
X177000499Y-73270617D01*
X177018759Y-73261689D01*
X177046613Y-73243079D01*
X177063834Y-73239653D01*
X177071416Y-73235947D01*
X177112713Y-73229930D01*
X177137500Y-73225000D01*
X177637500Y-73225000D01*
X177662291Y-73229931D01*
G37*
G36*
X179487291Y-73229931D02*
G01*
X179528583Y-73235947D01*
X179536163Y-73239652D01*
X179553387Y-73243079D01*
X179581243Y-73261691D01*
X179599500Y-73270617D01*
X179609364Y-73280481D01*
X179630438Y-73294562D01*
X179644518Y-73315635D01*
X179654382Y-73325499D01*
X179663306Y-73343754D01*
X179681921Y-73371613D01*
X179685347Y-73388838D01*
X179689052Y-73396416D01*
X179695065Y-73437695D01*
X179700000Y-73462500D01*
X179700000Y-73937500D01*
X179695064Y-73962310D01*
X179689052Y-74003583D01*
X179685347Y-74011159D01*
X179681921Y-74028387D01*
X179663304Y-74056248D01*
X179654382Y-74074500D01*
X179644520Y-74084361D01*
X179630438Y-74105438D01*
X179609361Y-74119520D01*
X179599500Y-74129382D01*
X179581248Y-74138304D01*
X179553387Y-74156921D01*
X179536159Y-74160347D01*
X179528583Y-74164052D01*
X179487307Y-74170065D01*
X179462500Y-74175000D01*
X178962500Y-74175000D01*
X178937692Y-74170065D01*
X178896416Y-74164052D01*
X178888838Y-74160347D01*
X178871613Y-74156921D01*
X178843754Y-74138306D01*
X178825499Y-74129382D01*
X178815635Y-74119518D01*
X178794562Y-74105438D01*
X178780481Y-74084364D01*
X178770617Y-74074500D01*
X178761691Y-74056243D01*
X178743079Y-74028387D01*
X178739652Y-74011163D01*
X178735947Y-74003583D01*
X178729930Y-73962288D01*
X178725000Y-73937500D01*
X178725000Y-73462500D01*
X178729931Y-73437710D01*
X178735947Y-73396416D01*
X178739653Y-73388834D01*
X178743079Y-73371613D01*
X178761689Y-73343759D01*
X178770617Y-73325499D01*
X178780483Y-73315632D01*
X178794562Y-73294562D01*
X178815632Y-73280483D01*
X178825499Y-73270617D01*
X178843759Y-73261689D01*
X178871613Y-73243079D01*
X178888834Y-73239653D01*
X178896416Y-73235947D01*
X178937713Y-73229930D01*
X178962500Y-73225000D01*
X179462500Y-73225000D01*
X179487291Y-73229931D01*
G37*
G36*
X175482403Y-73561418D02*
G01*
X175531066Y-73593934D01*
X175563582Y-73642597D01*
X175575000Y-73700000D01*
X175575000Y-74000000D01*
X175563582Y-74057403D01*
X175531066Y-74106066D01*
X175482403Y-74138582D01*
X175425000Y-74150000D01*
X174250000Y-74150000D01*
X174192597Y-74138582D01*
X174143934Y-74106066D01*
X174111418Y-74057403D01*
X174100000Y-74000000D01*
X174100000Y-73700000D01*
X174111418Y-73642597D01*
X174143934Y-73593934D01*
X174192597Y-73561418D01*
X174250000Y-73550000D01*
X175425000Y-73550000D01*
X175482403Y-73561418D01*
G37*
G36*
X136400000Y-73960000D02*
G01*
X134900000Y-73960000D01*
X134900000Y-73060000D01*
X136400000Y-73060000D01*
X136400000Y-73960000D01*
G37*
G36*
X153900000Y-73960000D02*
G01*
X152400000Y-73960000D01*
X152400000Y-73060000D01*
X153900000Y-73060000D01*
X153900000Y-73960000D01*
G37*
G36*
X185789034Y-72105764D02*
G01*
X185822125Y-72127875D01*
X185844236Y-72160966D01*
X185852000Y-72200000D01*
X185852000Y-73700000D01*
X185844236Y-73739034D01*
X185822125Y-73772125D01*
X185789034Y-73794236D01*
X185750000Y-73802000D01*
X184250000Y-73802000D01*
X184210966Y-73794236D01*
X184177875Y-73772125D01*
X184155764Y-73739034D01*
X184148000Y-73700000D01*
X184148000Y-72200000D01*
X184155764Y-72160966D01*
X184177875Y-72127875D01*
X184210966Y-72105764D01*
X184250000Y-72098000D01*
X185750000Y-72098000D01*
X185789034Y-72105764D01*
G37*
G36*
X173607403Y-72611418D02*
G01*
X173656066Y-72643934D01*
X173688582Y-72692597D01*
X173700000Y-72750000D01*
X173700000Y-73050000D01*
X173688582Y-73107403D01*
X173656066Y-73156066D01*
X173607403Y-73188582D01*
X173550000Y-73200000D01*
X172375000Y-73200000D01*
X172317597Y-73188582D01*
X172268934Y-73156066D01*
X172236418Y-73107403D01*
X172225000Y-73050000D01*
X172225000Y-72750000D01*
X172236418Y-72692597D01*
X172268934Y-72643934D01*
X172317597Y-72611418D01*
X172375000Y-72600000D01*
X173550000Y-72600000D01*
X173607403Y-72611418D01*
G37*
G36*
X133899797Y-71679932D02*
G01*
X133944650Y-71686467D01*
X133952882Y-71690491D01*
X133970671Y-71694030D01*
X133999440Y-71713253D01*
X134019263Y-71722944D01*
X134029973Y-71733654D01*
X134051777Y-71748223D01*
X134066345Y-71770026D01*
X134077055Y-71780736D01*
X134086744Y-71800556D01*
X134105970Y-71829329D01*
X134109508Y-71847119D01*
X134113532Y-71855349D01*
X134120064Y-71900187D01*
X134125000Y-71925000D01*
X134125000Y-72600000D01*
X134120063Y-72624816D01*
X134113532Y-72669650D01*
X134109509Y-72677878D01*
X134105970Y-72695671D01*
X134086742Y-72724446D01*
X134077055Y-72744263D01*
X134066347Y-72754970D01*
X134051777Y-72776777D01*
X134029970Y-72791347D01*
X134019263Y-72802055D01*
X133999446Y-72811742D01*
X133970671Y-72830970D01*
X133952878Y-72834509D01*
X133944650Y-72838532D01*
X133899814Y-72845064D01*
X133875000Y-72850000D01*
X132925000Y-72850000D01*
X132900186Y-72845064D01*
X132855349Y-72838532D01*
X132847119Y-72834508D01*
X132829329Y-72830970D01*
X132800556Y-72811744D01*
X132780736Y-72802055D01*
X132770026Y-72791345D01*
X132748223Y-72776777D01*
X132733654Y-72754973D01*
X132722944Y-72744263D01*
X132713253Y-72724440D01*
X132694030Y-72695671D01*
X132690491Y-72677882D01*
X132686467Y-72669650D01*
X132679932Y-72624796D01*
X132675000Y-72600000D01*
X132675000Y-71925000D01*
X132679931Y-71900205D01*
X132686467Y-71855349D01*
X132690491Y-71847115D01*
X132694030Y-71829329D01*
X132713251Y-71800561D01*
X132722944Y-71780736D01*
X132733656Y-71770023D01*
X132748223Y-71748223D01*
X132770023Y-71733656D01*
X132780736Y-71722944D01*
X132800561Y-71713251D01*
X132829329Y-71694030D01*
X132847115Y-71690491D01*
X132855349Y-71686467D01*
X132900206Y-71679931D01*
X132925000Y-71675000D01*
X133875000Y-71675000D01*
X133899797Y-71679932D01*
G37*
G36*
X131862291Y-71704931D02*
G01*
X131903583Y-71710947D01*
X131911163Y-71714652D01*
X131928387Y-71718079D01*
X131956243Y-71736691D01*
X131974500Y-71745617D01*
X131984364Y-71755481D01*
X132005438Y-71769562D01*
X132019518Y-71790635D01*
X132029382Y-71800499D01*
X132038306Y-71818754D01*
X132056921Y-71846613D01*
X132060347Y-71863838D01*
X132064052Y-71871416D01*
X132070065Y-71912695D01*
X132075000Y-71937500D01*
X132075000Y-72537500D01*
X132070064Y-72562310D01*
X132064052Y-72603583D01*
X132060347Y-72611159D01*
X132056921Y-72628387D01*
X132038304Y-72656248D01*
X132029382Y-72674500D01*
X132019520Y-72684361D01*
X132005438Y-72705438D01*
X131984361Y-72719520D01*
X131974500Y-72729382D01*
X131956248Y-72738304D01*
X131928387Y-72756921D01*
X131911159Y-72760347D01*
X131903583Y-72764052D01*
X131862307Y-72770065D01*
X131837500Y-72775000D01*
X131362500Y-72775000D01*
X131337692Y-72770065D01*
X131296416Y-72764052D01*
X131288838Y-72760347D01*
X131271613Y-72756921D01*
X131243754Y-72738306D01*
X131225499Y-72729382D01*
X131215635Y-72719518D01*
X131194562Y-72705438D01*
X131180481Y-72684364D01*
X131170617Y-72674500D01*
X131161691Y-72656243D01*
X131143079Y-72628387D01*
X131139652Y-72611163D01*
X131135947Y-72603583D01*
X131129930Y-72562288D01*
X131125000Y-72537500D01*
X131125000Y-71937500D01*
X131129931Y-71912710D01*
X131135947Y-71871416D01*
X131139653Y-71863834D01*
X131143079Y-71846613D01*
X131161689Y-71818759D01*
X131170617Y-71800499D01*
X131180483Y-71790632D01*
X131194562Y-71769562D01*
X131215632Y-71755483D01*
X131225499Y-71745617D01*
X131243759Y-71736689D01*
X131271613Y-71718079D01*
X131288834Y-71714653D01*
X131296416Y-71710947D01*
X131337713Y-71704930D01*
X131362500Y-71700000D01*
X131837500Y-71700000D01*
X131862291Y-71704931D01*
G37*
G36*
X136400000Y-72690000D02*
G01*
X134900000Y-72690000D01*
X134900000Y-71790000D01*
X136400000Y-71790000D01*
X136400000Y-72690000D01*
G37*
G36*
X153900000Y-72690000D02*
G01*
X152400000Y-72690000D01*
X152400000Y-71790000D01*
X153900000Y-71790000D01*
X153900000Y-72690000D01*
G37*
G36*
X177662291Y-71729931D02*
G01*
X177703583Y-71735947D01*
X177711163Y-71739652D01*
X177728387Y-71743079D01*
X177756243Y-71761691D01*
X177774500Y-71770617D01*
X177784364Y-71780481D01*
X177805438Y-71794562D01*
X177819518Y-71815635D01*
X177829382Y-71825499D01*
X177838306Y-71843754D01*
X177856921Y-71871613D01*
X177860347Y-71888838D01*
X177864052Y-71896416D01*
X177870065Y-71937695D01*
X177875000Y-71962500D01*
X177875000Y-72437500D01*
X177870064Y-72462310D01*
X177864052Y-72503583D01*
X177860347Y-72511159D01*
X177856921Y-72528387D01*
X177838304Y-72556248D01*
X177829382Y-72574500D01*
X177819520Y-72584361D01*
X177805438Y-72605438D01*
X177784361Y-72619520D01*
X177774500Y-72629382D01*
X177756248Y-72638304D01*
X177728387Y-72656921D01*
X177711159Y-72660347D01*
X177703583Y-72664052D01*
X177662307Y-72670065D01*
X177637500Y-72675000D01*
X177137500Y-72675000D01*
X177112692Y-72670065D01*
X177071416Y-72664052D01*
X177063838Y-72660347D01*
X177046613Y-72656921D01*
X177018754Y-72638306D01*
X177000499Y-72629382D01*
X176990635Y-72619518D01*
X176969562Y-72605438D01*
X176955481Y-72584364D01*
X176945617Y-72574500D01*
X176936691Y-72556243D01*
X176918079Y-72528387D01*
X176914652Y-72511163D01*
X176910947Y-72503583D01*
X176904930Y-72462288D01*
X176900000Y-72437500D01*
X176900000Y-71962500D01*
X176904931Y-71937710D01*
X176910947Y-71896416D01*
X176914653Y-71888834D01*
X176918079Y-71871613D01*
X176936689Y-71843759D01*
X176945617Y-71825499D01*
X176955483Y-71815632D01*
X176969562Y-71794562D01*
X176990632Y-71780483D01*
X177000499Y-71770617D01*
X177018759Y-71761689D01*
X177046613Y-71743079D01*
X177063834Y-71739653D01*
X177071416Y-71735947D01*
X177112713Y-71729930D01*
X177137500Y-71725000D01*
X177637500Y-71725000D01*
X177662291Y-71729931D01*
G37*
G36*
X179487291Y-71729931D02*
G01*
X179528583Y-71735947D01*
X179536163Y-71739652D01*
X179553387Y-71743079D01*
X179581243Y-71761691D01*
X179599500Y-71770617D01*
X179609364Y-71780481D01*
X179630438Y-71794562D01*
X179644518Y-71815635D01*
X179654382Y-71825499D01*
X179663306Y-71843754D01*
X179681921Y-71871613D01*
X179685347Y-71888838D01*
X179689052Y-71896416D01*
X179695065Y-71937695D01*
X179700000Y-71962500D01*
X179700000Y-72437500D01*
X179695064Y-72462310D01*
X179689052Y-72503583D01*
X179685347Y-72511159D01*
X179681921Y-72528387D01*
X179663304Y-72556248D01*
X179654382Y-72574500D01*
X179644520Y-72584361D01*
X179630438Y-72605438D01*
X179609361Y-72619520D01*
X179599500Y-72629382D01*
X179581248Y-72638304D01*
X179553387Y-72656921D01*
X179536159Y-72660347D01*
X179528583Y-72664052D01*
X179487307Y-72670065D01*
X179462500Y-72675000D01*
X178962500Y-72675000D01*
X178937692Y-72670065D01*
X178896416Y-72664052D01*
X178888838Y-72660347D01*
X178871613Y-72656921D01*
X178843754Y-72638306D01*
X178825499Y-72629382D01*
X178815635Y-72619518D01*
X178794562Y-72605438D01*
X178780481Y-72584364D01*
X178770617Y-72574500D01*
X178761691Y-72556243D01*
X178743079Y-72528387D01*
X178739652Y-72511163D01*
X178735947Y-72503583D01*
X178729930Y-72462288D01*
X178725000Y-72437500D01*
X178725000Y-71962500D01*
X178729931Y-71937710D01*
X178735947Y-71896416D01*
X178739653Y-71888834D01*
X178743079Y-71871613D01*
X178761689Y-71843759D01*
X178770617Y-71825499D01*
X178780483Y-71815632D01*
X178794562Y-71794562D01*
X178815632Y-71780483D01*
X178825499Y-71770617D01*
X178843759Y-71761689D01*
X178871613Y-71743079D01*
X178888834Y-71739653D01*
X178896416Y-71735947D01*
X178937713Y-71729930D01*
X178962500Y-71725000D01*
X179462500Y-71725000D01*
X179487291Y-71729931D01*
G37*
G36*
X175482403Y-71661418D02*
G01*
X175531066Y-71693934D01*
X175563582Y-71742597D01*
X175575000Y-71800000D01*
X175575000Y-72100000D01*
X175563582Y-72157403D01*
X175531066Y-72206066D01*
X175482403Y-72238582D01*
X175425000Y-72250000D01*
X174250000Y-72250000D01*
X174192597Y-72238582D01*
X174143934Y-72206066D01*
X174111418Y-72157403D01*
X174100000Y-72100000D01*
X174100000Y-71800000D01*
X174111418Y-71742597D01*
X174143934Y-71693934D01*
X174192597Y-71661418D01*
X174250000Y-71650000D01*
X175425000Y-71650000D01*
X175482403Y-71661418D01*
G37*
G36*
X185217714Y-69482295D02*
G01*
X185353548Y-69538559D01*
X185475795Y-69620242D01*
X185579758Y-69724205D01*
X185661441Y-69846452D01*
X185717705Y-69982286D01*
X185746389Y-70126487D01*
X185746389Y-70273513D01*
X185717705Y-70417714D01*
X185661441Y-70553548D01*
X185579758Y-70675795D01*
X185475795Y-70779758D01*
X185353548Y-70861441D01*
X185217714Y-70917705D01*
X185073513Y-70946389D01*
X184926487Y-70946389D01*
X184782286Y-70917705D01*
X184646452Y-70861441D01*
X184524205Y-70779758D01*
X184420242Y-70675795D01*
X184338559Y-70553548D01*
X184282295Y-70417714D01*
X184253611Y-70273513D01*
X184253611Y-70126487D01*
X184282295Y-69982286D01*
X184338559Y-69846452D01*
X184420242Y-69724205D01*
X184524205Y-69620242D01*
X184646452Y-69538559D01*
X184782286Y-69482295D01*
X184926487Y-69453611D01*
X185073513Y-69453611D01*
X185217714Y-69482295D01*
G37*
G36*
X173724797Y-66604932D02*
G01*
X173769650Y-66611467D01*
X173777882Y-66615491D01*
X173795671Y-66619030D01*
X173824440Y-66638253D01*
X173844263Y-66647944D01*
X173854973Y-66658654D01*
X173876777Y-66673223D01*
X173891345Y-66695026D01*
X173902055Y-66705736D01*
X173911744Y-66725556D01*
X173930970Y-66754329D01*
X173934508Y-66772119D01*
X173938532Y-66780349D01*
X173945064Y-66825187D01*
X173950000Y-66850000D01*
X173950000Y-68150000D01*
X173945063Y-68174816D01*
X173938532Y-68219650D01*
X173934509Y-68227878D01*
X173930970Y-68245671D01*
X173911742Y-68274446D01*
X173902055Y-68294263D01*
X173891347Y-68304970D01*
X173876777Y-68326777D01*
X173854970Y-68341347D01*
X173844263Y-68352055D01*
X173824446Y-68361742D01*
X173795671Y-68380970D01*
X173777878Y-68384509D01*
X173769650Y-68388532D01*
X173724814Y-68395064D01*
X173700000Y-68400000D01*
X171700000Y-68400000D01*
X171675186Y-68395064D01*
X171630349Y-68388532D01*
X171622119Y-68384508D01*
X171604329Y-68380970D01*
X171575556Y-68361744D01*
X171555736Y-68352055D01*
X171545026Y-68341345D01*
X171523223Y-68326777D01*
X171508654Y-68304973D01*
X171497944Y-68294263D01*
X171488253Y-68274440D01*
X171469030Y-68245671D01*
X171465491Y-68227882D01*
X171461467Y-68219650D01*
X171454932Y-68174796D01*
X171450000Y-68150000D01*
X171450000Y-66850000D01*
X171454931Y-66825205D01*
X171461467Y-66780349D01*
X171465491Y-66772115D01*
X171469030Y-66754329D01*
X171488251Y-66725561D01*
X171497944Y-66705736D01*
X171508656Y-66695023D01*
X171523223Y-66673223D01*
X171545023Y-66658656D01*
X171555736Y-66647944D01*
X171575561Y-66638251D01*
X171604329Y-66619030D01*
X171622115Y-66615491D01*
X171630349Y-66611467D01*
X171675206Y-66604931D01*
X171700000Y-66600000D01*
X173700000Y-66600000D01*
X173724797Y-66604932D01*
G37*
G36*
X177724797Y-66604932D02*
G01*
X177769650Y-66611467D01*
X177777882Y-66615491D01*
X177795671Y-66619030D01*
X177824440Y-66638253D01*
X177844263Y-66647944D01*
X177854973Y-66658654D01*
X177876777Y-66673223D01*
X177891345Y-66695026D01*
X177902055Y-66705736D01*
X177911744Y-66725556D01*
X177930970Y-66754329D01*
X177934508Y-66772119D01*
X177938532Y-66780349D01*
X177945064Y-66825187D01*
X177950000Y-66850000D01*
X177950000Y-68150000D01*
X177945063Y-68174816D01*
X177938532Y-68219650D01*
X177934509Y-68227878D01*
X177930970Y-68245671D01*
X177911742Y-68274446D01*
X177902055Y-68294263D01*
X177891347Y-68304970D01*
X177876777Y-68326777D01*
X177854970Y-68341347D01*
X177844263Y-68352055D01*
X177824446Y-68361742D01*
X177795671Y-68380970D01*
X177777878Y-68384509D01*
X177769650Y-68388532D01*
X177724814Y-68395064D01*
X177700000Y-68400000D01*
X175700000Y-68400000D01*
X175675186Y-68395064D01*
X175630349Y-68388532D01*
X175622119Y-68384508D01*
X175604329Y-68380970D01*
X175575556Y-68361744D01*
X175555736Y-68352055D01*
X175545026Y-68341345D01*
X175523223Y-68326777D01*
X175508654Y-68304973D01*
X175497944Y-68294263D01*
X175488253Y-68274440D01*
X175469030Y-68245671D01*
X175465491Y-68227882D01*
X175461467Y-68219650D01*
X175454932Y-68174796D01*
X175450000Y-68150000D01*
X175450000Y-66850000D01*
X175454931Y-66825205D01*
X175461467Y-66780349D01*
X175465491Y-66772115D01*
X175469030Y-66754329D01*
X175488251Y-66725561D01*
X175497944Y-66705736D01*
X175508656Y-66695023D01*
X175523223Y-66673223D01*
X175545023Y-66658656D01*
X175555736Y-66647944D01*
X175575561Y-66638251D01*
X175604329Y-66619030D01*
X175622115Y-66615491D01*
X175630349Y-66611467D01*
X175675206Y-66604931D01*
X175700000Y-66600000D01*
X177700000Y-66600000D01*
X177724797Y-66604932D01*
G37*
G36*
X183239034Y-65855764D02*
G01*
X183272125Y-65877875D01*
X183294236Y-65910966D01*
X183302000Y-65950000D01*
X183302000Y-67450000D01*
X183294236Y-67489034D01*
X183272125Y-67522125D01*
X183239034Y-67544236D01*
X183200000Y-67552000D01*
X181000000Y-67552000D01*
X180960966Y-67544236D01*
X180927875Y-67522125D01*
X180905764Y-67489034D01*
X180898000Y-67450000D01*
X180898000Y-65950000D01*
X180905764Y-65910966D01*
X180927875Y-65877875D01*
X180960966Y-65855764D01*
X181000000Y-65848000D01*
X183200000Y-65848000D01*
X183239034Y-65855764D01*
G37*
G36*
X189039034Y-65855764D02*
G01*
X189072125Y-65877875D01*
X189094236Y-65910966D01*
X189102000Y-65950000D01*
X189102000Y-67450000D01*
X189094236Y-67489034D01*
X189072125Y-67522125D01*
X189039034Y-67544236D01*
X189000000Y-67552000D01*
X186800000Y-67552000D01*
X186760966Y-67544236D01*
X186727875Y-67522125D01*
X186705764Y-67489034D01*
X186698000Y-67450000D01*
X186698000Y-65950000D01*
X186705764Y-65910966D01*
X186727875Y-65877875D01*
X186760966Y-65855764D01*
X186800000Y-65848000D01*
X189000000Y-65848000D01*
X189039034Y-65855764D01*
G37*
M02*
