%TF.GenerationSoftware,KiCad,Pcbnew,10.0.4-10.0.4~ubuntu24.04.1*%
%TF.CreationDate,2026-07-30T18:24:09-05:00*%
%TF.ProjectId,bt-nes-advantage-pcb,62742d6e-6573-42d6-9164-76616e746167,rev?*%
%TF.SameCoordinates,Original*%
%TF.FileFunction,Copper,L1,Top*%
%TF.FilePolarity,Positive*%
%FSLAX46Y46*%
G04 Gerber Fmt 4.6, Leading zero omitted, Abs format (unit mm)*
G04 Created by KiCad (PCBNEW 10.0.4-10.0.4~ubuntu24.04.1) date 2026-07-30 18:24:09*
%MOMM*%
%LPD*%
G01*
G04 APERTURE LIST*
G04 Aperture macros list*
%AMRoundRect*
0 Rectangle with rounded corners*
0 $1 Rounding radius*
0 $2 $3 $4 $5 $6 $7 $8 $9 X,Y pos of 4 corners*
0 Add a 4 corners polygon primitive as box body*
4,1,4,$2,$3,$4,$5,$6,$7,$8,$9,$2,$3,0*
0 Add four circle primitives for the rounded corners*
1,1,$1+$1,$2,$3*
1,1,$1+$1,$4,$5*
1,1,$1+$1,$6,$7*
1,1,$1+$1,$8,$9*
0 Add four rect primitives between the rounded corners*
20,1,$1+$1,$2,$3,$4,$5,0*
20,1,$1+$1,$4,$5,$6,$7,0*
20,1,$1+$1,$6,$7,$8,$9,0*
20,1,$1+$1,$8,$9,$2,$3,0*%
G04 Aperture macros list end*
%TA.AperFunction,SMDPad,CuDef*%
%ADD10RoundRect,0.237500X0.300000X0.237500X-0.300000X0.237500X-0.300000X-0.237500X0.300000X-0.237500X0*%
%TD*%
%TA.AperFunction,SMDPad,CuDef*%
%ADD11RoundRect,0.250000X0.337500X0.475000X-0.337500X0.475000X-0.337500X-0.475000X0.337500X-0.475000X0*%
%TD*%
%TA.AperFunction,SMDPad,CuDef*%
%ADD12RoundRect,0.150000X0.587500X0.150000X-0.587500X0.150000X-0.587500X-0.150000X0.587500X-0.150000X0*%
%TD*%
%TA.AperFunction,SMDPad,CuDef*%
%ADD13RoundRect,0.237500X-0.250000X-0.237500X0.250000X-0.237500X0.250000X0.237500X-0.250000X0.237500X0*%
%TD*%
%TA.AperFunction,SMDPad,CuDef*%
%ADD14RoundRect,0.137500X-0.662500X0.137500X-0.662500X-0.137500X0.662500X-0.137500X0.662500X0.137500X0*%
%TD*%
%TA.AperFunction,SMDPad,CuDef*%
%ADD15RoundRect,0.237500X0.237500X-0.250000X0.237500X0.250000X-0.237500X0.250000X-0.237500X-0.250000X0*%
%TD*%
%TA.AperFunction,SMDPad,CuDef*%
%ADD16R,1.500000X1.500000*%
%TD*%
%TA.AperFunction,SMDPad,CuDef*%
%ADD17R,2.200000X1.500000*%
%TD*%
%TA.AperFunction,SMDPad,CuDef*%
%ADD18RoundRect,0.237500X0.237500X-0.300000X0.237500X0.300000X-0.237500X0.300000X-0.237500X-0.300000X0*%
%TD*%
%TA.AperFunction,SMDPad,CuDef*%
%ADD19RoundRect,0.062500X-0.350000X-0.062500X0.350000X-0.062500X0.350000X0.062500X-0.350000X0.062500X0*%
%TD*%
%TA.AperFunction,HeatsinkPad*%
%ADD20C,0.500000*%
%TD*%
%TA.AperFunction,HeatsinkPad*%
%ADD21R,1.200000X2.000000*%
%TD*%
%TA.AperFunction,SMDPad,CuDef*%
%ADD22R,1.500000X0.900000*%
%TD*%
%TA.AperFunction,SMDPad,CuDef*%
%ADD23R,0.900000X1.500000*%
%TD*%
%TA.AperFunction,HeatsinkPad*%
%ADD24R,0.900000X0.900000*%
%TD*%
%TA.AperFunction,HeatsinkPad*%
%ADD25C,0.600000*%
%TD*%
%TA.AperFunction,SMDPad,CuDef*%
%ADD26RoundRect,0.150000X-0.825000X-0.150000X0.825000X-0.150000X0.825000X0.150000X-0.825000X0.150000X0*%
%TD*%
%TA.AperFunction,HeatsinkPad*%
%ADD27R,2.290000X3.000000*%
%TD*%
%TA.AperFunction,SMDPad,CuDef*%
%ADD28RoundRect,0.250000X-0.337500X-0.475000X0.337500X-0.475000X0.337500X0.475000X-0.337500X0.475000X0*%
%TD*%
%TA.AperFunction,SMDPad,CuDef*%
%ADD29RoundRect,0.237500X0.250000X0.237500X-0.250000X0.237500X-0.250000X-0.237500X0.250000X-0.237500X0*%
%TD*%
%TA.AperFunction,SMDPad,CuDef*%
%ADD30RoundRect,0.250000X-1.000000X-0.650000X1.000000X-0.650000X1.000000X0.650000X-1.000000X0.650000X0*%
%TD*%
%TA.AperFunction,ComponentPad*%
%ADD31RoundRect,0.250000X-0.625000X0.350000X-0.625000X-0.350000X0.625000X-0.350000X0.625000X0.350000X0*%
%TD*%
%TA.AperFunction,ComponentPad*%
%ADD32O,1.750000X1.200000*%
%TD*%
%TA.AperFunction,ComponentPad*%
%ADD33RoundRect,0.250000X0.725000X-0.600000X0.725000X0.600000X-0.725000X0.600000X-0.725000X-0.600000X0*%
%TD*%
%TA.AperFunction,ComponentPad*%
%ADD34O,1.950000X1.700000*%
%TD*%
%TA.AperFunction,SMDPad,CuDef*%
%ADD35RoundRect,0.250000X0.475000X-0.337500X0.475000X0.337500X-0.475000X0.337500X-0.475000X-0.337500X0*%
%TD*%
%TA.AperFunction,ConnectorPad*%
%ADD36C,0.787400*%
%TD*%
%TA.AperFunction,ViaPad*%
%ADD37C,0.600000*%
%TD*%
%TA.AperFunction,Conductor*%
%ADD38C,0.200000*%
%TD*%
%TA.AperFunction,Conductor*%
%ADD39C,0.300000*%
%TD*%
%TA.AperFunction,Conductor*%
%ADD40C,0.400000*%
%TD*%
G04 APERTURE END LIST*
D10*
%TO.P,C3,1*%
%TO.N,EN*%
X133562500Y-77500000D03*
%TO.P,C3,2*%
%TO.N,GND*%
X131837500Y-77500000D03*
%TD*%
D11*
%TO.P,C9,1*%
%TO.N,+3.3V*%
X185737500Y-82300000D03*
%TO.P,C9,2*%
%TO.N,GND*%
X183662500Y-82300000D03*
%TD*%
D12*
%TO.P,Q2,1,G_1*%
%TO.N,BATT_EN*%
X133037500Y-86150000D03*
%TO.P,Q2,2,S_2*%
%TO.N,GND*%
X133037500Y-84250000D03*
%TO.P,Q2,3,D_3*%
%TO.N,BATT_SENSE_GND*%
X131162500Y-85200000D03*
%TD*%
D13*
%TO.P,R13,1*%
%TO.N,BATT_SENSE_GND*%
X131787500Y-80500000D03*
%TO.P,R13,2*%
%TO.N,BATT_SENSE*%
X133612500Y-80500000D03*
%TD*%
D14*
%TO.P,L1,1,1_1*%
%TO.N,Net-(U3-LX1)*%
X163100000Y-76675000D03*
%TO.P,L1,2,2_2*%
%TO.N,Net-(U3-LX2)*%
X163100000Y-78125000D03*
%TD*%
D13*
%TO.P,R4,1*%
%TO.N,+3.3V*%
X131787500Y-76000000D03*
%TO.P,R4,2*%
%TO.N,EN*%
X133612500Y-76000000D03*
%TD*%
%TO.P,R7,1*%
%TO.N,CHG_STAT*%
X179787500Y-78700000D03*
%TO.P,R7,2*%
%TO.N,+3.3V*%
X181612500Y-78700000D03*
%TD*%
D11*
%TO.P,C5,1*%
%TO.N,+BATT*%
X176737500Y-83100000D03*
%TO.P,C5,2*%
%TO.N,GND*%
X174662500Y-83100000D03*
%TD*%
D15*
%TO.P,R11,1*%
%TO.N,Net-(U3-CFG3)*%
X156700000Y-78212500D03*
%TO.P,R11,2*%
%TO.N,GND*%
X156700000Y-76387500D03*
%TD*%
D13*
%TO.P,R8,1*%
%TO.N,STBY_STAT*%
X179787500Y-80200000D03*
%TO.P,R8,2*%
%TO.N,+3.3V*%
X181612500Y-80200000D03*
%TD*%
D16*
%TO.P,J1,1*%
%TO.N,+5V*%
X185000000Y-72950000D03*
D17*
%TO.P,J1,2*%
%TO.N,GND*%
X182100000Y-66700000D03*
%TO.P,J1,3*%
X187900000Y-66700000D03*
%TD*%
D18*
%TO.P,C2,1*%
%TO.N,+3.3V*%
X131600000Y-73962500D03*
%TO.P,C2,2*%
%TO.N,GND*%
X131600000Y-72237500D03*
%TD*%
D19*
%TO.P,U3,1,EN_1*%
%TO.N,Vsys*%
X158387500Y-76400000D03*
%TO.P,U3,2,SEL_2*%
%TO.N,GND*%
X158387500Y-76900000D03*
%TO.P,U3,3,CFG1_3*%
X158387500Y-77400000D03*
%TO.P,U3,4,CFG2_4*%
X158387500Y-77900000D03*
%TO.P,U3,5,CFG3_5*%
%TO.N,Net-(U3-CFG3)*%
X158387500Y-78400000D03*
%TO.P,U3,6,VOUT_6*%
%TO.N,+3.3V*%
X160812500Y-78400000D03*
%TO.P,U3,7,LX2_7*%
%TO.N,Net-(U3-LX2)*%
X160812500Y-77900000D03*
%TO.P,U3,8,GND_8*%
%TO.N,GND*%
X160812500Y-77400000D03*
%TO.P,U3,9,LX1_9*%
%TO.N,Net-(U3-LX1)*%
X160812500Y-76900000D03*
%TO.P,U3,10,VIN_10*%
%TO.N,Vsys*%
X160812500Y-76400000D03*
D20*
%TO.P,U3,11,GND_11*%
%TO.N,GND*%
X159250000Y-76650000D03*
X159250000Y-77400000D03*
X159250000Y-78150000D03*
D21*
X159600000Y-77400000D03*
D20*
X159950000Y-76650000D03*
X159950000Y-77400000D03*
X159950000Y-78150000D03*
%TD*%
D22*
%TO.P,U1,1,GND_1*%
%TO.N,GND*%
X135650000Y-72240000D03*
%TO.P,U1,2,VDD_2*%
%TO.N,+3.3V*%
X135650000Y-73510000D03*
%TO.P,U1,3,EN_3*%
%TO.N,EN*%
X135650000Y-74780000D03*
%TO.P,U1,4,SENSOR_VP_4*%
%TO.N,unconnected-(U1-SENSOR_VP-Pad4)*%
X135650000Y-76050000D03*
%TO.P,U1,5,SENSOR_VN_5*%
%TO.N,unconnected-(U1-SENSOR_VN-Pad5)*%
X135650000Y-77320000D03*
%TO.P,U1,6,IO34_6*%
%TO.N,BATT_SENSE*%
X135650000Y-78590000D03*
%TO.P,U1,7,IO35_7*%
%TO.N,unconnected-(U1-IO35-Pad7)*%
X135650000Y-79860000D03*
%TO.P,U1,8,IO32_8*%
%TO.N,DATA_0*%
X135650000Y-81130000D03*
%TO.P,U1,9,IO33_9*%
%TO.N,DATA_1*%
X135650000Y-82400000D03*
%TO.P,U1,10,IO25_10*%
%TO.N,LATCH*%
X135650000Y-83670000D03*
%TO.P,U1,11,IO26_11*%
%TO.N,CLOCK_0*%
X135650000Y-84940000D03*
%TO.P,U1,12,IO27_12*%
%TO.N,CLOCK_1*%
X135650000Y-86210000D03*
%TO.P,U1,13,IO14_13*%
%TO.N,unconnected-(U1-IO14-Pad13)*%
X135650000Y-87480000D03*
%TO.P,U1,14,IO12_14*%
%TO.N,unconnected-(U1-IO12-Pad14)*%
X135650000Y-88750000D03*
D23*
%TO.P,U1,15,GND_15*%
%TO.N,GND*%
X138685000Y-90000000D03*
%TO.P,U1,16,IO13_16*%
%TO.N,BATT_EN*%
X139955000Y-90000000D03*
%TO.P,U1,17,NC_17*%
%TO.N,unconnected-(U1-NC-Pad17)*%
X141225000Y-90000000D03*
%TO.P,U1,18,NC_18*%
%TO.N,unconnected-(U1-NC-Pad18)*%
X142495000Y-90000000D03*
%TO.P,U1,19,NC_19*%
%TO.N,unconnected-(U1-NC-Pad19)*%
X143765000Y-90000000D03*
%TO.P,U1,20,NC_20*%
%TO.N,unconnected-(U1-NC-Pad20)*%
X145035000Y-90000000D03*
%TO.P,U1,21,NC_21*%
%TO.N,unconnected-(U1-NC-Pad21)*%
X146305000Y-90000000D03*
%TO.P,U1,22,NC_22*%
%TO.N,unconnected-(U1-NC-Pad22)*%
X147575000Y-90000000D03*
%TO.P,U1,23,IO15_23*%
%TO.N,unconnected-(U1-IO15-Pad23)*%
X148845000Y-90000000D03*
%TO.P,U1,24,IO2_24*%
%TO.N,unconnected-(U1-IO2-Pad24)*%
X150115000Y-90000000D03*
D22*
%TO.P,U1,25,IO0_25*%
%TO.N,BOOT*%
X153150000Y-88750000D03*
%TO.P,U1,26,IO4_26*%
%TO.N,CHG_STAT*%
X153150000Y-87480000D03*
%TO.P,U1,27,IO16_27*%
%TO.N,unconnected-(U1-IO16-Pad27)*%
X153150000Y-86210000D03*
%TO.P,U1,28,IO17_28*%
%TO.N,unconnected-(U1-IO17-Pad28)*%
X153150000Y-84940000D03*
%TO.P,U1,29,IO5_29*%
%TO.N,unconnected-(U1-IO5-Pad29)*%
X153150000Y-83670000D03*
%TO.P,U1,30,IO18_30*%
%TO.N,STBY_STAT*%
X153150000Y-82400000D03*
%TO.P,U1,31,IO19_31*%
%TO.N,LED-R*%
X153150000Y-81130000D03*
%TO.P,U1,32,NC_32*%
%TO.N,unconnected-(U1-NC-Pad32)*%
X153150000Y-79860000D03*
%TO.P,U1,33,IO21_33*%
%TO.N,LED-G*%
X153150000Y-78590000D03*
%TO.P,U1,34,RXD0/IO3_34*%
%TO.N,UART_RX*%
X153150000Y-77320000D03*
%TO.P,U1,35,TXD0/IO1_35*%
%TO.N,UART_TX*%
X153150000Y-76050000D03*
%TO.P,U1,36,IO22_36*%
%TO.N,LED-B*%
X153150000Y-74780000D03*
%TO.P,U1,37,IO23_37*%
%TO.N,unconnected-(U1-IO23-Pad37)*%
X153150000Y-73510000D03*
%TO.P,U1,38,GND_38*%
%TO.N,GND*%
X153150000Y-72240000D03*
D24*
%TO.P,U1,39,GND_39*%
X141500000Y-78560000D03*
D25*
X141500000Y-79260000D03*
D24*
X141500000Y-79960000D03*
D25*
X141500000Y-80660000D03*
D24*
X141500000Y-81360000D03*
D25*
X142200000Y-78560000D03*
X142200000Y-79960000D03*
X142200000Y-81360000D03*
D24*
X142900000Y-78560000D03*
D25*
X142900000Y-79260000D03*
D24*
X142900000Y-79960000D03*
D25*
X142900000Y-80660000D03*
D24*
X142900000Y-81360000D03*
D25*
X143600000Y-78560000D03*
X143600000Y-79960000D03*
X143600000Y-81360000D03*
D24*
X144300000Y-78560000D03*
D25*
X144300000Y-79260000D03*
D24*
X144300000Y-79960000D03*
D25*
X144300000Y-80660000D03*
D24*
X144300000Y-81360000D03*
%TD*%
D10*
%TO.P,C10,1*%
%TO.N,+3.3V*%
X185762500Y-80400000D03*
%TO.P,C10,2*%
%TO.N,GND*%
X184037500Y-80400000D03*
%TD*%
D26*
%TO.P,U2,1,TEMP_1*%
%TO.N,GND*%
X171325000Y-77495000D03*
%TO.P,U2,2,PROG_2*%
%TO.N,Net-(U2-PROG)*%
X171325000Y-78765000D03*
%TO.P,U2,3,GND_3*%
%TO.N,GND*%
X171325000Y-80035000D03*
%TO.P,U2,4,V_{CC}_4*%
%TO.N,+5V*%
X171325000Y-81305000D03*
%TO.P,U2,5,BAT_5*%
%TO.N,+BATT*%
X176275000Y-81305000D03*
%TO.P,U2,6,~{STDBY}_6*%
%TO.N,STBY_STAT*%
X176275000Y-80035000D03*
%TO.P,U2,7,~{CHRG}_7*%
%TO.N,CHG_STAT*%
X176275000Y-78765000D03*
%TO.P,U2,8,CE_8*%
%TO.N,+5V*%
X176275000Y-77495000D03*
D20*
%TO.P,U2,9,EPAD_9*%
%TO.N,GND*%
X173150000Y-78400000D03*
X173150000Y-79400000D03*
X173150000Y-80400000D03*
D27*
X173800000Y-79400000D03*
D20*
X174450000Y-78400000D03*
X174450000Y-79400000D03*
X174450000Y-80400000D03*
%TD*%
D28*
%TO.P,C7,1*%
%TO.N,+3.3V*%
X161262500Y-80100000D03*
%TO.P,C7,2*%
%TO.N,GND*%
X163337500Y-80100000D03*
%TD*%
D29*
%TO.P,R9,1*%
%TO.N,+5V*%
X179212500Y-73700000D03*
%TO.P,R9,2*%
%TO.N,PP_GATE*%
X177387500Y-73700000D03*
%TD*%
D30*
%TO.P,D7,1,K_1*%
%TO.N,Vsys*%
X172700000Y-67500000D03*
%TO.P,D7,2,A_2*%
%TO.N,+5V*%
X176700000Y-67500000D03*
%TD*%
D31*
%TO.P,J3,1,Pin_1_1*%
%TO.N,+BATT*%
X127900000Y-91600000D03*
D32*
%TO.P,J3,2,Pin_2_2*%
%TO.N,GND*%
X127900000Y-93600000D03*
%TD*%
D29*
%TO.P,R5,1*%
%TO.N,+3.3V*%
X158112500Y-88800000D03*
%TO.P,R5,2*%
%TO.N,BOOT*%
X156287500Y-88800000D03*
%TD*%
D33*
%TO.P,J2,1,Pin_1_1*%
%TO.N,DATA_0*%
X189500000Y-97200000D03*
D34*
%TO.P,J2,2,Pin_2_2*%
%TO.N,LATCH*%
X189500000Y-94700000D03*
%TO.P,J2,3,Pin_3_3*%
%TO.N,CLOCK_0*%
X189500000Y-92200000D03*
%TO.P,J2,4,Pin_4_4*%
%TO.N,DATA_1*%
X189500000Y-89700000D03*
%TO.P,J2,5,Pin_5_5*%
%TO.N,CLOCK_1*%
X189500000Y-87200000D03*
%TO.P,J2,6,Pin_6_6*%
%TO.N,LATCH*%
X189500000Y-84700000D03*
%TO.P,J2,7,Pin_7_7*%
%TO.N,+3.3V*%
X189500000Y-82200000D03*
%TO.P,J2,8,Pin_8_8*%
%TO.N,GND*%
X189500000Y-79700000D03*
%TD*%
D35*
%TO.P,C1,1*%
%TO.N,+3.3V*%
X133400000Y-74337500D03*
%TO.P,C1,2*%
%TO.N,GND*%
X133400000Y-72262500D03*
%TD*%
D10*
%TO.P,C8,1*%
%TO.N,BATT_SENSE*%
X133562500Y-79000000D03*
%TO.P,C8,2*%
%TO.N,GND*%
X131837500Y-79000000D03*
%TD*%
D13*
%TO.P,R10,1*%
%TO.N,PP_GATE*%
X177387500Y-72200000D03*
%TO.P,R10,2*%
%TO.N,GND*%
X179212500Y-72200000D03*
%TD*%
D12*
%TO.P,Q1,1,G_1*%
%TO.N,PP_GATE*%
X174837500Y-73850000D03*
%TO.P,Q1,2,S_2*%
%TO.N,Vsys*%
X174837500Y-71950000D03*
%TO.P,Q1,3,D_3*%
%TO.N,+BATT*%
X172962500Y-72900000D03*
%TD*%
D28*
%TO.P,C6,1*%
%TO.N,Vsys*%
X161262500Y-74700000D03*
%TO.P,C6,2*%
%TO.N,GND*%
X163337500Y-74700000D03*
%TD*%
D15*
%TO.P,R6,1*%
%TO.N,Net-(U2-PROG)*%
X169200000Y-79512500D03*
%TO.P,R6,2*%
%TO.N,GND*%
X169200000Y-77687500D03*
%TD*%
D13*
%TO.P,R12,1*%
%TO.N,+BATT*%
X131787500Y-82000000D03*
%TO.P,R12,2*%
%TO.N,BATT_SENSE*%
X133612500Y-82000000D03*
%TD*%
D36*
%TO.P,J4,1*%
%TO.N,+3.3V*%
X126205000Y-81605000D03*
%TO.P,J4,2*%
%TO.N,BOOT*%
X126205000Y-82875000D03*
%TO.P,J4,3*%
%TO.N,UART_TX*%
X124935000Y-81605000D03*
%TO.P,J4,4*%
%TO.N,UART_RX*%
X124935000Y-82875000D03*
%TO.P,J4,5*%
%TO.N,GND*%
X123665000Y-81605000D03*
%TO.P,J4,6*%
%TO.N,EN*%
X123665000Y-82875000D03*
%TD*%
D28*
%TO.P,C4,1*%
%TO.N,+5V*%
X170862500Y-83100000D03*
%TO.P,C4,2*%
%TO.N,GND*%
X172937500Y-83100000D03*
%TD*%
D37*
%TO.N,EN*%
X121800000Y-82083433D03*
X132775000Y-76055816D03*
%TO.N,GND*%
X122700000Y-77300000D03*
X130300000Y-72200000D03*
X189300000Y-68100000D03*
X132690015Y-79707044D03*
X178700000Y-70900000D03*
%TO.N,+3.3V*%
X181100000Y-68400000D03*
%TO.N,CHG_STAT*%
X154600000Y-87480000D03*
X173917372Y-87517372D03*
%TO.N,STBY_STAT*%
X178300000Y-80035000D03*
X154600000Y-82400000D03*
%TO.N,DATA_0*%
X137000000Y-81130000D03*
%TO.N,DATA_1*%
X137000000Y-82400000D03*
%TO.N,LATCH*%
X137000000Y-83700000D03*
%TO.N,CLOCK_0*%
X137000000Y-84940000D03*
%TO.N,CLOCK_1*%
X137000000Y-86210000D03*
%TO.N,BOOT*%
X151800000Y-88800000D03*
X128600000Y-82100000D03*
%TO.N,LED-R*%
X154600000Y-81130000D03*
%TO.N,LED-G*%
X154600000Y-78590000D03*
%TO.N,UART_RX*%
X150000000Y-77300000D03*
X125800000Y-83800000D03*
%TO.N,UART_TX*%
X125800000Y-78600000D03*
X150000000Y-76050000D03*
%TO.N,LED-B*%
X154600000Y-74800000D03*
%TD*%
%TO.N,EN*%
D38*
X133612500Y-76000000D02*
X133612500Y-77450000D01*
X133612500Y-76000000D02*
X132830816Y-76000000D01*
X135650000Y-74780000D02*
X134700000Y-74780000D01*
X121800000Y-82083433D02*
X122873433Y-82083433D01*
X132830816Y-76000000D02*
X132775000Y-76055816D01*
X134700000Y-74780000D02*
X133612500Y-75867500D01*
X122873433Y-82083433D02*
X123665000Y-82875000D01*
%TO.N,GND*%
X164200000Y-75562500D02*
X164200000Y-76997528D01*
D39*
X130337500Y-72237500D02*
X131600000Y-72237500D01*
D38*
X123665000Y-81605000D02*
X123665000Y-81239283D01*
X163797528Y-77400000D02*
X160812500Y-77400000D01*
X190775000Y-80975000D02*
X190775000Y-82676346D01*
X184037500Y-80400000D02*
X184037500Y-81725000D01*
X130300000Y-72200000D02*
X130337500Y-72237500D01*
X184962500Y-83400000D02*
X183662500Y-82100000D01*
X164700000Y-78737500D02*
X164700000Y-76062500D01*
D39*
X141500000Y-81360000D02*
X138685000Y-84175000D01*
D38*
X159950000Y-77400000D02*
X160812500Y-77400000D01*
X131837500Y-79000000D02*
X131837500Y-77500000D01*
X190051346Y-83400000D02*
X184962500Y-83400000D01*
X163337500Y-74700000D02*
X164200000Y-75562500D01*
X179212500Y-71412500D02*
X178700000Y-70900000D01*
D39*
X133400000Y-72262500D02*
X131625000Y-72262500D01*
D38*
X158387500Y-76900000D02*
X158387500Y-77900000D01*
X133037500Y-84250000D02*
X134300000Y-85512500D01*
X158387500Y-76900000D02*
X157212500Y-76900000D01*
X164200000Y-76997528D02*
X163797528Y-77400000D01*
X134300000Y-89200000D02*
X135100000Y-90000000D01*
D40*
X189500000Y-79700000D02*
X189500000Y-68300000D01*
D39*
X138685000Y-84175000D02*
X138685000Y-90000000D01*
X150620000Y-72240000D02*
X153150000Y-72240000D01*
D38*
X171325000Y-80035000D02*
X173165000Y-80035000D01*
X157212500Y-76900000D02*
X156700000Y-76387500D01*
X190775000Y-82676346D02*
X190051346Y-83400000D01*
D39*
X135650000Y-72240000D02*
X133422500Y-72240000D01*
D38*
X164700000Y-76062500D02*
X163337500Y-74700000D01*
X171895000Y-77495000D02*
X173800000Y-79400000D01*
X122700000Y-80274283D02*
X122700000Y-77300000D01*
X172937500Y-83100000D02*
X172937500Y-80262500D01*
D39*
X144300000Y-78560000D02*
X150620000Y-72240000D01*
D38*
X132690015Y-79707044D02*
X131982971Y-79000000D01*
D40*
X189300000Y-68100000D02*
X187900000Y-66700000D01*
X182100000Y-66700000D02*
X187900000Y-66700000D01*
D38*
X123665000Y-81239283D02*
X122700000Y-80274283D01*
X158387500Y-77400000D02*
X159250000Y-77400000D01*
X163337500Y-80100000D02*
X164700000Y-78737500D01*
D40*
X189500000Y-68300000D02*
X189300000Y-68100000D01*
D38*
X171325000Y-77495000D02*
X169392500Y-77495000D01*
X174662500Y-83100000D02*
X174662500Y-80262500D01*
X134300000Y-85512500D02*
X134300000Y-89200000D01*
X189500000Y-79700000D02*
X190775000Y-80975000D01*
X179212500Y-72200000D02*
X179212500Y-71412500D01*
X135100000Y-90000000D02*
X138685000Y-90000000D01*
%TO.N,+3.3V*%
D39*
X128119993Y-81300000D02*
X126510000Y-81300000D01*
X129062450Y-78200118D02*
X129062450Y-80357543D01*
X155500000Y-75483278D02*
X155500000Y-72790000D01*
D38*
X170567157Y-66032843D02*
X170567157Y-70132843D01*
X185737500Y-82100000D02*
X189400000Y-82100000D01*
X181612500Y-78700000D02*
X181612500Y-80200000D01*
X185762500Y-80400000D02*
X185762500Y-82075000D01*
D39*
X155500000Y-75483278D02*
X155500000Y-79500000D01*
D38*
X161262500Y-78850000D02*
X160812500Y-78400000D01*
D39*
X155500000Y-79500000D02*
X156100000Y-80100000D01*
D38*
X181100000Y-68400000D02*
X178100000Y-65400000D01*
X184062500Y-78700000D02*
X181612500Y-78700000D01*
D39*
X131600000Y-73962500D02*
X131600000Y-75812500D01*
X138700000Y-71300000D02*
X136490000Y-73510000D01*
D38*
X187000000Y-77600000D02*
X185762500Y-78837500D01*
X181100000Y-68400000D02*
X184200000Y-71500000D01*
D39*
X156100000Y-80100000D02*
X161262500Y-80100000D01*
X136490000Y-73510000D02*
X135650000Y-73510000D01*
D38*
X178100000Y-65400000D02*
X171200000Y-65400000D01*
X168100000Y-72600000D02*
X158200000Y-72600000D01*
D39*
X129062450Y-78200118D02*
X131262568Y-76000000D01*
D38*
X185762500Y-78837500D02*
X185762500Y-80400000D01*
D39*
X131975000Y-74337500D02*
X131600000Y-73962500D01*
D38*
X161262500Y-80137500D02*
X158112500Y-83287500D01*
D39*
X133400000Y-74337500D02*
X131975000Y-74337500D01*
D38*
X170567157Y-70132843D02*
X168100000Y-72600000D01*
X161262500Y-80100000D02*
X161262500Y-78850000D01*
X158200000Y-72600000D02*
X155500000Y-75300000D01*
X158112500Y-83287500D02*
X158112500Y-88800000D01*
X187000000Y-72200000D02*
X187000000Y-77600000D01*
X171200000Y-65400000D02*
X170567157Y-66032843D01*
X184200000Y-71500000D02*
X186300000Y-71500000D01*
D39*
X129062450Y-80357543D02*
X128119993Y-81300000D01*
X154010000Y-71300000D02*
X138700000Y-71300000D01*
X155500000Y-72790000D02*
X154010000Y-71300000D01*
X131262568Y-76000000D02*
X131787500Y-76000000D01*
D38*
X186300000Y-71500000D02*
X187000000Y-72200000D01*
D39*
X126510000Y-81300000D02*
X126205000Y-81605000D01*
X135650000Y-73510000D02*
X134227500Y-73510000D01*
X134227500Y-73510000D02*
X133400000Y-74337500D01*
D38*
X185762500Y-80400000D02*
X184062500Y-78700000D01*
X155500000Y-75300000D02*
X155500000Y-75483278D01*
%TO.N,BATT_EN*%
X133037500Y-89737500D02*
X134600000Y-91300000D01*
X133037500Y-86150000D02*
X133037500Y-89737500D01*
X134600000Y-91300000D02*
X139605000Y-91300000D01*
X139605000Y-91300000D02*
X139955000Y-90950000D01*
X139955000Y-90950000D02*
X139955000Y-90000000D01*
%TO.N,BATT_SENSE_GND*%
X132575000Y-81287500D02*
X131787500Y-80500000D01*
X131162500Y-85200000D02*
X131775000Y-84587500D01*
X131775000Y-83266722D02*
X132575000Y-82466722D01*
X132575000Y-82466722D02*
X132575000Y-81287500D01*
X131775000Y-84587500D02*
X131775000Y-83266722D01*
%TO.N,BATT_SENSE*%
X133612500Y-80500000D02*
X133612500Y-79050000D01*
X135240000Y-79000000D02*
X135650000Y-78590000D01*
X133612500Y-82000000D02*
X133612500Y-80500000D01*
X133562500Y-79000000D02*
X135240000Y-79000000D01*
%TO.N,Net-(U3-LX1)*%
X162875000Y-76900000D02*
X160812500Y-76900000D01*
X163100000Y-76675000D02*
X162875000Y-76900000D01*
%TO.N,Net-(U3-LX2)*%
X162875000Y-77900000D02*
X160812500Y-77900000D01*
X163100000Y-78125000D02*
X162875000Y-77900000D01*
%TO.N,CHG_STAT*%
X178300000Y-78765000D02*
X179722500Y-78765000D01*
X180825000Y-80609744D02*
X180825000Y-79737500D01*
X176275000Y-78765000D02*
X178300000Y-78765000D01*
X180825000Y-79737500D02*
X179787500Y-78700000D01*
X153150000Y-87480000D02*
X154600000Y-87480000D01*
X173917372Y-87517372D02*
X180825000Y-80609744D01*
%TO.N,+BATT*%
D40*
X172568750Y-87268750D02*
X176737500Y-83100000D01*
D38*
X127900000Y-91600000D02*
X129800000Y-89700000D01*
D40*
X176737500Y-83100000D02*
X176737500Y-81767500D01*
X165737500Y-94100000D02*
X172568750Y-87268750D01*
X130400000Y-94100000D02*
X165737500Y-94100000D01*
X176737500Y-81767500D02*
X176275000Y-81305000D01*
X172568750Y-87268750D02*
X167200000Y-81900000D01*
X167200000Y-76600000D02*
X170900000Y-72900000D01*
X127900000Y-91600000D02*
X130400000Y-94100000D01*
D38*
X129800000Y-83987500D02*
X131787500Y-82000000D01*
X129800000Y-89700000D02*
X129800000Y-83987500D01*
D40*
X167200000Y-81900000D02*
X167200000Y-76600000D01*
X170900000Y-72900000D02*
X172962500Y-72900000D01*
%TO.N,Net-(U3-CFG3)*%
D38*
X156887500Y-78400000D02*
X158387500Y-78400000D01*
%TO.N,STBY_STAT*%
X153150000Y-82400000D02*
X154600000Y-82400000D01*
X176275000Y-80035000D02*
X178300000Y-80035000D01*
X178300000Y-80035000D02*
X179622500Y-80035000D01*
%TO.N,+5V*%
D40*
X168800000Y-76100000D02*
X168100000Y-76800000D01*
X180455000Y-77495000D02*
X185000000Y-72950000D01*
X168905000Y-81305000D02*
X171325000Y-81305000D01*
X176275000Y-77495000D02*
X180455000Y-77495000D01*
X170862500Y-83100000D02*
X170862500Y-81767500D01*
X170862500Y-81767500D02*
X171325000Y-81305000D01*
X176275000Y-77495000D02*
X174880000Y-76100000D01*
X174880000Y-76100000D02*
X168800000Y-76100000D01*
X185000000Y-72950000D02*
X182150000Y-72950000D01*
X168100000Y-76800000D02*
X168100000Y-80500000D01*
X179600000Y-73700000D02*
X179212500Y-73700000D01*
X168100000Y-80500000D02*
X168905000Y-81305000D01*
X182150000Y-72950000D02*
X176700000Y-67500000D01*
X180350000Y-72950000D02*
X179600000Y-73700000D01*
X185000000Y-72950000D02*
X180350000Y-72950000D01*
%TO.N,Vsys*%
X172700000Y-67500000D02*
X172700000Y-69300000D01*
X158412500Y-76375000D02*
X158387500Y-76375000D01*
X160087500Y-74700000D02*
X161262500Y-74700000D01*
X172700000Y-69812500D02*
X174837500Y-71950000D01*
X161262500Y-74700000D02*
X161262500Y-75925000D01*
X162387500Y-73575000D02*
X161262500Y-74700000D01*
X160087500Y-74700000D02*
X158412500Y-76375000D01*
X172700000Y-69300000D02*
X168425000Y-73575000D01*
X168425000Y-73575000D02*
X162387500Y-73575000D01*
X161262500Y-75925000D02*
X160812500Y-76375000D01*
X172700000Y-67500000D02*
X172700000Y-69812500D01*
%TO.N,DATA_0*%
D38*
X135650000Y-81130000D02*
X137000000Y-81130000D01*
%TO.N,DATA_1*%
X135650000Y-82400000D02*
X136900000Y-82400000D01*
%TO.N,LATCH*%
X190775000Y-93425000D02*
X189500000Y-94700000D01*
X136970000Y-83670000D02*
X137000000Y-83700000D01*
X135650000Y-83670000D02*
X136970000Y-83670000D01*
X189500000Y-84700000D02*
X190775000Y-85975000D01*
X190775000Y-85975000D02*
X190775000Y-93425000D01*
%TO.N,CLOCK_0*%
X135650000Y-84940000D02*
X136760000Y-84940000D01*
%TO.N,CLOCK_1*%
X135650000Y-86210000D02*
X136900000Y-86210000D01*
%TO.N,BOOT*%
X151850000Y-88750000D02*
X153150000Y-88750000D01*
X151800000Y-88800000D02*
X151850000Y-88750000D01*
X156287500Y-88800000D02*
X151800000Y-88800000D01*
X127825135Y-83085300D02*
X128600000Y-82310435D01*
X128600000Y-82310435D02*
X128600000Y-82100000D01*
X126415300Y-83085300D02*
X127825135Y-83085300D01*
X126205000Y-82875000D02*
X126415300Y-83085300D01*
%TO.N,LED-R*%
X154600000Y-81130000D02*
X153150000Y-81130000D01*
%TO.N,LED-G*%
X153150000Y-78590000D02*
X154600000Y-78590000D01*
%TO.N,UART_RX*%
X150020000Y-77320000D02*
X150000000Y-77300000D01*
X124935000Y-82935000D02*
X125800000Y-83800000D01*
X153150000Y-77320000D02*
X150020000Y-77320000D01*
%TO.N,UART_TX*%
X125837450Y-80702550D02*
X125837450Y-78637450D01*
X125837450Y-78637450D02*
X125800000Y-78600000D01*
X124935000Y-81605000D02*
X125837450Y-80702550D01*
X153150000Y-76050000D02*
X150150000Y-76050000D01*
%TO.N,LED-B*%
X153150000Y-74780000D02*
X154580000Y-74780000D01*
X154580000Y-74780000D02*
X154600000Y-74800000D01*
%TO.N,Net-(U2-PROG)*%
X171325000Y-78765000D02*
X169947500Y-78765000D01*
X169947500Y-78765000D02*
X169200000Y-79512500D01*
%TO.N,PP_GATE*%
X177387500Y-73700000D02*
X177387500Y-72200000D01*
X177387500Y-73700000D02*
X174987500Y-73700000D01*
%TD*%
M02*
