%TF.GenerationSoftware,KiCad,Pcbnew,10.0.4-10.0.4~ubuntu24.04.1*%
%TF.CreationDate,2026-07-30T18:24:09-05:00*%
%TF.ProjectId,bt-nes-advantage-pcb,62742d6e-6573-42d6-9164-76616e746167,rev?*%
%TF.SameCoordinates,Original*%
%TF.FileFunction,Paste,Top*%
%TF.FilePolarity,Positive*%
%FSLAX46Y46*%
G04 Gerber Fmt 4.6, Leading zero omitted, Abs format (unit mm)*
G04 Created by KiCad (PCBNEW 10.0.4-10.0.4~ubuntu24.04.1) date 2026-07-30 18:24:09*
%MOMM*%
%LPD*%
G01*
G04 APERTURE LIST*
G04 Aperture macros list*
%AMRoundRect*
0 Rectangle with rounded corners*
0 $1 Rounding radius*
0 $2 $3 $4 $5 $6 $7 $8 $9 X,Y pos of 4 corners*
0 Add a 4 corners polygon primitive as box body*
4,1,4,$2,$3,$4,$5,$6,$7,$8,$9,$2,$3,0*
0 Add four circle primitives for the rounded corners*
1,1,$1+$1,$2,$3*
1,1,$1+$1,$4,$5*
1,1,$1+$1,$6,$7*
1,1,$1+$1,$8,$9*
0 Add four rect primitives between the rounded corners*
20,1,$1+$1,$2,$3,$4,$5,0*
20,1,$1+$1,$4,$5,$6,$7,0*
20,1,$1+$1,$6,$7,$8,$9,0*
20,1,$1+$1,$8,$9,$2,$3,0*%
G04 Aperture macros list end*
%ADD10RoundRect,0.237500X0.300000X0.237500X-0.300000X0.237500X-0.300000X-0.237500X0.300000X-0.237500X0*%
%ADD11RoundRect,0.250000X0.337500X0.475000X-0.337500X0.475000X-0.337500X-0.475000X0.337500X-0.475000X0*%
%ADD12RoundRect,0.150000X0.587500X0.150000X-0.587500X0.150000X-0.587500X-0.150000X0.587500X-0.150000X0*%
%ADD13RoundRect,0.237500X-0.250000X-0.237500X0.250000X-0.237500X0.250000X0.237500X-0.250000X0.237500X0*%
%ADD14RoundRect,0.137500X-0.662500X0.137500X-0.662500X-0.137500X0.662500X-0.137500X0.662500X0.137500X0*%
%ADD15RoundRect,0.237500X0.237500X-0.250000X0.237500X0.250000X-0.237500X0.250000X-0.237500X-0.250000X0*%
%ADD16R,1.500000X1.500000*%
%ADD17R,2.200000X1.500000*%
%ADD18RoundRect,0.237500X0.237500X-0.300000X0.237500X0.300000X-0.237500X0.300000X-0.237500X-0.300000X0*%
%ADD19RoundRect,0.130000X-0.130000X-0.305000X0.130000X-0.305000X0.130000X0.305000X-0.130000X0.305000X0*%
%ADD20RoundRect,0.062500X-0.350000X-0.062500X0.350000X-0.062500X0.350000X0.062500X-0.350000X0.062500X0*%
%ADD21R,1.500000X0.900000*%
%ADD22R,0.900000X1.500000*%
%ADD23R,0.900000X0.900000*%
%ADD24RoundRect,0.240000X-0.240000X-0.385000X0.240000X-0.385000X0.240000X0.385000X-0.240000X0.385000X0*%
%ADD25RoundRect,0.150000X-0.825000X-0.150000X0.825000X-0.150000X0.825000X0.150000X-0.825000X0.150000X0*%
%ADD26RoundRect,0.250000X-0.337500X-0.475000X0.337500X-0.475000X0.337500X0.475000X-0.337500X0.475000X0*%
%ADD27RoundRect,0.237500X0.250000X0.237500X-0.250000X0.237500X-0.250000X-0.237500X0.250000X-0.237500X0*%
%ADD28RoundRect,0.250000X-1.000000X-0.650000X1.000000X-0.650000X1.000000X0.650000X-1.000000X0.650000X0*%
%ADD29RoundRect,0.250000X0.475000X-0.337500X0.475000X0.337500X-0.475000X0.337500X-0.475000X-0.337500X0*%
G04 APERTURE END LIST*
D10*
%TO.C,C3*%
X133562500Y-77500000D03*
X131837500Y-77500000D03*
%TD*%
D11*
%TO.C,C9*%
X185737500Y-82300000D03*
X183662500Y-82300000D03*
%TD*%
D12*
%TO.C,Q2*%
X133037500Y-86150000D03*
X133037500Y-84250000D03*
X131162500Y-85200000D03*
%TD*%
D13*
%TO.C,R13*%
X131787500Y-80500000D03*
X133612500Y-80500000D03*
%TD*%
D14*
%TO.C,L1*%
X163100000Y-76675000D03*
X163100000Y-78125000D03*
%TD*%
D13*
%TO.C,R4*%
X131787500Y-76000000D03*
X133612500Y-76000000D03*
%TD*%
%TO.C,R7*%
X179787500Y-78700000D03*
X181612500Y-78700000D03*
%TD*%
D11*
%TO.C,C5*%
X176737500Y-83100000D03*
X174662500Y-83100000D03*
%TD*%
D15*
%TO.C,R11*%
X156700000Y-78212500D03*
X156700000Y-76387500D03*
%TD*%
D13*
%TO.C,R8*%
X179787500Y-80200000D03*
X181612500Y-80200000D03*
%TD*%
D16*
%TO.C,J1*%
X185000000Y-72950000D03*
D17*
X182100000Y-66700000D03*
X187900000Y-66700000D03*
%TD*%
D18*
%TO.C,C2*%
X131600000Y-73962500D03*
X131600000Y-72237500D03*
%TD*%
D19*
%TO.C,U3*%
X159300000Y-76900000D03*
X159300000Y-77900000D03*
X159900000Y-76900000D03*
X159900000Y-77900000D03*
D20*
X158387500Y-76400000D03*
X158387500Y-76900000D03*
X158387500Y-77400000D03*
X158387500Y-77900000D03*
X158387500Y-78400000D03*
X160812500Y-78400000D03*
X160812500Y-77900000D03*
X160812500Y-77400000D03*
X160812500Y-76900000D03*
X160812500Y-76400000D03*
%TD*%
D21*
%TO.C,U1*%
X135650000Y-72240000D03*
X135650000Y-73510000D03*
X135650000Y-74780000D03*
X135650000Y-76050000D03*
X135650000Y-77320000D03*
X135650000Y-78590000D03*
X135650000Y-79860000D03*
X135650000Y-81130000D03*
X135650000Y-82400000D03*
X135650000Y-83670000D03*
X135650000Y-84940000D03*
X135650000Y-86210000D03*
X135650000Y-87480000D03*
X135650000Y-88750000D03*
D22*
X138685000Y-90000000D03*
X139955000Y-90000000D03*
X141225000Y-90000000D03*
X142495000Y-90000000D03*
X143765000Y-90000000D03*
X145035000Y-90000000D03*
X146305000Y-90000000D03*
X147575000Y-90000000D03*
X148845000Y-90000000D03*
X150115000Y-90000000D03*
D21*
X153150000Y-88750000D03*
X153150000Y-87480000D03*
X153150000Y-86210000D03*
X153150000Y-84940000D03*
X153150000Y-83670000D03*
X153150000Y-82400000D03*
X153150000Y-81130000D03*
X153150000Y-79860000D03*
X153150000Y-78590000D03*
X153150000Y-77320000D03*
X153150000Y-76050000D03*
X153150000Y-74780000D03*
X153150000Y-73510000D03*
X153150000Y-72240000D03*
D23*
X141500000Y-78560000D03*
X141500000Y-79960000D03*
X141500000Y-81360000D03*
X142900000Y-78560000D03*
X142900000Y-79960000D03*
X142900000Y-81360000D03*
X144300000Y-78560000D03*
X144300000Y-79960000D03*
X144300000Y-81360000D03*
%TD*%
D10*
%TO.C,C10*%
X185762500Y-80400000D03*
X184037500Y-80400000D03*
%TD*%
D24*
%TO.C,U2*%
X173230000Y-78650000D03*
X173230000Y-80150000D03*
X174370000Y-78650000D03*
X174370000Y-80150000D03*
D25*
X171325000Y-77495000D03*
X171325000Y-78765000D03*
X171325000Y-80035000D03*
X171325000Y-81305000D03*
X176275000Y-81305000D03*
X176275000Y-80035000D03*
X176275000Y-78765000D03*
X176275000Y-77495000D03*
%TD*%
D26*
%TO.C,C7*%
X161262500Y-80100000D03*
X163337500Y-80100000D03*
%TD*%
D27*
%TO.C,R9*%
X179212500Y-73700000D03*
X177387500Y-73700000D03*
%TD*%
D28*
%TO.C,D7*%
X172700000Y-67500000D03*
X176700000Y-67500000D03*
%TD*%
D27*
%TO.C,R5*%
X158112500Y-88800000D03*
X156287500Y-88800000D03*
%TD*%
D29*
%TO.C,C1*%
X133400000Y-74337500D03*
X133400000Y-72262500D03*
%TD*%
D10*
%TO.C,C8*%
X133562500Y-79000000D03*
X131837500Y-79000000D03*
%TD*%
D13*
%TO.C,R10*%
X177387500Y-72200000D03*
X179212500Y-72200000D03*
%TD*%
D12*
%TO.C,Q1*%
X174837500Y-73850000D03*
X174837500Y-71950000D03*
X172962500Y-72900000D03*
%TD*%
D26*
%TO.C,C6*%
X161262500Y-74700000D03*
X163337500Y-74700000D03*
%TD*%
D15*
%TO.C,R6*%
X169200000Y-79512500D03*
X169200000Y-77687500D03*
%TD*%
D13*
%TO.C,R12*%
X131787500Y-82000000D03*
X133612500Y-82000000D03*
%TD*%
D26*
%TO.C,C4*%
X170862500Y-83100000D03*
X172937500Y-83100000D03*
%TD*%
M02*
