M48
INCH
T1C0.0079
T2C0.0118
T3C0.0295
T4C0.0374
%
G90
G05
T1
X5.5709Y-3.1205
X5.5709Y-3.1756
X5.5984Y-3.0929
X5.5984Y-3.148
X5.5984Y-3.2031
X5.626Y-3.1205
X5.626Y-3.1756
X5.6535Y-3.0929
X5.6535Y-3.148
X5.6535Y-3.2031
X5.6811Y-3.1205
X5.6811Y-3.1756
X6.2697Y-3.0177
X6.2697Y-3.0472
X6.2697Y-3.0768
X6.2972Y-3.0177
X6.2972Y-3.0472
X6.2972Y-3.0768
X6.8169Y-3.0866
X6.8169Y-3.126
X6.8169Y-3.1654
X6.8681Y-3.0866
X6.8681Y-3.126
X6.8681Y-3.1654
T2
X4.7953Y-3.2316
X4.8307Y-3.0433
X4.9528Y-3.0945
X4.9528Y-3.2992
X5.063Y-3.2323
X5.1299Y-2.8425
X5.224Y-3.1381
X5.2274Y-2.9943
X5.3937Y-3.1941
X5.3937Y-3.2441
X5.3937Y-3.2953
X5.3937Y-3.3441
X5.3937Y-3.3941
X5.9055Y-2.9941
X5.9055Y-3.0433
X5.9764Y-3.4961
X6.0866Y-2.9449
X6.0866Y-3.0941
X6.0866Y-3.1941
X6.0866Y-3.2441
X6.0866Y-3.4441
X6.8471Y-3.4456
X7.0197Y-3.151
X7.0354Y-2.7913
X7.1299Y-2.6929
X7.4528Y-2.6811
T3
X5.0354Y-3.6063
X5.0354Y-3.685
T4
X7.4606Y-3.1378
X7.4606Y-3.2362
X7.4606Y-3.3346
X7.4606Y-3.4331
X7.4606Y-3.5315
X7.4606Y-3.6299
X7.4606Y-3.7283
X7.4606Y-3.8268
M30
